<?xml version="1.0" encoding="UTF-8"?>
<svg id="_レイヤー_2" data-name="レイヤー 2" xmlns="http://www.w3.org/2000/svg" viewBox="0 0 392.5685457 191.1120309">
  <defs>
    <style>
      .cls-1 {
        opacity: .6;
      }

      .cls-2 {
        stroke-width: 0px;
      }
    </style>
  </defs>
  <g id="_レイヤー_3" data-name="レイヤー 3">
    <g class="cls-1">
      <g>
        <path class="cls-2" d="m49.3563029,115.6913766c-2.5893555.0644531-3.9381104-5.0710449-4.0518799-15.4018555-.2539062-10.6899414.522583-21.6704102,2.3323975-32.9506836.8885498-5.5935059,3.1444092-17.6474609,6.7694092-36.1618652,2.6341553-12.3769531,3.4685059-21.1159668,2.505127-26.2145996-.2246094-2.1513672-.9157715-3.2126465-2.074707-3.1838379-.5354004.0131836-1.2120361.3000488-2.0246582.8591309-3.2631836,2.5075684-7.0050049,7.2746582-11.2229004,14.2990723-13.1865234,20.8183594-23.6669922,42.3781738-31.4428711,64.6799316-3.2871094,9.4274902-5.5461426,18.6950684-6.7746582,27.8037109-.2932129,2.6130371-.0366211,3.9104004.7666016,3.8903809.3557129-.0087891,1.1755371-.8378906,2.4598389-2.4875488.3411865-.7290039.7349854-1.0969238,1.1824951-1.1079102l.1812744-.1394043.2119141.5339355c-.6636963,1.9038086-1.630127,3.3432617-2.8990479,4.3183594-1.269043.9753418-2.2612305,1.4719238-2.9743652,1.4897461-1.9638672.0488281-2.6699219-1.7324219-2.1193848-5.3395996.6264648-5.8586426,2.7580566-14,6.3925781-24.4240723,7.9018555-22.6628418,19.2471924-45.8178711,34.0397949-69.4628906C47.4703166,5.6479195,52.5518595.0829781,55.8543498.0009469c5.3547363-.1333008,4.9602051,13.8078613-1.1777344,41.8190918-1.5213623,7.407959-2.8924561,14.7658691-4.1141357,22.0759277-2.9295654,16.519043-3.8010254,29.9306641-2.6169434,40.2370605.1225586,2.6931152.7106934,5.1936035,1.762085,7.5053711.1350098.6242676.3817139.934082.7391357.925293.623291-.015625,1.0793457-.4313965,1.3637695-1.2473145l.2763672-.4111328c4.2032471-7.7443848,10.2410889-22.9020996,18.1116943-45.4755859,3.3500977-9.6083984,9.2403564-27.7746582,17.6744385-54.4970703.9578857-3.2590332,1.5427246-5.3166504,1.7556152-6.1772461.2099609-.8583984.0488281-1.2817383-.4865723-1.2683105l-.1340332.0031738c-.2675781.0068359-.2116699-.5341797.1676025-1.6220703.6782227-1.1835938,1.3734131-1.786377,2.0887451-1.8041992.8911133-.0222168.5957031,2.7275391-.8840332,8.2451172-9.4787598,31.2409668-17.1245117,55.2036133-22.9401855,71.8830566-6.3845215,18.3112793-10.949707,29.1206055-13.6940918,32.4243164-1.5878906,2.0151367-3.0511475,3.041748-4.3897705,3.0749512Z"/>
        <path class="cls-2" d="m101.2802531,112.9169625c-.6254883.015625-1.019043-.3789062-1.1796875-1.1838379-.1347656-2.1533203.1560059-4.3850098.8745117-6.6945801.7159424-2.3095703,1.5335693-4.779541,2.4499512-7.4077148,2.5603027-7.3435059,6.4310303-16.9875488,11.6149902-28.9350586,5.1810303-11.9458008,9.9882812-22.2431641,14.4204102-30.892334.3155518-.9052734.4753418-1.494873.4822998-1.7646484l-.4013672.0100098c-.9831543.0244141-1.961792.6784668-2.9394531,1.9606934-11.6745605,16.7363281-19.0653076,26.895752-22.1719971,30.4780273-2.2243652,2.5727539-4.0949707,3.8764648-5.6113281,3.9143066-.8032227.0197754-1.4047852-.4135742-1.8015137-1.3034668-.4709473-1.6943359-.6887207-2.7231445-.6499023-3.0842285-.6060791.4655762-1.5170898,1.4321289-2.7359619,2.8989258-3.8756104,4.7702637-6.5272217,7.1723633-7.9537354,7.2077637-.1796875.0043945-.6092529-.0964355-1.2871094-.3049316-.6787109-.206543-.260498-2.4875488,1.2567139-6.8388672,1.3587646-3.8969727,3.4597168-7.7702637,6.3057861-11.6154785.855835-1.1882324,1.8057861-2.1345215,2.8458252-2.8344727,1.0401611-.6999512,1.9161377-1.0585938,2.6314697-1.076416,1.9882812.1318359,2.0039062,3.0065918.0444336,8.6264648-.0949707.2719727-.276123.411377-.5439453.4179688-.4475098.0109863-.4794922-.5270996-.1000977-1.6152344.7751465-2.9851074,1.0070801-4.9221191.6999512-5.8139648-.720459.2873535-1.4013672.84375-2.0415039,1.6682129-3.1705322,3.7651367-5.7033691,8.3652344-7.5998535,13.8046875-.7585449,2.1757812-.8701172,3.2568359-.3349609,3.2436523.3557129-.0087891,1.9671631-1.7109375,4.833252-5.1081543,2.3498535-2.9333496,3.8370361-4.4091797,4.4622803-4.4248047.6235352-.0153809.9989014.5610352,1.1239014,1.7246094-.0141602,2.0688477.5158691,3.0876465,1.5869141,3.0610352,2.4094238-.0598145,11.1722412-11.2412109,26.2938232-33.5466309.1895752-.5437012-.0292969-.8081055-.6525879-.7924805-.357666.0087891-.6414795.0625-.850708.15625-.2116699.095459-2.0904541.4121094-5.638916.9487305-12.6804199,2.1140137-19.689209,3.185791-21.027832,3.2189941-.7722168-.0690918-1.6027832-.0949707-2.4960938-.0727539-.8911133.0222168-1.3464355-.3244629-1.3608398-1.0444336.1896973-.5439453.5556641-.9572754,1.0959473-1.2404785,1.1728516-.5686035,2.2927246-.8659668,3.3632812-.8925781.8032227-.0200195,1.1577148.105957,1.0628662.3779297-.0638428.1828613-.3945312.369873-.9929199.564209-.9831543.0244141-1.6856689.267334-2.1113281.7263184l2.0943604.0827637c3.748291-.0932617,12.8728027-1.3986816,27.3752441-3.9162598,1.2219238-.2094727,2.2028809-.8635254,2.9396973-1.9604492,2.2399902-3.3793945,3.8503418-5.083252,4.833252-5.107666,1.0708008-.0266113.9735107,1.7744141-.2904053,5.3991699l6.0797119-.6901855c5.2495117-.848877,9.7939453-1.3222656,13.6320801-1.4177246,1.5163574-.0375977,2.4125977.1213379,2.6882324.4724121.2749023.3532715.3492432.7119141.2232666,1.072998-.4643555.8203125-1.0081787,1.2382812-1.6314697,1.2539062-.2678223.0065918-.4277344-.2358398-.4755859-.7294922-.0505371-.4919434-1.4125977-.706543-4.0898438-.6398926-11.4031982.734375-17.3884277,1.9152832-17.9575195,3.5473633-14.1911621,30.5490723-23.3079834,51.6245117-27.3544922,63.2302246-1.4223633,4.0793457-2.2678223,7.5148926-2.5325928,10.3081055-.0115967.5395508.071167.8071289.2510986.8027344.1774902-.0046387.418457-.1242676.7209473-.3552246.3011475-.232666.4968262-.3491211.5869141-.3515625.3557129-.0087891.4571533.2121582.298584.666748-.0310059.0891113-.1408691.2731934-.3234863.5471191-.1848145.2744141-.4575195.5507812-.8203125.8293457-.3623047.2785645-.767334.4233398-1.2126465.4343262Zm27.7980957-78.2045898c.9812012-.0244141,1.6976318-.1767578,2.1503906-.4580078.3034668-.3654785.6469727-1.0942383,1.0262451-2.1821289.1895752-.5441895.3048096-1.1303711.3487549-1.7614746-.8200684.8295898-1.9956055,2.2973633-3.5253906,4.4016113Z"/>
        <path class="cls-2" d="m162.4462687,92.3883981c-.8933105.0222168-1.5968018-.4992676-2.1086426-1.5649414-1.2468262-3.0253906-.8251953-7.5288086,1.2609863-13.512207,1.390625-3.9882812,3.940918-9.3994141,7.6503906-16.2321777,1.4836426-2.7329102,2.3989258-4.5966797,2.7470703-5.595459,1.1062012-3.1721191.9360352-5.0993652-.5046387-5.7841797-1.0610352-.5126953-2.7504883-.7402344-5.0700684-.6826172-.4477539.0112305-.7961426.3798828-1.0487061,1.1044922-3.0981445,8.8857422-8.5101318,18.1872559-16.2318115,27.9042969-1.163208,1.5578613-2.4836426,2.9367676-3.9658203,4.1425781-1.4812012,1.2041016-2.7142334,1.8200684-3.6951904,1.8444824-1.0708008.0266113-1.8170166-.6289062-2.2338867-1.9665527-.9940186-3.7497559-.3829346-8.7971191,1.8299561-15.1437988.979248-2.8088379,1.5610352-4.3525391,1.7458496-4.6269531-.4261475.4614258-1.4230957,1.9226074-2.9897461,4.3881836-7.7210693,10.9765625-12.8745117,16.4970703-15.4616699,16.5612793-.9831543.0246582-1.5700684-.6350098-1.7653809-1.9780273-.1949463-1.3432617-.0400391-2.7392578.4660645-4.1906738,2.1171875-6.0725098,4.9069824-11.5341797,8.3668213-16.3847656.8248291-1.098877,1.5059814-1.6552734,2.041626-1.6687012.6230469-.0153809.8100586.340332.5574951,1.0646973-.0948486.2722168-.2281494.5236816-.3945312.7512207-.1691895.2299805-.2686768.3901367-.2998047.479248-3.9674072,6.3000488-6.5024414,11.0368652-7.6085205,14.2092285-1.3275146,3.8076172-1.3681641,5.6958008-.1171875,5.6647949,2.3195801-.0576172,8.430542-7.3081055,18.3344727-21.7556152,1.2553711-1.8278809,2.0192871-2.7460938,2.2868652-2.7526855.5036621.078125.6762695.3432617.5185547.7956543-1.2213135,1.4692383-2.6352539,4.5141602-4.2473145,9.1376953-1.991333,5.7114258-2.7529297,10.1791992-2.2844238,13.4025879.3487549,1.7880859.9696045,2.6723633,1.8626709,2.6501465,1.2485352-.03125,3.1990967-1.5627441,5.8482666-4.5942383,7.8636475-9.3623047,13.3618164-18.5310059,16.4912109-27.5061035.2258301-.9030762.3015137-1.3764648.2299805-1.4213867-.0742188-.0422363-.4238281-.0566406-1.0471191-.0410156-1.338623.0332031-2.6495361.1120605-3.9294434.2324219l-1.6064453.0400391c-5.802002.1442871-8.5096436-1.2250977-8.1207275-4.1120605.758667-2.1757812,2.1083984-3.8945312,4.0537109-5.1560059,1.9429932-1.2617188,3.7628174-1.9135742,5.4591064-1.9555664.8911133-.0222168,1.7641602.1369629,2.62146.473877,3.541626,1.2600098,4.9556885,4.0559082,4.2415771,8.3874512-.3161621.9072266-.3273926,1.3793945-.029541,1.4162598.2955322.0388184.6665039.0507812,1.1142578.0395508,1.338623-.0332031,2.6574707.1149902,3.9602051.440918,2.3291016.9318848,2.8144531,3.3464355,1.4558105,7.2434082-.6638184,1.9035645-2.0053711,4.8586426-4.019165,8.8620605-2.6118164,5.4572754-4.2640381,9.1845703-4.9588623,11.1774902-1.9595947,5.6201172-2.5395508,9.9482422-1.7404785,12.9848633.2508545.8022461.6879883,1.1960449,1.3134766,1.1806641.8032227-.0200195,2.2972412-1.1357422,4.4846191-3.3469238,4.4719238-4.9643555,10.0119629-12.6049805,16.6192627-22.9262695.4256592-.4592285.7724609-.6931152,1.0402832-.699707.2675781-.0068359.3538818.1259766.2591553.3981934-4.6240234,7.9335938-10.2438965,15.8034668-16.8560791,23.6054688-2.6568604,3.3017578-4.8321533,4.9731445-6.526001,5.0153809Zm-2.7961426-43.7424316l5.2678223-.2658691c1.3496094-4.8864746.1640625-7.9575195-3.5552979-9.2131348-.6523438-.1628418-1.2896729-.2375488-1.913208-.222168-2.4992676.0622559-4.8271484,1.154541-6.9804688,3.2741699-.7321777.8271484-1.2227783,1.6040039-1.4753418,2.3286133-1.012085,2.9025879,1.8730469,4.2670898,8.6564941,4.0983887Z"/>
        <path class="cls-2" d="m205.8359172,101.1503609c-.9831543.0244141-1.3693848-.6401367-1.1628418-1.9931641,1.2072754-8.0300293,3.4221191-16.6662598,6.6462402-25.9133301,5.373291-15.4108887,12.8825684-31.9997559,22.5268555-49.7644043l-3.9743652,4.5473633c-6.4838867,8.7001953-11.1530762,15.2409668-14.008667,19.6257324-7.9359131,11.342041-13.3317871,17.0476074-16.1870117,17.1186523-1.1606445.0288086-1.963501-.7138672-2.4068604-2.2319336-.4606934-2.2338867-.5930176-3.692627-.3996582-4.3713379.190918-.6787109.1594238-1.284668-.0961914-1.8173828-1.1264648,1.1967773-2.1328125,2.4350586-3.0205078,3.7148438-.2485352.4567871-.5246582.8681641-.8286133,1.2338867-1.1311035,1.4667969-3.2570801,4.3945312-6.3808594,8.7861328-2.2988281,3.2924805-4.2502441,4.9587402-5.8566895,4.9987793-1.3383789.0332031-1.6286621-1.0380859-.8699951-3.2138672,3.0692139-6.0078125,6.74646-11.3564453,11.0360107-16.0466309,2.7683105-3.123291,4.9123535-4.7055664,6.4309082-4.7434082.8911133-.0222168,1.2397461.440918,1.0419922,1.3894043-.1984863.9489746-.1638184,1.7355957.1069336,2.3564453.2680664.623291.3337402,1.3862305.1982422,2.2868652-.4431152,1.270752-.3740234,2.9753418.2059326,5.1176758.307251.8916016.7746582,1.3288574,1.3999023,1.3132324,2.7653809-.0686035,8.2913818-6.2724609,16.574707-18.611084.5765381-.6420898,1.4508057-1.8771973,2.6185303-3.704834,7.8192139-11.5180664,13.8994141-19.4418945,18.2426758-23.7751465.4455566-.0109863.5108643.4382324.1953125,1.3432617-.1896973.5439453-.9230957,2.135498-2.1949463,4.7727051-9.5202637,18.9304199-17.0460205,36.3286133-22.5772705,52.1921387-2.5913086,7.432373-4.6870117,14.5849609-6.286377,21.4558105l-.0644531.9450684c.5356445-.0131836.6135254.5244141.234375,1.6123047-.2845459.8156738-.6660156,1.2736816-1.1433105,1.3762207Zm-23.0351562-29.0842285c1.5380859-1.1171875,5.125-5.564209,10.7568359-13.3439941.7348633-1.0966797,1.270874-1.8725586,1.609375-2.3317871.3356934-.4570312.567627-.8671875.6943359-1.2304688.1258545-.3613281.1784668-.7668457.1590576-1.2172852-5.3723145,5.2563477-9.7779541,11.2971191-13.2196045,18.1235352Z"/>
      </g>
      <g>
        <path class="cls-2" d="m214.743632,191.1120309c-.7207031-.0002441-1.3338623-.2861328-1.8411865-.8583984-1.8232422-2.859375-1.9370117-8.6994629-.3449707-17.5144043,1.590332-8.8173828,4.076416-17.8000488,7.4547119-26.9499512,6.4746094-17.5358887,14.9528809-36.3605957,25.4365234-56.4719238,8.8000488-16.7736816,14.0107422-27.3532715,15.6298828-31.7385254l.9970703-3.4311523c-.8618164.3818359-1.7268066,1.1435547-2.5980225,2.2873535-1.0028076.7636719-4.9093018,5.6242676-11.7232666,14.5817871-13.3249512,17.8232422-27.7583008,38.6486816-43.2991943,62.4741211-8.2402344,13.059082-14.3712158,21.8735352-18.3978271,26.4482422-2.2103271,2.5732422-4.0340576,3.8598633-5.4713135,3.8596191-1.9790039-.0002441-2.8024902-1.9084473-2.4744873-5.7192383-.098877-14.105957,5.2415771-36.3620605,16.019043-66.7675781l.762207-2.4306641-.592041.1430664c-19.1158447,28.8781738-35.2032471,58.5681152-48.2618408,89.0671387.7336426-.2856445,1.5198975-.9538574,2.3575439-2.0014648,1.5871582-1.621582,2.7391357-2.4301758,3.460083-2.4299316.2695312,0,.4055176.2368164.4105225.7148438-.0701904.1899414-.1693115.3327637-.293457.4289551-1.9819336,1.715332-3.6296387,3.6208496-4.9436035,5.7182617l-1.3081055,1.7155762c-.6917725,1.1437988-1.6239014,1.715332-2.7913818,1.715332-1.6014404-.2861328-1.7528076-2.1940918-.4512939-5.7192383,1.9002686-5.1467285,4.0910645-10.1035156,6.5688477-14.8684082,11.1610107-22.682373,23.7297363-45.0341797,37.704834-67.0505371,5.5009766-9.0534668,9.1053467-13.5812988,10.8145752-13.5810547,2.0673828.0002441,1.588623,4.0993652-1.4376221,12.2956543-3.2727051,8.8640137-6.2756348,17.7282715-9.0087891,26.5922852-3.1025391,10.1040039-5.2502441,20.0651855-6.4464111,29.8813477-.2866211,2.4770508-.3283691,4.9074707-.1295166,7.2915039.1757812,1.7158203.5334473,2.5734863,1.072998,2.5734863,2.0673828.0002441,10.9194336-11.6730957,26.5551758-35.0253906,19.1335449-28.6860352,35.0999756-51.2272949,47.8969727-67.6208496,3.3607178-4.4785156,5.6274414-6.7189941,6.7971191-6.71875,1.527832.0002441,1.307373,2.6699219-.6630859,8.0065918-4.2755127,9.6279297-8.2631836,17.8706055-11.9645996,24.7331543-13.3134766,25.829834-22.732666,46.2272949-28.2570801,61.1896973-1.0211182,2.7653809-1.9798584,5.4819336-2.8740234,8.1491699-3.3748779,9.6259766-5.4019775,19.0151367-6.0827637,28.1655273-.1811523,2.1914062.0241699,4.1933594.6156006,6.0048828.2409668,1.0480957.7215576,1.572998,1.4425049,1.572998.9882812.0002441,2.2762451-.8105469,3.864624-2.4299316l.6976318-.4289551c.1791992.0002441.3200684.0471191.4194336.1430664.1003418.0939941.1323242.1899414.0968018.2861328l-.293335.4287109c-2.069458,2.1914062-3.7766113,3.2878418-5.1254883,3.2878418Z"/>
        <path class="cls-2" d="m237.5922648,154.7992867c-.7207031,0-1.3157959-.3354492-1.7886963-1.0012207-.7684326-1.8117676-.4688721-4.5751953.9035645-8.2924805,1.2314453-3.3352051,3.0583496-6.576416,5.4779053-9.7214355.3190918-.3796387.5334473-.7148438.638916-1.0004883.1403809-.380127.1466064-.762207.0178223-1.144043-.3111572-.8579102-.3460693-1.619873-.0994873-2.2875977.2457275-.6657715.7945557-1.3583984,1.6422119-2.0732422.8476562-.7145996,1.9003906-1.0720215,3.1606445-1.0717773,2.6975098.0004883,3.6386719,1.9555664,2.8262939,5.8625488-.2635498.9538574-.2816162,1.550293-.0528564,1.7871094.2255859.2390137,1.3283691.357666,3.307373.3579102,5.3950195.0007324,9.9484863-.5212402,13.6638184-1.5708008.4489746,0,.65625.0493164.621582.1433105-.0708008.1918945-.4743652.4287109-1.208252.7145996-3.6947021,1.2392578-8.1949463,1.8574219-13.4993896,1.8566895l-2.2929688-.0002441c-.630127,0-1.0378418.0712891-1.225708.2141113-.1875.1428223-.4050293.5498047-.6507568,1.215332-1.5688477,4.0031738-3.5959473,7.9123535-6.0819092,11.7231445-1.9555664,2.859375-3.7416992,4.2888184-5.3601074,4.2885742Zm1.2431641-3.0024414c.2697754,0,.6624756-.3327637,1.1789551-1.0007324,3.4547119-4.0024414,6.145752-8.2424316,8.0697021-12.7236328.2111816-.5720215.1087646-.9047852-.3048096-1.0009766l-2.7033691-.7150879c-.7207031,0-1.4077148.5249023-2.064209,1.5722656-1.5456543,2.4794922-2.8098145,5.0532227-3.7946777,7.720459-.6334229,1.7155762-.9527588,3.4311523-.9560547,5.1467285.0230713.6682129.2141113,1.0009766.5744629,1.0009766Zm10.1755371-15.8691406c1.4539795-4.6687012.8771973-7.0053711-1.7297363-7.0056152-.3603516,0-.8234863.0959473-1.3867188.2856445-.5664062.1921387-1.0405273.5002441-1.4223633.9291992-.3815918.4289551-.6455078.8354492-.7857666,1.2150879-.3875732,1.0498047-.1466064,1.8588867.7213135,2.4306641,1.1251221,1.3361816,2.4072266,2.0019531,3.8466797,2.0021973l.7565918.1428223Z"/>
        <path class="cls-2" d="m282.609965,167.6733102h-.809082c-1.4394531-.0002441-2.3131104-1.2873535-2.6210938-3.8605957-.6092529-6.387207.8978271-14.4875488,4.5227051-24.3056641,2.0058594-5.4326172,4.4777832-10.9123535,7.4190674-16.440918l1.1142578-2.2875977c-.7861328.6679688-1.7940674,1.8115234-3.0202637,3.4311523-9.3249512,12.1044922-16.1394043,20.2062988-20.4381104,24.3027344-2.5535889,2.2873535-4.4595947,3.4311523-5.7178955,3.4309082-1.0788574-.0002441-1.612793-.809082-1.5977783-2.4309082.0142822-1.6196289.3374023-3.2883301.9708252-5.0039062,3.8789062-9.5297852,9.2902832-18.3466797,16.239502-26.4482422,4.4718018-5.0505371,8.0578613-7.5766602,10.7553711-7.576416,3.4162598.0004883,3.822998,3.5280762,1.2191162,10.5805664l5.4190674-7.005127c.9411621-1.3334961,2.0235596-3.0490723,3.2490234-5.1464844,6.5683594-10.4833984,12.0375977-17.8703613,16.4093018-22.1591797l1.1026611-.4287109c.4487305,0,.5333252.3818359.2520752,1.1437988-.4981689.8579102-.9732666,1.597168-1.4251709,2.2160645-.454834.6210938-.876709,1.2150879-1.2667236,1.7871094-1.5306396,2.1933594-3.1490479,4.3847656-4.8560791,6.5759277-10.9993896,14.2023926-19.3413086,28.878418-25.0250244,44.0332031-2.3225098,6.2905273-3.6483154,12.4384766-3.9771729,18.4433594-.0788574,1.4296875.0267334,2.7878418.3167725,4.074707.2875977,1.2868652.9267578,1.9304199,1.9172363,1.9304199.4489746.0002441.6217041.1433105.5162354.4291992-.1402588.3798828-.3635254.6186523-.6688232.7145996Zm-17.703125-17.4455566c.2138672-.0935059.6334229-.3796387,1.2611084-.857666,1.0352783-.857666,1.6066895-1.4291992,1.7122803-1.715332,4.1046143-3.810791,10.3574219-11.0078125,18.7608643-21.5866699,1.6540527-2.2875977,2.8148193-4.3356934,3.4836426-6.1474609,1.1259766-3.0493164,1.4135742-5.2900391.8626709-6.7199707-.348877-.7619629-.9266357-1.144043-1.7359619-1.1442871-1.8881836-.0002441-4.9091797,2.3364258-9.0605469,7.0048828-2.6567383,3.0512695-5.2895508,6.5290527-7.8999023,10.4360352-3.4804688,5.5288086-5.9938965,10.3894043-7.5419922,14.5825195-1.5135498,4.0991211-1.6417236,6.1477051-.3814697,6.1477051l.5393066.0002441Z"/>
        <path class="cls-2" d="m331.023173,166.9653023c-3.9577637-.0004883-4.1398926-4.8618164-.550415-14.5834961,7.2518311-16.9641113,11.1434326-26.1630859,11.6712646-27.5927734,2.1115723-5.71875,1.8537598-9.5300293-.7675781-11.4379883-2.3508301-1.4304199-4.0637207-2.1455078-5.1428223-2.145752-.2697754,0-1.114624,1.1928711-2.5334473,3.5742188-4.9438477,9.2458496-10.9020996,18.4423828-17.8757324,27.5917969-1.2634277,1.7155762-2.6274414,3.3371582-4.0876465,4.8605957-3.711792,3.7167969-6.8258057,5.5751953-9.3421631,5.5749512-1.0788574-.0002441-2.0987549-.2866211-3.0550537-.8583984-3.8168945-2.5742188-4.2451172-7.8642578-1.2891846-15.8703613,2.4627686-6.6704102,5.8736572-11.7702637,10.2337646-15.2973633,1.7299805-1.5231934,3.2723389-2.2868652,4.6212158-2.2868652.3581543.0002441.8358154.1677246,1.4337158.5004883.5949707.3354492.5065918,1.5505371-.2669678,3.6459961-.4932861,1.3359375-1.1939697,2.6225586-2.0996094,3.8603516-3.6448975,5.2426758-7.4918213,8.7202148-11.5413818,10.4353027-.4511719,0-.7800293.2861328-.9912109.8579102-.5251465,1.9077148-.8266602,4.0029297-.90625,6.2907715-.0817871,2.2875977.3375244,4.0749512,1.2574463,5.3615723.9180908,1.2868652,2.0062256,1.9304199,3.2664795,1.9306641,1.6184082.0002441,3.4804688-.9040527,5.588623-2.7158203,2.677124-2.3811035,5.038208-5.003418,7.0845947-7.8623047,6.2987061-8.291748,12.6644287-18.1071777,19.1011963-29.4506836.1756592-.4758301-.0617676-.8088379-.7093506-1.0007324-7.0689697-2.2888184-9.8817139-5.385498-8.4383545-9.2946777.3514404-.9516602.9443359-1.9526367,1.7832031-3.0024414,3.0644531-3.4309082,6.5332031-5.7648926,10.4091797-7.0041504.7888184-.1899414,1.4986572-.2856445,2.1287842-.2856445,3.1464844.0004883,3.664917,2.8601074,1.5535889,8.5786133-.9351807,2.2875977-2.4923096,5.5290527-4.6682129,9.7216797-.2822266.763916.0263672,1.1437988.9262695,1.144043l2.5449219,1.1442871c4.3657227,1.8125,5.6293945,5.5769043,3.7877197,11.2954102l-1.2611084,4.1459961c-5.510498,12.4875488-8.8267822,20.2546387-9.9526367,23.3039551-3.6595459,9.9116211-3.9619141,14.8686523-.9040527,14.8691406,3.3256836.0004883,10.3632812-8.1013184,21.1125488-24.3029785,2.3955078-3.810791,3.7741699-5.7182617,4.1345215-5.7182617.3583984.0002441.4686279.1923828.3283691.5720215-.1054688.2858887-.3986816.7148438-.8795166,1.2866211-12.6407471,20.1086426-21.2093506,30.1650391-25.7047119,30.1643066Zm-30.5566406-32.3168945c.7532959-.0935059,1.5512695-.4284668,2.3925781-1.0002441,3.3806152-2.0952148,6.4396973-5.1464844,9.1782227-9.1494141.5507812-.7617188.967041-1.5236816,1.2490234-2.2875977.7390137-2.0014648.6575928-3.0024414-.2403564-3.0024414-.2697754,0-.9610596.2858887-2.0701904.8579102-1.111084.5715332-2.7653809,2.1933594-4.9641113,4.8603516-2.199707,2.6691895-4.0495605,5.9104004-5.545166,9.7214355Zm35.3742676-25.3015137c1.7540283-3.0493164,3.1787109-6.0517578,4.2697754-9.0070801,2.1816406-5.9086914,2.0587158-8.8642578-.3690186-8.864502-.4509277,0-1.0258789.0959473-1.723999.2854004-3.9645996,1.239502-7.3631592,3.6228027-10.1923828,7.1474609-.5166016.6682129-.8979492,1.3359375-1.1436768,2.001709-.9854736,2.6694336.894165,5.0041504,5.6409912,7.0063477l3.5183105,1.4306641Z"/>
        <path class="cls-2" d="m378.4941203,146.5263375c-1.0791016-.0002441-1.8583984-.5720215-2.3337402-1.7160645-.8967285-1.7160645-1.0319824-6.098877-.4040527-13.1538086.5458984-5.6230469.1912842-8.4355469-1.0667725-8.435791-.5395508,0-1.2838135.4289551-2.2283936,1.2866211-3.3604736,2.7651367-7.2841797,7.6726074-11.7763672,14.7248535-2.0761719,3.4311523-3.8791504,5.1467285-5.4072266,5.1464844-.9558105-.0939941-1.3725586-.6660156-1.2546387-1.7160645-.0587158-.5717773.2989502-1.9055176,1.0734863-4.0031738,2.3571777-6.3842773,4.3457031-9.5788574,5.9643555-9.5786133.8977051.0002441.9963379.9541016.2928467,2.8596191l-1.9061279,4.4321289-.6861572,1.8583984,6.1168213-7.4335938c4.8239746-6.0046387,8.31604-9.0063477,10.473999-9.0061035,1.7070312.0002441,2.4776611,1.8120117,2.3103027,5.4333496l-.4637451,9.2932129c-.5686035,5.4331055.3166504,8.1496582,2.6560059,8.1499023,1.9768066.0002441,5.239502-2.3803711,9.7877197-7.1474609.3902588-.5715332.774292-1.0004883,1.1495361-1.286377.8001709-.9516602,1.3369141-1.4294434,1.6066895-1.4294434.1791992.0002441.217041.1430664.1115723.4289551l-.3459473.5717773c-6.4158936,7.1477051-10.9726562,10.7216797-13.670166,10.7211914Z"/>
      </g>
    </g>
  </g>
</svg>