<?xml version="1.0" encoding="UTF-8"?>
<svg id="_レイヤー_2" data-name="レイヤー 2" xmlns="http://www.w3.org/2000/svg" xmlns:xlink="http://www.w3.org/1999/xlink" viewBox="0 0 630.7182617 75.9742279">
  <defs>
    <style>
      .cls-1 {
        fill: url(#_名称未設定グラデーション_46);
      }

      .cls-1, .cls-2, .cls-3, .cls-4, .cls-5, .cls-6 {
        stroke-width: 0px;
      }

      .cls-2 {
        fill: url(#_名称未設定グラデーション_46-2);
      }

      .cls-3 {
        fill: url(#_名称未設定グラデーション_46-5);
      }

      .cls-5 {
        fill: url(#_名称未設定グラデーション_46-3);
      }

      .cls-6 {
        fill: url(#_名称未設定グラデーション_46-4);
      }
    </style>
    <linearGradient id="_名称未設定グラデーション_46" data-name="名称未設定グラデーション 46" x1="22.1087526" y1="59.6155243" x2="53.9850954" y2="59.6155243" gradientUnits="userSpaceOnUse">
      <stop offset="0" stop-color="#775800"/>
      <stop offset=".2436779" stop-color="#705200"/>
      <stop offset=".5876644" stop-color="#5d4400"/>
      <stop offset=".9896783" stop-color="#3f2d00"/>
      <stop offset="1" stop-color="#3f2d00"/>
    </linearGradient>
    <linearGradient id="_名称未設定グラデーション_46-2" data-name="名称未設定グラデーション 46" x1="63.5274538" y1="58.9006195" x2="98.6419558" y2="58.9006195" xlink:href="#_名称未設定グラデーション_46"/>
    <linearGradient id="_名称未設定グラデーション_46-3" data-name="名称未設定グラデーション 46" x1="217.8631472" y1="59.2790985" x2="252.6832155" y2="59.2790985" xlink:href="#_名称未設定グラデーション_46"/>
    <linearGradient id="_名称未設定グラデーション_46-4" data-name="名称未設定グラデーション 46" x1="259.9968142" x2="291.8731569" xlink:href="#_名称未設定グラデーション_46"/>
    <linearGradient id="_名称未設定グラデーション_46-5" data-name="名称未設定グラデーション 46" x1="301.4156374" y1="58.9006195" x2="336.5300173" y2="58.9006195" xlink:href="#_名称未設定グラデーション_46"/>
  </defs>
  <g id="_レイヤー_3" data-name="レイヤー 3">
    <g>
      <path class="cls-4" d="m8.0180664,21.3363342h3.7419434l.6635742-.7373047c.6450195.4976807.9584961.8110352.9584961.9769287,0,.0921631-.0554199.1658936-.1660156.2580566l-.3686523.2580566v5.1795654h-.9216309v-.866333h-3.7233887l.1105957.0921631c1.8063965,1.5114746,4.092041,2.7833252,6.9123535,3.6680908-.3686523.3133545-.6452637.626709-.8110352.9769287-2.7097168-1.1243896-4.8293457-2.5437012-6.3962402-4.2947998v5.2532959h-.9953613v-4.6818848c-1.7141113,1.7510986-3.9814453,3.1151123-6.7646484,4.1289062l-.2580566-.3502197c2.8754883-1.2165527,5.0688477-2.8201904,6.598877-4.7924805h-3.373291v.9400635h-.9399414v-6.4882812c.3500977.0921631.7556152.2580566,1.1796875.479248h3.557373v-1.7510986H.6818848l-.239502-.4055176h6.5803223v-1.9907227c1.1428223.0368652,1.6958008.2027588,1.6958008.4423828,0,.1474609-.2211914.2949219-.7004395.4608154v1.0875244h4.7004395l.8847656-1.1243896c.4606934.4239502.8662109.8294678,1.197998,1.2165527l-.1843262.3133545h-6.598877v1.7510986Zm-.9953613.4055176h-3.7971191v1.8432617h3.7971191v-1.8432617Zm0,2.2672119h-3.7971191v1.9907227h3.7971191v-1.9907227Zm.9953613-2.2672119v1.8432617h3.9077148v-1.8432617h-3.9077148Zm0,2.2672119v1.9907227h3.9077148v-1.9907227h-3.9077148Z"/>
      <path class="cls-4" d="m28.6817627,21.8708801c.239624,2.9307861.866333,5.2717285,1.9538574,6.9859619.5714111.8847656.9584961,1.3271484,1.1796875,1.3271484.2764893,0,.5345459-1.0506592.7741699-3.1888428l.4423828.2027588c-.1105957,1.1796875-.1474609,2.0275879-.1474609,2.5621338,0,.8479004.1843262,1.3455811.5345459,1.4746094-.1105957.5161133-.3317871.7557373-.7004395.7557373-.6451416,0-1.4377441-.5529785-2.3040771-1.6773682-1.4377441-1.8248291-2.3409424-4.6265869-2.7280273-8.3499756h-8.8292236l-.1843262-.4239502h8.9766846c-.0737305-.9031982-.1474609-2.359375-.1658936-4.3685303,1.105957.0552979,1.6405029.2027588,1.6405029.4239502,0,.1290283-.2027588.2580566-.626709.4055176.0184326,1.5852051.0737305,2.74646.1290283,3.465332h2.838623l.7741699-1.0506592.4239502.4423828c.2211914.2027588.4239502.4423828.6082764.7004395l-.1658936.3133545h-4.4238281Zm-4.1473389,7.6311035c1.1243896-.2027588,2.359375-.479248,3.7049561-.7926025v.5161133l-.8479004.2580566c-2.6911621.7741699-5.1427002,1.3640137-7.4099121,1.7879639-.0737305.4239502-.1658936.6451416-.3133545.6451416-.2027588,0-.4976807-.5161133-.8110352-1.5667725,1.2165527-.1474609,1.8248291-.2211914,1.8432617-.2211914v-6.0643311c1.0690918.0921631,1.6036377.239624,1.6036377.4423828,0,.1290283-.2211914.2580566-.6635742.4055176v5.0874023c.9031982-.1474609,1.5483398-.239624,1.97229-.3317871v-7.078125c1.0137939.0921631,1.5299072.239624,1.5299072.4423828,0,.1474609-.1843262.2764893-.6082764.4055176v2.2303467h1.4193115l.7741699-1.1428223c.3502197.387085.626709.7373047.8294678,1.0690918l.1105957.1843262-.1658936.2949219h-2.9676514v3.4284668Zm.1474609-10.4881592l.7926025-1.0506592c.387085.387085.7188721.7557373,1.0322266,1.1796875l-.2027588.2764893h-6.0274658l-.1658936-.4055176h4.5712891Zm4.9768066-1.0690918c1.4377441.4976807,2.119751,1.105957,2.119751,1.8248291,0,.4239502-.1843262.6082764-.5714111.6082764-.2764893,0-.4423828-.1474609-.5345459-.4239502-.2027588-.7004395-.5898438-1.2718506-1.2165527-1.732666l.2027588-.2764893Z"/>
      <path class="cls-4" d="m44.8846436,21.3363342h3.7418213l.6635742-.7373047c.6451416.4976807.9584961.8110352.9584961.9769287,0,.0921631-.0552979.1658936-.1658936.2580566l-.3686523.2580566v5.1795654h-.9216309v-.866333h-3.7233887l.1105957.0921631c1.8063965,1.5114746,4.092041,2.7833252,6.9122314,3.6680908-.3686523.3133545-.6451416.626709-.8110352.9769287-2.7095947-1.1243896-4.8293457-2.5437012-6.3961182-4.2947998v5.2532959h-.9953613v-4.6818848c-1.7142334,1.7510986-3.9814453,3.1151123-6.7647705,4.1289062l-.2580566-.3502197c2.8754883-1.2165527,5.0689697-2.8201904,6.598877-4.7924805h-3.3731689v.9400635h-.9400635v-6.4882812c.3502197.0921631.7557373.2580566,1.1796875.479248h3.5574951v-1.7510986h-6.3408203l-.239624-.4055176h6.5804443v-1.9907227c1.1428223.0368652,1.6958008.2027588,1.6958008.4423828,0,.1474609-.2211914.2949219-.7004395.4608154v1.0875244h4.7003174l.8847656-1.1243896c.4608154.4239502.866333.8294678,1.1981201,1.2165527l-.1843262.3133545h-6.598877v1.7510986Zm-.9953613.4055176h-3.7971191v1.8432617h3.7971191v-1.8432617Zm0,2.2672119h-3.7971191v1.9907227h3.7971191v-1.9907227Zm.9953613-2.2672119v1.8432617h3.9077148v-1.8432617h-3.9077148Zm0,2.2672119v1.9907227h3.9077148v-1.9907227h-3.9077148Z"/>
      <path class="cls-4" d="m62.9676514,23.898468v6.4329834h4.9030762l1.0506592-1.3271484c.3686523.387085.7741699.866333,1.2349854,1.4561768l-.1843262.2949219h-14.1193848l-.1658936-.4239502h6.2302246v-12.3314209c1.3087158.0552979,1.9538574.2027588,1.9538574.4608154,0,.1658936-.2949219.3502197-.9031982.5345459v4.4975586h3.9445801l.8847656-1.2165527c.3686523.3686523.7926025.8110352,1.2165527,1.3271484l-.1843262.2949219h-5.8615723Z"/>
      <path class="cls-4" d="m73.6960449,30.7922668c.479248-1.2718506.7557373-2.7833252.866333-4.5897217.9769287.1843262,1.4561768.387085,1.4561768.5898438,0,.1105957-.1658936.2211914-.5161133.2949219-.3133545,1.6220703-.7926025,2.9123535-1.4561768,3.8892822l-.3502197-.1843262Zm4.8846436-11.6678467c.8294678.3686523,1.2349854.6635742,1.2349854.9216309,0,.1474609-.2211914.2027588-.6820068.2027588-.8294678,1.2902832-1.8616943,2.5621338-3.1335449,3.8708496,1.105957-.0921631,1.9538574-.1474609,2.598999-.2211914-.1290283-.3317871-.3686523-.7188721-.7557373-1.2165527l.2580566-.2764893c1.1796875.8847656,1.7879639,1.7142334,1.7879639,2.5068359,0,.4239502-.1843262.626709-.5529785.626709-.239624,0-.387085-.1843262-.4239502-.6082764-.0184326-.1843262-.0737305-.387085-.1474609-.5898438-.4239502.0921631-.8847656.1843262-1.4008789.2949219v7.46521h-.9216309v-7.2993164c-.4423828.0737305-1.0322266.1658936-1.7879639.239624-.1105957.3686523-.2211914.5529785-.3317871.5529785-.1658936,0-.3686523-.479248-.5714111-1.4008789.5714111-.0184326,1.1243896-.0368652,1.6405029-.0552979,1.2902832-1.6773682,2.359375-3.3547363,3.1888428-5.0136719Zm-1.8616943-2.119751c.8847656.3317871,1.3271484.6082764,1.3271484.8110352,0,.1290283-.2027588.2211914-.6082764.239624-.4976807.7926025-1.0506592,1.5667725-1.6773682,2.3225098.5714111.4976807.866333.9769287.866333,1.3640137s-.1843262.5898438-.5345459.5898438c-.239624,0-.4055176-.1843262-.5345459-.5714111-.2580566-.7188721-.7741699-1.3824463-1.5114746-2.0091553l.2027588-.2949219c.4055176.1843262.7926025.4055176,1.1612549.6451416.4423828-.7557373.866333-1.8063965,1.3087158-3.0966797Zm1.4008789,8.9951172c1.0137939,1.0506592,1.5299072,2.0460205,1.5299072,2.986084,0,.4608154-.1843262.6820068-.5529785.6820068-.2949219,0-.4239502-.2211914-.4608154-.6820068-.0368652-.9216309-.3133545-1.8432617-.8110352-2.8017578l.2949219-.1843262Zm3.7971191-.0552979l.5898438-.7373047c.6451416.5898438.9769287.9584961.9769287,1.0875244,0,.0921631-.0737305.1474609-.1658936.2027588l-.387085.1843262c-.6820068,2.119751-1.9169922,3.6680908-3.7233887,4.7003174l-.2580566-.3317871c1.4746094-1.1428223,2.4699707-2.7095947,3.0598145-4.7003174h-2.3409424l-.1474609-.4055176h2.3962402Zm1.9538574-1.9169922h-2.1566162v.7557373h-.9400635v-5.8984375c.387085.1658936.7373047.3317871,1.0506592.4976807h1.3824463c.2027588-.6451416.3317871-1.3640137.4239502-2.1566162,1.0690918.1474609,1.6036377.3317871,1.6036377.5529785,0,.1105957-.2211914.239624-.6635742.3317871-.3317871.5714111-.6082764.9953613-.8294678,1.2718506h2.74646l.6082764-.7557373c.6635742.5161133.9953613.866333.9953613,1.0137939,0,.0737305-.0368652.1658936-.1658936.2211914l-.387085.239624v4.6634521h-.9216309v-.7373047h-1.8063965c.239624,1.1612549.6820068,2.2303467,1.3087158,3.225708.5529785-.626709,1.105957-1.4193115,1.6405029-2.3962402.7188721.4976807,1.0690918.8294678,1.0690918,1.0506592,0,.1290283-.1105957.2027588-.3502197.2027588-.0737305,0-.1658936-.0184326-.2764893-.0552979-.4239502.4608154-1.0322266.9769287-1.8248291,1.5667725.7373047,1.0506592,1.6773682,1.9354248,2.838623,2.6911621-.3502197.239624-.6635742.5529785-.8847656.9216309-1.8063965-1.5114746-2.986084-3.4468994-3.5390625-5.8431396v5.345459c0,.8479004-.5161133,1.253418-1.5483398,1.2349854-.0184326-.3317871-.1843262-.5714111-.4976807-.6820068-.1474609-.0552979-.5714111-.1474609-1.1981201-.2949219v-.4239502c.6820068.0921631,1.2718506.1290283,1.7879639.1290283.3502197,0,.5345459-.1658936.5345459-.479248v-6.1933594Zm2.74646-2.598999v-1.6220703h-4.9030762v1.6220703h4.9030762Zm0,2.1934814v-1.7695312h-4.9030762v1.7695312h4.9030762Z"/>
    </g>
    <g>
      <path class="cls-4" d="m12.9869265,41.995224v1.6400757h-7.6536865v25.6104126h-1.6821289v-27.2504883h9.3358154Z"/>
      <path class="cls-1" d="m22.1087526,75.3013763c3.1539917-4.1212158,4.7520142-10.387146,4.7520142-18.7136841v-12.65802c2.6072998,0,3.8688965.3364258,3.8688965.9251709,0,.2943726-.4625854.6728516-1.513916,1.0933838v10.5133057c0,9.0414429-2.1026611,15.5596924-6.3500366,19.5126953l-.756958-.6728516Zm16.1064453-3.9950562v-25.3580933c2.5231934.1261597,3.784668.4625854,3.784668,1.0092773,0,.3364258-.5466309.7149048-1.5559082,1.0933838v23.2554321h-2.2287598Zm11.7749023,3.6586304v-31.7081299c2.6914062.1261597,3.9949951.5046387,3.9949951,1.0933838,0,.378479-.5467529.7149048-1.6821289,1.0933838v29.5213623h-2.3128662Z"/>
      <path class="cls-2" d="m73.5362429,70.2549896c2.8596191,1.6821289,7.8638916,2.5652466,15.0129395,2.5652466,2.4812012,0,5.845459-.1261597,10.0927734-.4205322-.5887451.7149048-1.0512695,1.5559692-1.3876953,2.5231934h-8.873291c-7.4013672,0-12.657959-1.0092773-15.8120117-3.0698853-1.9765625-1.3457031-3.40625-3.3642578-4.331543-6.1818237-.6307373,3.9109497-1.892334,7.3172607-3.8688965,10.2189331l-.8410645-.5046387c1.9765625-4.1212158,2.9858398-9.630188,3.027832-16.5689697,2.3129883.2523193,3.4904785.6307983,3.4904785,1.1774902,0,.2523193-.5046387.5466919-1.4298096.7990112-.0421143,1.1774902-.0841064,2.0606079-.1260986,2.649353.588623,2.0606079,1.5979004,3.7427368,2.9857178,5.1304932v-12.3636475h-6.6864014l-.3364258-.9251709h7.0228271v-5.6771851h-5.5089111l-.4206543-.9672241h5.9295654v-6.3920898c2.3970947.0420532,3.574585.2943726,3.574585.8410645,0,.2943726-.5046387.6307983-1.513916,1.0513306v4.4996948h2.270752l1.5981445-2.3549805c.7568359.7990112,1.4718018,1.6400757,2.1025391,2.5652466l-.4625244.756958h-5.5089111v5.6771851h3.027832l1.5979004-2.4390869c.925293.9251709,1.5981445,1.7662354,2.1447754,2.6072998l-.4205322.756958h-6.3499756v5.7192383h2.0605469l1.6821289-2.3129272c.7148438.756958,1.4298096,1.5980225,2.1447754,2.4811401l-.4206543.756958h-5.4667969v7.4013672Zm20.2275391-17.9987793c1.9765625.7990112,2.9437256,1.4298096,2.9437256,1.892395,0,.3364258-.4625244.5046387-1.4718018.5887451-.7570801,2.2288208-1.8924561,4.5838013-3.3642578,7.0228882.6307373,1.6400757,1.4718018,3.1119385,2.4389648,4.4576416.2944336.4205322.5046387.6728516.6728516.6728516.4626465,0,1.0092773-1.7241821,1.6821289-5.1725464l.9672852.5887451c-.4205322,2.6072998-.6308594,4.3314819-.6308594,5.0884399s.2103271,1.3036499.7149658,1.6821289c-.2943115.8831177-.756958,1.3036499-1.4718018,1.3036499-1.7663574,0-3.6166992-2.1867676-5.5931396-6.4761963-1.9764404,2.8596191-4.541748,5.2987061-7.5274658,7.2331543l-.5467529-.7149048c2.6914062-2.3129272,5.088501-5.1725464,7.19104-8.494751-1.3876953-3.5745239-2.2287598-7.4434204-2.6071777-11.6907959h-4.2053223v13.8355103l.1682129-.0841064c1.6821289-.756958,3.1960449-1.513916,4.541748-2.3129272l.2943115.8410645c-2.8175049,2.1026611-5.5510254,3.7427368-8.2003174,4.9622803-.0842285,1.0513306-.2524414,1.513916-.5467529,1.513916-.4625244,0-1.0933838-.9251709-1.8503418-2.8596191,2.0606689-.7149048,3.1960449-1.0933838,3.4903564-1.2195435v-16.6951294c.4206543.1261597,1.2617188.5046387,2.5653076,1.0513306h3.6585693c-.1682129-1.9344482-.2521973-4.4155884-.2943115-7.359314,2.270874.0841064,3.4063721.378479,3.4063721.8831177,0,.3364258-.37854.6728516-1.2617188,1.0092773.0421143,2.649353.1262207,4.4155884.1682129,5.3828125h5.6772461l1.3457031-2.0185547c.7148438.6728516,1.3037109,1.3877563,1.892334,2.1447144l-.4204102.7990112h-8.4106445c.2943115,3.7427368.9250488,6.9387817,1.8082275,9.5460815,1.0933838-2.1447144,2.0185547-4.5838013,2.7755127-7.4013672Zm-2.5651855-9.2937622c2.3549805,1.1774902,3.5324707,2.4811401,3.5324707,3.8268433,0,.8831177-.4206543,1.3036499-1.2617188,1.3036499-.6307373,0-1.0092773-.4625854-1.0932617-1.3457031-.1682129-1.2195435-.7570801-2.270874-1.7242432-3.1960449l.5467529-.5887451Z"/>
      <path class="cls-4" d="m107.595569,75.7219086v-1.6400757h7.6538086v-25.6104126h1.6821289v27.2504883h-9.3359375Z"/>
    </g>
    <path class="cls-4" d="m133.2928467,67.787384c.1160889.899231.1740723,1.5953979.1740723,2.088501,0,1.392334-.1740723,2.4655762-.5511475,3.2197876-.2609863.493103-.5800781.7541504-.9282227.7541504-.5220947,0-.7832031-.2320557-.7832031-.7251587,0-.1450195.0870361-.3770752.2901611-.7251587.7832031-1.2183228,1.189209-2.6976929,1.189209-4.3510742,0-.1160278,0-.203064-.0289307-.3190308l.6380615.0579834Zm4.9602051-3.0167236h1.6534424l1.0441895-1.2473145c.9572754.8121948,1.4504395,1.3052979,1.4504395,1.5373535,0,.0580444-.0581055.1160889-.1451416.2320557l-.6380615.4641113c-.0290527,4.6411133-.4351807,7.454834-1.1893311,8.4120483-.4641113.6091309-1.2182617.899231-2.2625732.899231-.0289307-.5221558-.3189697-.8411865-.8701172-1.0442505-.2611084-.0870361-.9282227-.203064-1.9725342-.3480835v-.6671753c1.0443115.0870361,1.9725342.1450195,2.8137207.1450195s1.3052979-.3190308,1.4503174-.9862061c.3770752-1.4793701.5511475-3.7418823.5802002-6.758606h-5.8594971v1.1312256h-1.4793701v-13.8942871c.4931641.1740112,1.0443115.4350586,1.7114258.7831421h5.5404053l1.1602783-1.4503174c.6671143.6091309,1.1602783,1.1312866,1.4503174,1.5663452l-.2611084.5221558h-4.177002v2.9296875h1.1602783l1.0732422-1.392334c.4641113.4641113.899292.9862671,1.3634033,1.5953979l-.2611084.4641113h-3.3358154v3.1327515h1.1602783l1.1022949-1.4213257c.4931641.5510864.9572754,1.1022339,1.392334,1.6243896l-.3190918.4350586h-3.3358154v3.3358154Zm-3.6547852,2.8717041c.6671143,1.392334.9862061,2.6105957.9862061,3.5678711,0,.8701782-.2611084,1.3052979-.8122559,1.3052979-.3770752,0-.5511475-.1740723-.5511475-.5801392,0,0,0-.0870361.0290527-.1740723,0-.1160278.0290527-.203064.0290527-.2900391.0289307-.4351196.0579834-.8702393.0579834-1.2763062,0-.7252197-.0870361-1.5083618-.2900391-2.3786011l.5511475-.1740112Zm-.2901611-10.6455688h2.5236816v-2.9296875h-2.5236816v2.9296875Zm2.5236816.6671753h-2.5236816v3.1327515h2.5236816v-3.1327515Zm0,7.1066895v-3.3358154h-2.5236816v3.3358154h2.5236816Zm-.7252197,2.4365845c1.0441895,1.3633423,1.5373535,2.581604,1.5373535,3.6548462,0,.5802002-.2320557.8702393-.7250977.8702393-.2321777,0-.4351807-.1160278-.4931641-.3190918,0-.0289917-.0290527-.3480835-.0579834-.9862061-.0290527-1.0152588-.2901611-2.0305176-.8122559-2.9877319l.5511475-.2320557Zm1.4503174-.5511475c1.2473145,1.0442505,1.885498,2.088501,1.885498,3.0747681,0,.5511475-.2030029.8121948-.6381836.8121948-.3190918,0-.5220947-.2901001-.5511475-.8121948-.0870361-.9572754-.4641113-1.885498-1.1022949-2.784668l.4061279-.2901001Zm14.50354-12.8210449l1.0152588-1.2763062c1.0152588.8701782,1.5083008,1.392334,1.5083008,1.6243896,0,.1160278-.0870361.2320557-.2320557.3480835l-.6381836.4060669v8.7601318h-1.479248v-1.6243896h-3.0168457c.0290527.3190918.0870361.6091309.1451416.9572144.6380615,4.1189575,2.6685791,7.4838257,6.0334473,10.0654297-.5802002.4060669-1.0733643.899231-1.4793701,1.5373535-3.1328125-3.1037598-4.9602051-7.2807617-5.4822998-12.5599976h-2.8717041c-.0290527,6.0334473-1.3052979,10.3844604-3.8289795,13.0531006l-.5511475-.4350586c1.9145508-2.8427124,2.8427734-7.0777588,2.8427734-12.7921143v-8.9631348c.8121338.3770752,1.392334.696167,1.7694092.899231h6.2655029Zm-6.4975586.6671753v6.9036255h6.6716309v-6.9036255h-6.6716309Z"/>
    <g>
      <path class="cls-4" d="m201.0919189,22.0367737v-3.0229492h-4.8662109l-.1658936-.4239502h12.663208l.9216309-1.1428223.1843262.1658936c.3502197.3317871.6820068.6635742.9953613,1.0506592l-.1658936.3502197h-5.4929199v3.0229492h3.2441406l.6635742-.8110352c.7004395.5714111,1.0506592.9216309,1.0506592,1.0690918,0,.0737305-.0552979.1290283-.1474609.2027588l-.4423828.2764893v9.1241455h-.9584961v-1.4008789h-10.3591309v1.4008789h-.9769287v-10.3591309c.3133545.1290283.6820068.2949219,1.1243896.4976807h2.7280273Zm-2.8754883.4055176v7.6495361h10.3591309v-7.6495361h-3.4100342v3.7049561c0,.3317871.2580566.4976807.7926025.4976807.4608154,0,.7557373-.1843262.8479004-.5345459.1290283-.4976807.2027588-1.2165527.2764893-2.1381836l.4423828.1474609c0,.9769287.0552979,1.6405029.1474609,1.9538574.0737305.2764893.2580566.4055176.5161133.4055176-.0184326.5161133-.2027588.7926025-.5714111.8847656-.2949219.0737305-.7926025.1290283-1.6036377.1290283-.6635742,0-1.1243896-.0737305-1.3824463-.1843262-.2764893-.1290283-.4239502-.4608154-.4239502-.9584961v-3.9077148h-2.1381836c-.0552979,2.6911621-1.1243896,4.6818848-3.1704102,5.9537354l-.2764893-.3686523c1.5667725-1.2349854,2.2487793-3.0413818,2.4515381-5.4007568l.0184326-.1843262h-2.8754883Zm5.9906006-.4055176v-3.0229492h-2.1381836v3.0229492h2.1381836Z"/>
      <path class="cls-4" d="m224.5203857,21.8708801c.239624,2.9307861.866333,5.2717285,1.9538574,6.9859619.5714111.8847656.9584961,1.3271484,1.1796875,1.3271484.2764893,0,.5345459-1.0506592.7741699-3.1888428l.4423828.2027588c-.1105957,1.1796875-.1474609,2.0275879-.1474609,2.5621338,0,.8479004.1843262,1.3455811.5345459,1.4746094-.1105957.5161133-.3317871.7557373-.7004395.7557373-.6451416,0-1.4377441-.5529785-2.3040771-1.6773682-1.4377441-1.8248291-2.3409424-4.6265869-2.7280273-8.3499756h-8.8292236l-.1843262-.4239502h8.9766846c-.0737305-.9031982-.1474609-2.359375-.1658936-4.3685303,1.105957.0552979,1.6405029.2027588,1.6405029.4239502,0,.1290283-.2027588.2580566-.626709.4055176.0184326,1.5852051.0737305,2.74646.1290283,3.465332h2.838623l.7741699-1.0506592.4239502.4423828c.2211914.2027588.4239502.4423828.6082764.7004395l-.1658936.3133545h-4.4238281Zm-4.1473389,7.6311035c1.1243896-.2027588,2.359375-.479248,3.7049561-.7926025v.5161133l-.8479004.2580566c-2.6911621.7741699-5.1427002,1.3640137-7.4099121,1.7879639-.0737305.4239502-.1658936.6451416-.3133545.6451416-.2027588,0-.4976807-.5161133-.8110352-1.5667725,1.2165527-.1474609,1.8248291-.2211914,1.8432617-.2211914v-6.0643311c1.0690918.0921631,1.6036377.239624,1.6036377.4423828,0,.1290283-.2211914.2580566-.6635742.4055176v5.0874023c.9031982-.1474609,1.5483398-.239624,1.97229-.3317871v-7.078125c1.0137939.0921631,1.5299072.239624,1.5299072.4423828,0,.1474609-.1843262.2764893-.6082764.4055176v2.2303467h1.4193115l.7741699-1.1428223c.3502197.387085.626709.7373047.8294678,1.0690918l.1105957.1843262-.1658936.2949219h-2.9676514v3.4284668Zm.1474609-10.4881592l.7926025-1.0506592c.387085.387085.7188721.7557373,1.0322266,1.1796875l-.2027588.2764893h-6.0274658l-.1658936-.4055176h4.5712891Zm4.9768066-1.0690918c1.4377441.4976807,2.119751,1.105957,2.119751,1.8248291,0,.4239502-.1843262.6082764-.5714111.6082764-.2764893,0-.4423828-.1474609-.5345459-.4239502-.2027588-.7004395-.5898438-1.2718506-1.2165527-1.732666l.2027588-.2764893Z"/>
      <path class="cls-4" d="m236.3178711,27.6587219c-.866333,1.3087158-1.9907227,2.4515381-3.3916016,3.4284668l-.2949219-.3317871c1.6220703-1.3824463,2.8201904-2.9123535,3.5759277-4.6081543h-2.986084l-.1658936-.4239502h3.2625732v-1.9538574c1.0322266.0552979,1.5667725.1843262,1.5667725.3686523,0,.1105957-.2211914.239624-.6451416.387085v1.1981201h1.6773682l.7004395-.9216309c.3686523.387085.6820068.7188721.9216309,1.0506592l-.1843262.2949219h-3.1151123v.6635742c1.8616943.6820068,2.7833252,1.3824463,2.7833252,2.1750488,0,.3686523-.1658936.5529785-.4976807.5529785-.1658936,0-.3317871-.1290283-.4976807-.4055176-.4239502-.6820068-.9953613-1.3087158-1.7879639-1.8248291v4.7924805h-.9216309v-4.4422607Zm.9031982-4.6081543c.4239502-.9769287.7373047-1.97229.9769287-2.986084.9216309.3317871,1.3824463.6082764,1.3824463.8110352,0,.1290283-.2027588.2027588-.6635742.2211914-.239624.5161133-.6635742,1.1612549-1.1981201,1.9538574h1.5852051l.6820068-.9584961c.3317871.3502197.6082764.7004395.8479004,1.0506592l-.1843262.3317871h-7.6311035l-.1658936-.4239502h4.3685303Zm-.9031982-3.5574951v-2.2672119c1.0506592.0368652,1.5852051.1843262,1.5852051.4055176,0,.1290283-.2211914.2764893-.6635742.4239502v1.4377441h1.6773682l.6635742-.9953613c.3317871.3133545.6082764.626709.8110352.9216309l.1290283.1658936-.2027588.3133545h-6.8937988l-.1843262-.4055176h3.0782471Zm-1.9907227.626709c1.1428223.6820068,1.732666,1.4193115,1.732666,2.1566162,0,.4239502-.2027588.6082764-.5898438.6082764-.2580566,0-.4055176-.1843262-.4423828-.5898438-.0552979-.6082764-.3502197-1.253418-.9400635-1.9169922l.239624-.2580566Zm7.8891602,3.4468994v.2764893c0,1.7510986-.1658936,3.2441406-.4976807,4.4606934-.4055176,1.4561768-1.1243896,2.6911621-2.1566162,3.7418213l-.3317871-.2764893c.8847656-1.2718506,1.4746094-2.7280273,1.7510986-4.3500977.1843262-1.1428223.2764893-2.4699707.2764893-3.9998779v-4.71875c.4423828.1474609.7926025.3133545,1.0875244.4423828,1.3087158-.4055176,2.3962402-.9400635,3.3178711-1.6589355.7373047.479248,1.1243896.8294678,1.1243896,1.0137939,0,.1105957-.0921631.1658936-.2949219.1658936-.1474609,0-.2949219-.0184326-.479248-.0737305-1.105957.4055176-2.3409424.7557373-3.7971191,1.0137939v3.5574951h3.7602539l.7741699-1.0875244c.4239502.3686523.7741699.7557373,1.0506592,1.1428223l-.1658936.3502197h-2.2487793v8.331543h-.9584961v-8.331543h-2.2119141Z"/>
      <path class="cls-4" d="m255.4331055,24.5804749c0,.1474609-.2211914.2764893-.6451416.4055176v7.1149902h-.9400635v-6.7463379c-.7004395.9400635-1.493042,1.7695312-2.3409424,2.5068359l-.3133545-.3133545c1.8248291-1.8985596,3.1519775-4.331665,4.0736084-7.2255859.9953613.239624,1.493042.4976807,1.493042.7188721,0,.1658936-.2580566.2764893-.7557373.3317871-.3502197.866333-.8294678,1.8063965-1.4008789,2.8017578.5529785.0737305.8294678.2027588.8294678.4055176Zm2.7833252-5.2532959v-2.1750488c1.1243896.0184326,1.6773682.1474609,1.6773682.4055176,0,.1474609-.239624.2949219-.7373047.479248v1.2902832h5.1427002l.6451416-.8110352c.8479004.7926025,1.2718506,1.3087158,1.2718506,1.5299072,0,.0921631-.0737305.1474609-.2211914.1658936l-.6451416.0921631c-.4055176.3502197-.8847656.6820068-1.3824463.9769287l-.2764893-.2580566c.2764893-.4423828.5161133-.8479004.6635742-1.2902832h-10.9121094v.1290283c0,.8479004-.1658936,1.5299072-.479248,2.0828857-.2211914.3686523-.4423828.5529785-.7373047.5529785-.1290283,0-.2949219-.0737305-.4423828-.1843262-.1290283-.1105957-.2027588-.2764893-.2027588-.4423828s.0921631-.3317871.2580566-.4976807c.6635742-.6635742,1.0137939-1.5483398,1.0690918-2.7095947l.4239502.0552979.0921631.6082764h4.7924805Zm1.5852051,5.2717285c.1658936-.8110352.2764893-1.5667725.3317871-2.2303467h-3.7971191l-.1843262-.4239502h7.8707275l.7741699-.9031982c.4239502.3317871.7741699.6820068,1.0690918,1.0322266l-.1843262.2949219h-4.2026367c-.3686523.8479004-.7741699,1.6036377-1.1796875,2.2303467h3.1151123l.6082764-.7373047c.6635742.4976807.9953613.8294678.9953613.9769287,0,.0737305-.0368652.1474609-.1474609.2027588l-.387085.2580566v6.8016357h-.9769287v-1.0690918h-5.2348633v1.0690918h-.9769287v-8.0181885c.2764893.1105957.6451416.2764893,1.105957.5161133h1.4008789Zm-1.5299072.4239502v2.4884033h5.2348633v-2.4884033h-5.2348633Zm5.2348633,5.6035156v-2.6911621h-5.2348633v2.6911621h5.2348633Z"/>
      <path class="cls-4" d="m269.534668,30.7922668c.479248-1.2718506.7557373-2.7833252.866333-4.5897217.9769287.1843262,1.4561768.387085,1.4561768.5898438,0,.1105957-.1658936.2211914-.5161133.2949219-.3133545,1.6220703-.7926025,2.9123535-1.4561768,3.8892822l-.3502197-.1843262Zm4.8846436-11.6678467c.8294678.3686523,1.2349854.6635742,1.2349854.9216309,0,.1474609-.2211914.2027588-.6820068.2027588-.8294678,1.2902832-1.8616943,2.5621338-3.1335449,3.8708496,1.105957-.0921631,1.9538574-.1474609,2.598999-.2211914-.1290283-.3317871-.3686523-.7188721-.7557373-1.2165527l.2580566-.2764893c1.1796875.8847656,1.7879639,1.7142334,1.7879639,2.5068359,0,.4239502-.1843262.626709-.5529785.626709-.239624,0-.387085-.1843262-.4239502-.6082764-.0184326-.1843262-.0737305-.387085-.1474609-.5898438-.4239502.0921631-.8847656.1843262-1.4008789.2949219v7.46521h-.9216309v-7.2993164c-.4423828.0737305-1.0322266.1658936-1.7879639.239624-.1105957.3686523-.2211914.5529785-.3317871.5529785-.1658936,0-.3686523-.479248-.5714111-1.4008789.5714111-.0184326,1.1243896-.0368652,1.6405029-.0552979,1.2902832-1.6773682,2.359375-3.3547363,3.1888428-5.0136719Zm-1.8616943-2.119751c.8847656.3317871,1.3271484.6082764,1.3271484.8110352,0,.1290283-.2027588.2211914-.6082764.239624-.4976807.7926025-1.0506592,1.5667725-1.6773682,2.3225098.5714111.4976807.866333.9769287.866333,1.3640137s-.1843262.5898438-.5345459.5898438c-.239624,0-.4055176-.1843262-.5345459-.5714111-.2580566-.7188721-.7741699-1.3824463-1.5114746-2.0091553l.2027588-.2949219c.4055176.1843262.7926025.4055176,1.1612549.6451416.4423828-.7557373.866333-1.8063965,1.3087158-3.0966797Zm1.4008789,8.9951172c1.0137939,1.0506592,1.5299072,2.0460205,1.5299072,2.986084,0,.4608154-.1843262.6820068-.5529785.6820068-.2949219,0-.4239502-.2211914-.4608154-.6820068-.0368652-.9216309-.3133545-1.8432617-.8110352-2.8017578l.2949219-.1843262Zm3.7971191-.0552979l.5898438-.7373047c.6451416.5898438.9769287.9584961.9769287,1.0875244,0,.0921631-.0737305.1474609-.1658936.2027588l-.387085.1843262c-.6820068,2.119751-1.9169922,3.6680908-3.7233887,4.7003174l-.2580566-.3317871c1.4746094-1.1428223,2.4699707-2.7095947,3.0598145-4.7003174h-2.3409424l-.1474609-.4055176h2.3962402Zm1.9538574-1.9169922h-2.1566162v.7557373h-.9400635v-5.8984375c.387085.1658936.7373047.3317871,1.0506592.4976807h1.3824463c.2027588-.6451416.3317871-1.3640137.4239502-2.1566162,1.0690918.1474609,1.6036377.3317871,1.6036377.5529785,0,.1105957-.2211914.239624-.6635742.3317871-.3317871.5714111-.6082764.9953613-.8294678,1.2718506h2.74646l.6082764-.7557373c.6635742.5161133.9953613.866333.9953613,1.0137939,0,.0737305-.0368652.1658936-.1658936.2211914l-.387085.239624v4.6634521h-.9216309v-.7373047h-1.8063965c.239624,1.1612549.6820068,2.2303467,1.3087158,3.225708.5529785-.626709,1.105957-1.4193115,1.6405029-2.3962402.7188721.4976807,1.0690918.8294678,1.0690918,1.0506592,0,.1290283-.1105957.2027588-.3502197.2027588-.0737305,0-.1658936-.0184326-.2764893-.0552979-.4239502.4608154-1.0322266.9769287-1.8248291,1.5667725.7373047,1.0506592,1.6773682,1.9354248,2.838623,2.6911621-.3502197.239624-.6635742.5529785-.8847656.9216309-1.8063965-1.5114746-2.986084-3.4468994-3.5390625-5.8431396v5.345459c0,.8479004-.5161133,1.253418-1.5483398,1.2349854-.0184326-.3317871-.1843262-.5714111-.4976807-.6820068-.1474609-.0552979-.5714111-.1474609-1.1981201-.2949219v-.4239502c.6820068.0921631,1.2718506.1290283,1.7879639.1290283.3502197,0,.5345459-.1658936.5345459-.479248v-6.1933594Zm2.74646-2.598999v-1.6220703h-4.9030762v1.6220703h4.9030762Zm0,2.1934814v-1.7695312h-4.9030762v1.7695312h4.9030762Z"/>
    </g>
    <g>
      <path class="cls-4" d="m208.8253054,41.995224v1.6400757h-7.6535645v25.6104126h-1.6821289v-27.2504883h9.3356934Z"/>
      <path class="cls-5" d="m236.0721315,52.2562103v14.7186279h3.4484863l1.9764404-2.5652466c.8831787.8410645,1.7242432,1.7241821,2.5231934,2.6914062l-.4205322.7990112h-7.5275879v8.0742188h-2.3128662v-8.0742188h-6.8126221l-.3364258-.9251709h7.1490479v-13.1206055c-3.7006836,7.4854736-8.7891846,13.1626587-15.2652588,17.1577148l-.6308594-.756958c6.434082-4.7940674,11.2282715-11.1020508,14.4243164-18.7977905h-12.8684082l-.3364258-.9672241h14.6766357v-7.9060059c2.649292.1261597,3.9530029.4625854,3.9530029,1.0092773,0,.3364258-.5466309.7149048-1.6401367,1.135437v5.7612915h10.3452148l2.1446533-2.8175659c1.2615967,1.2195435,2.1446533,2.270874,2.6072998,2.9857788l-.4205322.7990112h-13.9616699c3.5324707,6.4341431,8.8311768,11.7328491,15.8961182,15.8540649-.7990723.6307983-1.4719238,1.3877563-1.9344482,2.1867676-6.4342041-4.541748-11.144165-10.2189331-14.4663086-16.8633423l-.2103271-.378479Z"/>
      <path class="cls-6" d="m259.9968142,75.3013763c3.1539307-4.1212158,4.7520752-10.387146,4.7520752-18.7136841v-12.65802c2.6071777,0,3.8688965.3364258,3.8688965.9251709,0,.2943726-.4626465.6728516-1.513916,1.0933838v10.5133057c0,9.0414429-2.1027832,15.5596924-6.3500977,19.5126953l-.756958-.6728516Zm16.1063232-3.9950562v-25.3580933c2.5231934.1261597,3.7849121.4625854,3.7849121,1.0092773,0,.3364258-.5467529.7149048-1.5560303,1.0933838v23.2554321h-2.2288818Zm11.7749023,3.6586304v-31.7081299c2.6914062.1261597,3.9951172.5046387,3.9951172,1.0933838,0,.378479-.5466309.7149048-1.6821289,1.0933838v29.5213623h-2.3129883Z"/>
      <path class="cls-3" d="m311.4241823,70.2549896c2.8596191,1.6821289,7.8640137,2.5652466,15.0130615,2.5652466,2.4810791,0,5.8453369-.1261597,10.0927734-.4205322-.5887451.7149048-1.0513916,1.5559692-1.3878174,2.5231934h-8.8731689c-7.4013672,0-12.6580811-1.0092773-15.8120117-3.0698853-1.9764404-1.3457031-3.4063721-3.3642578-4.3314209-6.1818237-.6308594,3.9109497-1.8924561,7.3172607-3.8688965,10.2189331l-.8410645-.5046387c1.9764404-4.1212158,2.9857178-9.630188,3.027832-16.5689697,2.3128662.2523193,3.4903564.6307983,3.4903564,1.1774902,0,.2523193-.5046387.5466919-1.4298096.7990112-.0419922,1.1774902-.0841064,2.0606079-.1262207,2.649353.5888672,2.0606079,1.5981445,3.7427368,2.9858398,5.1304932v-12.3636475h-6.6865234l-.3364258-.9251709h7.0229492v-5.6771851h-5.5090332l-.4204102-.9672241h5.9294434v-6.3920898c2.3969727.0420532,3.5744629.2943726,3.5744629.8410645,0,.2943726-.5046387.6307983-1.513916,1.0513306v4.4996948h2.2709961l1.5979004-2.3549805c.7570801.7990112,1.4719238,1.6400757,2.1027832,2.5652466l-.4626465.756958h-5.5090332v5.6771851h3.027832l1.5981445-2.4390869c.9250488.9251709,1.5979004,1.7662354,2.1446533,2.6072998l-.4205322.756958h-6.3500977v5.7192383h2.0606689l1.6821289-2.3129272c.7149658.756958,1.4298096,1.5980225,2.1446533,2.4811401l-.4204102.756958h-5.467041v7.4013672Zm20.2276611-17.9987793c1.9764404.7990112,2.9437256,1.4298096,2.9437256,1.892395,0,.3364258-.4626465.5046387-1.4719238.5887451-.7568359,2.2288208-1.892334,4.5838013-3.3642578,7.0228882.6308594,1.6400757,1.4719238,3.1119385,2.439209,4.4576416.2943115.4205322.5046387.6728516.6728516.6728516.4625244,0,1.0092773-1.7241821,1.6821289-5.1725464l.9671631.5887451c-.4205322,2.6072998-.6307373,4.3314819-.6307373,5.0884399s.2102051,1.3036499.7148438,1.6821289c-.2944336.8831177-.756958,1.3036499-1.4719238,1.3036499-1.7661133,0-3.6164551-2.1867676-5.5930176-6.4761963-1.9765625,2.8596191-4.541748,5.2987061-7.5275879,7.2331543l-.5466309-.7149048c2.6914062-2.3129272,5.0883789-5.1725464,7.1911621-8.494751-1.3878174-3.5745239-2.2288818-7.4434204-2.6074219-11.6907959h-4.2053223v13.8355103l.1682129-.0841064c1.6821289-.756958,3.1960449-1.513916,4.541748-2.3129272l.2944336.8410645c-2.817627,2.1026611-5.5510254,3.7427368-8.2004395,4.9622803-.0839844,1.0513306-.2521973,1.513916-.5466309,1.513916-.4626465,0-1.0933838-.9251709-1.8503418-2.8596191,2.0605469-.7149048,3.1960449-1.0933838,3.4904785-1.2195435v-16.6951294c.4204102.1261597,1.2614746.5046387,2.5651855,1.0513306h3.6586914c-.1682129-1.9344482-.2524414-4.4155884-.2944336-7.359314,2.270874.0841064,3.40625.378479,3.40625.8831177,0,.3364258-.378418.6728516-1.2614746,1.0092773.0419922,2.649353.1260986,4.4155884.1682129,5.3828125h5.677124l1.3457031-2.0185547c.7149658.6728516,1.3035889,1.3877563,1.8924561,2.1447144l-.4206543.7990112h-8.4106445c.2944336,3.7427368.925293,6.9387817,1.8083496,9.5460815,1.0933838-2.1447144,2.0185547-4.5838013,2.7755127-7.4013672Zm-2.5653076-9.2937622c2.3549805,1.1774902,3.5324707,2.4811401,3.5324707,3.8268433,0,.8831177-.4204102,1.3036499-1.2614746,1.3036499-.6308594,0-1.0092773-.4625854-1.0935059-1.3457031-.1682129-1.2195435-.7568359-2.270874-1.7241211-3.1960449l.5466309-.5887451Z"/>
      <path class="cls-4" d="m345.4837526,75.7219086v-1.6400757h7.6535645v-25.6104126h1.6821289v27.2504883h-9.3356934Z"/>
    </g>
    <path class="cls-4" d="m369.9992676,67.787384c.1160889.899231.1740723,1.5953979.1740723,2.088501,0,1.392334-.1740723,2.4655762-.5511475,3.2197876-.2609863.493103-.5800781.7541504-.9282227.7541504-.5220947,0-.7832031-.2320557-.7832031-.7251587,0-.1450195.0870361-.3770752.2901611-.7251587.7830811-1.2183228,1.189209-2.6976929,1.189209-4.3510742,0-.1160278,0-.203064-.0289307-.3190308l.6380615.0579834Zm4.9602051-3.0167236h1.6534424l1.0441895-1.2473145c.9572754.8121948,1.4504395,1.3052979,1.4504395,1.5373535,0,.0580444-.0581055.1160889-.1450195.2320557l-.6381836.4641113c-.0290527,4.6411133-.4351807,7.454834-1.1893311,8.4120483-.4641113.6091309-1.2182617.899231-2.2625732.899231-.0289307-.5221558-.3190918-.8411865-.8701172-1.0442505-.2611084-.0870361-.9282227-.203064-1.9725342-.3480835v-.6671753c1.0443115.0870361,1.9725342.1450195,2.8137207.1450195s1.3052979-.3190308,1.4503174-.9862061c.3770752-1.4793701.5511475-3.7418823.5800781-6.758606h-5.859375v1.1312256h-1.4793701v-13.8942871c.4931641.1740112,1.0443115.4350586,1.7114258.7831421h5.5404053l1.1602783-1.4503174c.6671143.6091309,1.1602783,1.1312866,1.4503174,1.5663452l-.2611084.5221558h-4.177002v2.9296875h1.1602783l1.0732422-1.392334c.4641113.4641113.899292.9862671,1.3634033,1.5953979l-.2611084.4641113h-3.3358154v3.1327515h1.1602783l1.1022949-1.4213257c.4931641.5510864.9572754,1.1022339,1.392334,1.6243896l-.3190918.4350586h-3.3358154v3.3358154Zm-3.6549072,2.8717041c.6672363,1.392334.9863281,2.6105957.9863281,3.5678711,0,.8701782-.2611084,1.3052979-.8122559,1.3052979-.3770752,0-.5511475-.1740723-.5511475-.5801392,0,0,0-.0870361.0290527-.1740723,0-.1160278.0290527-.203064.0290527-.2900391.0289307-.4351196.0579834-.8702393.0579834-1.2763062,0-.7252197-.0870361-1.5083618-.2900391-2.3786011l.5510254-.1740112Zm-.2900391-10.6455688h2.5236816v-2.9296875h-2.5236816v2.9296875Zm2.5236816.6671753h-2.5236816v3.1327515h2.5236816v-3.1327515Zm0,7.1066895v-3.3358154h-2.5236816v3.3358154h2.5236816Zm-.7252197,2.4365845c1.0443115,1.3633423,1.5373535,2.581604,1.5373535,3.6548462,0,.5802002-.2320557.8702393-.7252197.8702393-.2319336,0-.4350586-.1160278-.493042-.3190918,0-.0289917-.0290527-.3480835-.0579834-.9862061-.0290527-1.0152588-.2901611-2.0305176-.8122559-2.9877319l.5511475-.2320557Zm1.4503174-.5511475c1.2473145,1.0442505,1.885498,2.088501,1.885498,3.0747681,0,.5511475-.203125.8121948-.6381836.8121948-.3190918,0-.5220947-.2901001-.5511475-.8121948-.0870361-.9572754-.4641113-1.885498-1.1021729-2.784668l.4060059-.2901001Zm14.50354-12.8210449l1.0152588-1.2763062c1.0151367.8701782,1.5083008,1.392334,1.5083008,1.6243896,0,.1160278-.0870361.2320557-.2320557.3480835l-.6381836.4060669v8.7601318h-1.4793701v-1.6243896h-3.0166016c.0289307.3190918.0869141.6091309.1450195.9572144.6380615,4.1189575,2.6685791,7.4838257,6.0334473,10.0654297-.5802002.4060669-1.0732422.899231-1.4793701,1.5373535-3.1328125-3.1037598-4.9602051-7.2807617-5.4822998-12.5599976h-2.8717041c-.0290527,6.0334473-1.3052979,10.3844604-3.8289795,13.0531006l-.5511475-.4350586c1.9145508-2.8427124,2.8427734-7.0777588,2.8427734-12.7921143v-8.9631348c.8121338.3770752,1.392334.696167,1.7694092.899231h6.2655029Zm-6.4975586.6671753v6.9036255h6.6715088v-6.9036255h-6.6715088Z"/>
    <path class="cls-4" d="m181.3084717,70.9861145c.8588867,0,1.5567627-.7246704,2.039917-2.1472168l.4831543.2952271c-.5637207,2.1472168-1.5299072,3.2476807-2.8988037,3.2476807-.8857422,0-2.0666504-.644165-3.5161133-1.8519897-1.3687744,1.2078247-3.1134033,1.8519897-5.1800537,1.8519897-1.395752,0-2.6303711-.348938-3.6503906-.993103-1.4761963-.9393921-2.2276611-2.2813721-2.2276611-4.026001,0-2.1740723,1.4493408-3.8918457,4.3481445-5.2070312-.7247314-1.4224854-1.1004639-2.7645264-1.1004639-3.9991455,0-1.6372681.7514648-2.7377319,2.2545166-3.2476807.3758545-.1342163.8052979-.1878662,1.3151855-.2147217.5904541.0268555,1.0736084.1073608,1.4761963.2415771,1.2614746.4562378,1.9324951,1.3688354,1.9324951,2.7645264,0,1.7714233-1.3956299,3.328186-4.1334229,4.6165161,1.5031738,2.4692993,3.3282471,4.6433716,5.4217529,6.5490112,1.2614746-1.5299072,1.8787842-3.032959,1.8787842-4.5360107,0-.9662476-.8588867-1.4761963-2.6571045-1.5567627v-.5367432h6.0390625v.5367432c-.9663086.1074219-1.6104736.4026489-1.9593506.9125977-.2415771.3220825-.4562988.8320312-.644165,1.4761963-.4562988,1.690918-1.1541748,3.0866699-2.039917,4.2407837,1.2614746,1.0736084,2.2009277,1.5835571,2.8182373,1.5835571Zm-13.1784668-3.677124c0,1.0736084.4561768,1.9862061,1.3687744,2.7377319.9663086.8051758,2.1472168,1.2078247,3.5429688,1.2078247,1.3687744,0,2.6303711-.4294434,3.7575684-1.2615356-2.2276611-2.0667114-4.1065674-4.4286499-5.6900635-7.0858154-1.9862061,1.0199585-2.979248,2.4692993-2.979248,4.4017944Zm6.9246826-9.6087646c0-1.4494019-.644165-2.2545776-1.9324951-2.2277832-1.4761963,0-2.2008057.9125977-2.2008057,2.5230103,0,1.0736084.348877,2.2277222,1.0736084,3.5429077,2.0397949-1.1004639,3.0596924-2.3887939,3.0596924-3.8381348Z"/>
    <g>
      <path class="cls-4" d="m420.8046875,72.4549255c-.5343018.4400635-1.4459229-.1571655-2.1060791-.5029297-.6600342-.3457642-1.822998-.9429932-3.1433105-1.4144897-.5656738-.2200317-1.1315918-.4086304-1.6658936-.5657959.0628662.7229614.0313721,1.5716553-.3458252,2.1374512-.4714355.7543945-1.1315918,1.2258911-1.9487305,1.4144897-.8173828.1885986-1.7602539.2514648-2.8604736.1885986-1.1002197-.0314331-2.1060791-.4400635-2.9862061-.880127-.880127-.4714966-1.4458008-1.4144897-1.5401611-2.1060181-.0943604-.7543945.1885986-1.5402222.9744873-2.1060181.8171387-.5657959,2.2316895-.9744263,3.4575195-1.0058594,1.0688477-.0314331,2.3261719.0942993,3.4577637.2514648,0-.1885986,0-.4086304-.0314941-.5657959-.0314941-.9744263-.1257324-2.388916-.1257324-3.3319092,0-.1571655-.0314941-.3143311-.0314941-.5029297-.1571045,0-.2514648.0314331-.4085693,0-1.1315918,0-2.3575439-.1571655-3.2061768-.3143311-.8486328-.1885986-1.9488525-.597229-2.7976074-1.0372925-.3771973-.1885986-.597168-.6286621-.3457031-.880127.1885986-.2200317.4714355-.1571655.8486328-.0314331.3144531.1257324.6286621.1885986,1.4460449.4086304.880127.2514648,2.2631836.2828979,3.6147461.3143311h.7858887c-.0314941-.6915283-.0314941-1.3516235-.0314941-1.791687s0-1.1315918.0314941-1.8231201c-.8487549.1571655-1.8232422.3457642-2.4519043.3771973-1.1000977.0314331-2.0430908-.1885986-2.8288574-.5029297-.7858887-.2828979-1.4460449-.597229-2.0432129-.9429932-.5029297-.3143311-.8486328-.8486938-.6286621-1.1001587.282959-.2828979.6915283,0,1.1000977.1885986.4401855.1885986,1.0058594.4400635,1.6660156.597229s1.7287598.2828979,2.7661133.1885986c.6915283-.0628662,1.6345215-.1885986,2.4517822-.3457642,0-.0628662.0313721-.1257324.0313721-.1885986,0-1.0058594-.0942383-1.9802856-.1571045-2.7032471-.0628662-.7543945-.3458252-1.3201904-.7543945-1.6973877-.3771973-.3771973-.5657959-.8172607-.3458252-1.1315918.1887207-.2828979.7543945-.2828979,1.4145508.0628662s1.2258301,1.0058594,1.5716553,1.7288208c.3143311.7229614.0628662,1.791687-.0313721,2.7346802-.0314941.2514648-.0629883.5657959-.0943604.9115601.880127-.2200317,1.9488525-.5343628,2.6090088-.7858276.8171387-.3143311,1.6345215-.7229614,2.3259277-.8172607.6601562-.0942993,1.2573242.0942993,1.7288818.5657959.4715576.4400635.0943604.880127-.4400635,1.1001587-.5657959.2200317-1.9174805.5029297-3.0804443.7543945-1.0687256.2514648-2.3575439.5343628-3.269043.7229614-.0313721.3143311-.0628662.6286621-.0628662.9429932-.0628662.9115601-.0942383,1.9802856-.1257324,2.8604126.4400635-.0314331.7858887-.0628662,1.1630859-.0942993.6914062-.0628662,1.5401611-.2514648,2.0117188-.4086304.5029297-.1571655.4085693-.4400635.0627441-.6600952-.3457031-.1885986-.7229004-.4086304-1.0686035-.6286621-.4715576-.2828979-.7543945-.6286621-.880127-.880127-.1572266-.2828979.0627441-.5657959.4714355-.2828979.4714355.3457642,1.0373535.6915283,1.9802246,1.0058594.7230225.2514648,1.5402832.4400635,2.0117188.4714966.4715576.0314331.8487549.2828979.8173828.7229614-.0314941.4400635-.6601562.8172607-1.2888184,1.1315918-.6286621.2828979-2.0432129.7229614-3.1118164.880127-.565918.0942993-1.3830566.1885986-2.1374512.2828979,0,.8486938.0313721,1.8231201.0942383,2.4832153s.1885986,1.5402222.3143311,2.2631836c.9429932.2200317,1.9488525.5029297,2.8604736.7858276,1.1315918.3771973,2.4202881.7858276,3.4261475,1.3516235,1.0687256.5657959,1.4144287,1.7602539.880127,2.2003174Zm-8.6755371-3.0175781c-.0943604,0-.1885986-.0314331-.2828369-.0628662-.8173828-.1885986-1.9174805-.2828979-2.671875-.3143311-.7229004-.0314331-1.3515625,0-2.0432129.0942993-.7229004.1257324-1.3200684.4400635-1.4772949,1.1001587-.1572266.597229.2199707,1.2573242.8486328,1.5716553.6601562.3143311,1.4145508.5029297,2.3575439.4714966.911499,0,1.7288818-.2828979,2.388916-.7229614s.7857666-1.0058594.8487549-1.6345215c0-.1571655.0313721-.3143311.0313721-.5029297Z"/>
      <path class="cls-4" d="m427.6287842,57.8699646c-.4085693-.4086304-.7543945-1.1630249-.4399414-1.5087891.2514648-.3143311.7857666-.0942993,1.1943359.0628662.4715576.1885986.9431152.3457642,1.8546143.3143311.9429932,0,2.7347412-.5657959,3.7406006-.880127.9743652-.2828979,3.1433105-.9744263,5.092041-1.477356,1.8859863-.5029297,4.0549316-1.0372925,5.060791-1.194458.9743652-.1571655,2.2631836-.0628662,2.7976074.2828979.5029297.3143311.8171387.880127.6286621,1.2573242-.2200928.3771973-.59729.3771973-1.1002197.2828979-.5029297-.0628662-1.1315918-.2200317-1.8859863-.2514648-.7543945,0-2.2003174.1885986-3.4891357.3771973-.0627441,0-.1257324.0314331-.2199707.0314331-.4086914.3457642-1.0687256.8172607-1.6030273,1.2887573-.7543945.6915283-1.2888184,1.2887573-1.7602539,2.3574829-.3458252.8172607-.4715576,1.9802856-.6601562,3.2061768-.2199707,1.1630249-.3143311,3.1747437-.0942383,4.9664307.1257324,1.0687256.5029297,1.791687,1.2258301,2.3574829.597168.5029297,1.5402832.6915283,2.5461426.6286621,1.0686035-.0942993,1.7287598-.0314331,2.2316895.0628662.5029297.1257324,1.0373535.5343628,1.2888184.9115601s-.0314941.8486938-.6916504.9115601c-.7229004.0628662-1.822998.0942993-3.0489502,0-1.194458-.0942993-2.3575439-.3771973-3.3947754-1.2258911-.8172607-.6600952-1.194458-1.5402222-1.4144287-2.8918457-.2200928-1.4144897-.2514648-2.9232788-.0629883-4.5263672.2200928-1.6659546.5029297-2.8289795.7230225-3.8034058.2200928-1.0058594.7543945-1.9174194,1.3830566-2.5460815.3771973-.3771973,1.0058594-.9429932,1.5087891-1.2887573-.5343018.1257324-1.0687256.2828979-1.6345215.5029297-1.1629639.4400635-3.0175781,1.2258911-3.9920654,1.6030884-1.0372314.3771973-2.1688232.9115601-3.269043,1.0058594-1.1315918.1257324-2.0117188-.3143311-2.5146484-.8172607Zm16.5653076,2.1688843c-.4400635-.4714966-1.0372314-.9429932-1.8231201-1.477356-.2514648-.1885986-.4086914-.4086304-.2514648-.6286621.0942383-.1257324.3771973-.1257324.5344238-.0942993.4714355,0,1.0372314.1571655,1.6972656.3771973.6601562.2200317,1.6031494.7229614,1.8859863,1.2887573.282959.5029297,0,1.0058594-.4399414,1.1315918-.4401855.1257324-1.1315918-.1571655-1.6031494-.597229Zm2.5146484-1.3201904c-.4715576-.5657959-1.0372314-.880127-1.9488525-1.2887573-.282959-.1257324-.4086914-.4086304-.282959-.597229.0943604-.1885986.3458252-.1257324.5344238-.1257324.4714355-.0314331,1.0687256.0628662,1.7287598.2828979.6286621.1885986,1.5717773.6286621,1.9174805,1.1630249.3143311.5029297.0628662,1.0372925-.4086914,1.1630249-.4085693.1571655-1.1629639-.1257324-1.5401611-.597229Z"/>
    </g>
    <g>
      <path class="cls-4" d="m467.7133789,62.0819397c0,.1885986-.3457031.4086304-1.0373535.597229v12.6046753h-1.5715332v-12.2903442c-1.2259521,1.477356-2.4832764,2.7975464-3.8977051,3.9920044l-.5029297-.5029297c2.8288574-2.986145,5.2177734-6.6952515,7.1352539-11.2216187,1.4459229.5343628,2.1689453,1.0058594,2.1689453,1.4459229,0,.2514648-.3458252.4086304-1.1315918.4400635-.880127,1.6973877-1.7288818,3.1433105-2.5776367,4.3063354.9431152.1257324,1.4145508.3457642,1.4145508.6286621Zm-6.7895508-3.8034058c2.7661133-2.2946167,4.9350586-5.0921631,6.5380859-8.3612061,1.5402832.6286621,2.2946777,1.1630249,2.2946777,1.6030884,0,.2514648-.4086914.3771973-1.2259521.3771973-1.8859863,2.7975464-4.2749023,5.0921631-7.2296143,6.9467163l-.3771973-.5657959Zm16.9423828,14.1134644c1.2573242.3457642,2.8604736.5029297,4.8093262.5029297,1.2258301,0,2.6403809-.0628662,4.2749023-.1885986-.4400635.597229-.7543945,1.2258911-.9429932,1.8545532h-3.0175781c-3.9605713,0-6.8839111-.880127-8.7384033-2.5775146-.9743652-.9429932-1.7602539-2.2317505-2.388916-3.866272-.7543945,2.7346802-1.9802246,5.0921631-3.7404785,7.166748l-.59729-.4400635c1.8859863-2.986145,3.0175781-6.852417,3.4261475-11.5673828,1.7602539.4086304,2.6403809.7858276,2.6403809,1.1315918,0,.2200317-.3771973.3771973-1.1315918.5029297-.1257324.9744263-.2199707,1.6345215-.2828369,1.9488525.9429932,2.2946167,2.3260498,3.9605713,4.0234375,4.8721313v-10.6243896h-7.1981201l-.3144531-.7229614h7.5125732v-4.7149658h-5.6265869l-.2828369-.6915283h5.9094238v-5.0921631c1.9173584.0314331,2.8604736.2828979,2.8604736.7229614,0,.2828979-.3771973.5343628-1.1945801.7858276v3.583374h3.552002l1.3830566-1.9174194c.6915283.6286621,1.3201904,1.3201904,1.8859863,2.0117188l-.282959.597229h-6.5380859v4.7149658h5.060791l1.4772949-1.9802856c.565918.5657959,1.1315918,1.2258911,1.6975098,1.9174194l.2199707.2828979-.3143311.5029297h-8.1412354v4.8092651h3.7092285l1.4144287-1.791687c.5657959.5029297,1.0687256,1.0372925,1.5087891,1.6345215l.2200928.3143311-.3144531.5343628h-6.5380859v5.7836914Z"/>
      <path class="cls-4" d="m506.2856445,60.0702209v7.2924805c0,1.3830566-.9743652,2.074585-2.9232178,2.0431519,0-.5343628-.2828369-.9115601-.7857666-1.1630249-.4086914-.2200317-1.2259521-.4400635-2.4832764-.6286621v-.7229614c1.5401611.1571655,2.7347412.2514648,3.7091064.2514648.5344238,0,.8172607-.2828979.8172607-.8172607v-6.255188h-11.7244873l-.282959-.7229614h5.657959v-6.8209839c1.8544922.0942993,2.7976074.3143311,2.7976074.6915283,0,.2200317-.4086914.4714966-1.1630859.7543945v5.375061h4.7149658v-9.4299316c1.9488525.0314331,2.9547119.2828979,2.9547119.7229614,0,.2514648-.4400635.5343628-1.2888184.7858276v3.0804443h5.1865234l1.3830566-1.9174194c.880127.8486938,1.5402832,1.5402222,1.9174805,2.1060181l-.3458252.5343628h-8.1412354v4.1177368h8.2983398l1.477417-1.9174194c.7230225.6286621,1.4144287,1.3201904,2.0117188,2.074585l-.3143311.5657959h-11.4731445Zm-13.2646484,9.3356323c2.3259277-1.9488525,4.2749023-4.5892334,5.7836914-7.9211426,1.6345215.6915283,2.4516602,1.2258911,2.4516602,1.6030884,0,.2514648-.4399414.4086304-1.3830566.4086304-1.6345215,2.7661133-3.7719727,4.9035645-6.4123535,6.4437866l-.4399414-.5343628Zm.0313721,5.2493286c8.1726074-1.477356,14.1763916-4.6835327,17.9797363-9.6185303,1.4144287.7543945,2.1374512,1.3516235,2.1374512,1.7602539,0,.2200317-.2514648.3771973-.7857666.3457642l-.6601562-.0628662c-2.9547119,2.986145-6.2866211,5.1550293-9.9643555,6.4123535-2.2316895.7858276-4.9978027,1.3830566-8.3297119,1.8545532l-.3771973-.6915283Zm17.3197021-13.4848022c2.388916,1.0058594,4.2119141,2.1060181,5.375,3.3633423.8486328.880127,1.2573242,1.6345215,1.2573242,2.3260498,0,.7229614-.3143311,1.1001587-.9743652,1.1001587-.4086914,0-.7543945-.3457642-1.0688477-1.0687256-.8486328-1.791687-2.5146484-3.4890747-4.9663086-5.1864624l.3771973-.5343628Z"/>
    </g>
    <path class="cls-4" d="m606.074707,63.2449646c3.8977051-3.2376099,6.7268066-7.449646,8.5183105-12.6361084,1.6975098.597229,2.5461426,1.0687256,2.5461426,1.4459229,0,.2514648-.3771973.4400635-1.1945801.6286621-1.4143066,2.9547119-2.9230957,5.3436279-4.5576172,7.1353149-1.2888184,1.3830566-2.8603516,2.7346802-4.8408203,3.9920044l-.4714355-.5657959Zm4.5891113-1.4459229l-.2199707-.7229614h13.0134277l1.0686035-1.2573242c1.1003418.8486938,1.6660156,1.4144897,1.6660156,1.6973877,0,.1257324-.0942383.2828979-.282959.4086304l-.597168.4400635c-.0314941,5.5636597-.4714355,9.1784668-1.3830566,10.8444214-.597168,1.1315918-1.7287598,1.6973877-3.3005371,1.6973877,0-.5657959-.3771973-.9744263-1.0686035-1.2573242-.5344238-.2200317-1.5402832-.4714966-2.986084-.6915283v-.7543945c1.8857422.2514648,3.3945312.3771973,4.4318848.3771973.9743652,0,1.6345215-.597229,1.9174805-1.7602539.4714355-1.9802856.7229004-4.9978638.7543945-9.0213013h-6.7268066c-.2827148,3.3947754-1.0686035,6.1294556-2.420166,8.1726074-1.4460449,2.2317505-3.7092285,3.9605713-6.8210449,5.2493286l-.4086914-.6286621c3.3005371-1.7602539,5.5637207-4.2120361,6.6953125-7.2296143.6286621-1.6659546,1.0058594-3.5519409,1.1630859-5.5636597h-4.4951172Zm10.5302734-11.1901855c2.6088867,4.5578003,5.7836914,7.9525757,9.5241699,10.1843262-.5656738.4086304-1.0373535.9744263-1.4772949,1.7288208-2.7661133-2.1688843-5.0292969-4.7149658-6.7268066-7.6068115-.6286621-1.1001587-1.3200684-2.4203491-2.0432129-3.8977051l.7231445-.4086304Z"/>
    <g>
      <path class="cls-4" d="m527.8266602,75.1577148l18.5324707-63.6575317c-6.1584473,4.4922485-12.5483398,8.1123962-19.1678467,10.8612671l-.2322998-3.2525635c12.0047607-5.5758362,21.0092773-11.9448547,27.0115967-19.1088867h3.8343506l-22.0020752,75.1577148h-7.9761963Z"/>
      <path class="cls-4" d="m573.9645996,75.1577148l6.3399658-22.0710449h-27.1503906l.5227051-4.3561096L600.9309082,0h3.0800781l-13.8605957,47.9174194h13.8605957l-1.2788086,5.1692505h-14.1981201l-6.2636719,22.0710449h-8.3057861Zm7.8256836-27.2402954l9.7867432-34.0603943-32.7852783,34.0603943h22.9985352Z"/>
    </g>
  </g>
</svg>