<?xml version="1.0" encoding="UTF-8"?>
<svg id="_レイヤー_2" data-name="レイヤー 2" xmlns="http://www.w3.org/2000/svg" xmlns:xlink="http://www.w3.org/1999/xlink" viewBox="0 0 651.2823552 59.4453762">
  <defs>
    <style>
      .cls-1 {
        fill: url(#_名称未設定グラデーション_46);
      }

      .cls-1, .cls-2, .cls-3, .cls-4, .cls-5, .cls-6, .cls-7 {
        stroke-width: 0px;
      }

      .cls-2 {
        fill: url(#_名称未設定グラデーション_46-2);
      }

      .cls-3 {
        fill: url(#_名称未設定グラデーション_46-5);
      }

      .cls-4 {
        fill: #231815;
      }

      .cls-5 {
        fill: #040000;
      }

      .cls-6 {
        fill: url(#_名称未設定グラデーション_46-3);
      }

      .cls-7 {
        fill: url(#_名称未設定グラデーション_46-4);
      }
    </style>
    <linearGradient id="_名称未設定グラデーション_46" data-name="名称未設定グラデーション 46" x1="191.5272594" y1="46.7066795" x2="216.3497069" y2="46.7066795" gradientUnits="userSpaceOnUse">
      <stop offset="0" stop-color="#735825"/>
      <stop offset=".2496516" stop-color="#6c5222"/>
      <stop offset=".6019828" stop-color="#59441c"/>
      <stop offset="1" stop-color="#3d2d13"/>
    </linearGradient>
    <linearGradient id="_名称未設定グラデーション_46-2" data-name="名称未設定グラデーション 46" x1="223.780443" y1="46.1499755" x2="251.1244795" y2="46.1499755" xlink:href="#_名称未設定グラデーション_46"/>
    <linearGradient id="_名称未設定グラデーション_46-3" data-name="名称未設定グラデーション 46" x1="335.742818" y1="46.4447012" x2="362.8575759" y2="46.4447012" xlink:href="#_名称未設定グラデーション_46"/>
    <linearGradient id="_名称未設定グラデーション_46-4" data-name="名称未設定グラデーション 46" x1="368.5527531" x2="393.3752005" xlink:href="#_名称未設定グラデーション_46"/>
    <linearGradient id="_名称未設定グラデーション_46-5" data-name="名称未設定グラデーション 46" x1="400.8060317" y1="46.1499755" x2="428.1499731" y2="46.1499755" xlink:href="#_名称未設定グラデーション_46"/>
  </defs>
  <g id="_レイヤー_1-2" data-name="レイヤー 1">
    <g>
      <path class="cls-4" d="m9.3314962,16.1140503h1.5135897c.4893809,0,1.1169618.0818045,1.1169618.6670371v5.263966s-1.7026076.6249244-4.7783326.6249244c-3.0740723,0-7.1837152-1.6926919-7.1837152-6.3809568,0-4.6853728,4.2872991-6.5092411,7.4539179-6.5092411,1.4295128,0,3.2116526.0842834,3.2116526.8864219v1.5650273c-1.2031044-.9816539-1.6914525-1.1636775-3.5194523-1.1636775-1.8354366,0-5.1179452,1.2010679-5.1179452,5.1152888,0,3.8939763,4.4013296,6.219207,8.065799,4.7475525v-2.9879587c0-.6267255-.0495785-1.8283839-.7624757-1.8283839Z"/>
      <path class="cls-4" d="m32.3175256,22.3510229h3.8784832c-1.0684162-.4013791-1.5135897-1.6910393-1.8728271-2.630758-.3610966-.9331083-3.1695109-7.7621306-3.4754514-8.699577-.3189549-.9349675-.7577244-.9349675-1.1235723-.9349675h-2.2207027c1.0663505.3588242.4788455,1.1169618.3011893,1.6511407-.1749707.5317584-3.9206249,9.8184272-3.9206249,9.8184272-1.2966838-.3567585-4.5614267-5.1330252-4.5614267-5.1330252,4.3284079-1.2454527,3.6679812-6.3365427-.5744906-6.3365427h-4.8644752c.9841328.2218637.8953047,1.2522697.8953047,2.0544082v8.4310269c0,1.1572443-.3584111,1.4738979-.9374464,1.7798674h3.5661387c-.9795881-.4435208-.7184748-1.4716545-.7184748-1.961242v-9.0962048h1.9242648c1.0310258,0,1.783999,1.250204,1.783999,2.0986157,0,1.3743567-1.0748201,1.9131095-2.1384851,2.3122163-1.0750267.4007594-.4920664,1.2942049,0,2.005656.4891743.7159959,1.9149688,2.7278202,2.769991,3.7101228.8446934.9818605,1.604277.9308359,2.0037969.9308359h3.211446c-1.2431804-.3966278-.5763498-1.373737-.4011725-1.8658034.1824075-.4945453.9822736-2.5913018.9822736-2.5913018h4.8186151s.5827537,1.5135896,1.1169618,2.858819c.5408186,1.3320085.1280777,1.5117304-.4433142,1.5982862Zm-5.0004029-5.8847588l1.8279999-4.7737878,1.9664065,4.7737878h-3.7944063Z"/>
      <path class="cls-4" d="m71.3983822,22.3510229h3.8898449c-1.0777122-.4013791-1.5202001-1.6910393-1.8746863-2.630758-.3546927-.9331083-3.1703372-7.7621306-3.4799961-8.699577-.3154431-.9349675-.754006-.9349675-1.1198539-.9349675h-2.2264869c1.0768859.3588242.4893809,1.1169618.3077997,1.6511407-.1776562.5317584-3.9272353,9.8184272-3.9272353,9.8184272-.2487187.5829603-.6145666.5916365-.8446934.7957346h3.2135118c-1.2499974-.3966278-.5811011-1.373737-.4032383-1.8658034.1768299-.4945453.985992-2.5913018.985992-2.5913018h4.8167559s.587505,1.5135896,1.1206802,2.858819c.5323489,1.3320085.1291106,1.5117304-.4583944,1.5982862Zm-4.9906937-5.8847588l1.8279999-4.7737878,1.9616552,4.7737878h-3.7896551Z"/>
      <path class="cls-4" d="m57.6729931,22.5792905c.4451734-.4032383.8484117-.7180906.8484117-2.1414061v-8.4330636c0-.6668305-.0514377-1.4317852-.8484117-1.6972366h3.4285585c-.3544861.316476-.7783821.7131038-.7783821,1.6108874v8.5194128c0,.7606455-.1553459,1.8780205.8287869,2.1414061h-3.4789633Z"/>
      <path class="cls-4" d="m39.1857977,12.9381356s-.0440009,6.7354139-.0440009,7.4997488c0,.7606455.0906873,1.8780205,1.0721346,2.1414061h-3.2601982c.454676-.4032383.8025516-.7180906.8025516-2.1414061,0-1.4247325.0954386-7.7701581.0954386-8.4330636,0-.6668305-.0954386-1.4317852-.8979902-1.6972366h2.5070185l7.4915149,9.4126808v-7.6685512c0-.4943387.0906873-1.4276536-.9355872-1.7844121h3.3444816c-.3966278.305734-.9870249.4433142-.9870249,1.7375191v11.0706677s-.930836.1708392-2.4444256-1.6553015c-1.5220593-1.8261406-6.7439127-8.4820514-6.7439127-8.4820514Z"/>
      <path class="cls-4" d="m60.5092953,32.0787336c-9.8122009-8.2715784-13.5681839-18.0058706-.1458434-31.2885648.4210039-.4207973.819491-.1706326.4891743.2059573-5.8822801,6.7269439-12.4448182,17.4846768-.1346882,30.6727587.1908771.1993468.1198147.6381163-.2086428.4098488Z"/>
    </g>
    <g>
      <path class="cls-5" d="m181.334113,16.0404358h3.2490234l.5761719-.6402588c.5605469.4321899.8325195.7042847.8325195.8483582,0,.0800476-.0478516.1440735-.144043.2240906l-.3203125.2240906v4.4978333h-.800293v-.7523193h-3.2329102l.0957031.0800171c1.5688477,1.312561,3.5537109,2.4169922,6.0024414,3.1853027-.3198242.2720947-.5600586.54422-.7041016.8483276-2.3530273-.9763794-4.1938477-2.2088623-5.5541992-3.7294922v4.5618286h-.8642578v-4.0656128c-1.4887695,1.5205994-3.4575195,2.7050781-5.8745117,3.5854492l-.2241211-.3041382c2.4970703-1.056427,4.4018555-2.4489746,5.7304688-4.1616821h-2.9291992v.8163452h-.8164062v-5.6342773c.3041992.0800171.65625.2240601,1.0244141.4161377h3.0893555v-1.5205994h-5.5063477l-.2080078-.3521423h5.7143555v-1.7286987c.9921875.0320129,1.472168.1760864,1.472168.3841553,0,.1280518-.1918945.2561035-.6079102.4001465v.944397h4.081543l.7680664-.9763794c.4003906.3681335.7524414.7202759,1.0405273,1.0563965l-.1601562.2721252h-5.7299805v1.5205994Zm-.8642578.3521729h-3.2973633v1.600647h3.2973633v-1.600647Zm0,1.9687805h-3.2973633v1.7286987h3.2973633v-1.7286987Zm.8642578-1.9687805v1.600647h3.3930664v-1.600647h-3.3930664Zm0,1.9687805v1.7286987h3.3930664v-1.7286987h-3.3930664Z"/>
      <path class="cls-5" d="m199.2706365,16.5046387c.2080078,2.5450134.7524414,4.5778503,1.6967773,6.0664368.4960938.7683105.8325195,1.1524658,1.0244141,1.1524658.2402344,0,.4643555-.9123535.6723633-2.769104l.3842773.1760864c-.0961914,1.0244141-.128418,1.7606812-.128418,2.224884,0,.7362976.1601562,1.1684875.4643555,1.2805176-.0961914.4481812-.2880859.6562805-.6083984.6562805-.5600586,0-1.2485352-.4802246-2.0004883-1.456604-1.2485352-1.5846558-2.0332031-4.0176392-2.3691406-7.2509155h-7.6669922l-.1601562-.3681641h7.7954102c-.0644531-.7843018-.128418-2.0488281-.144043-3.7935181.9599609.0480042,1.4243164.1760559,1.4243164.3681335,0,.11203-.1762695.2240906-.5444336.3521423.0161133,1.3765564.0644531,2.3849487.1123047,3.0092163h2.4648438l.6723633-.9123535.3681641.3841553c.1918945.1760559.3681641.3841553.5283203.6082153l-.144043.2721252h-3.8417969Zm-3.6015625,6.6266785c.9765625-.1760864,2.0488281-.4161682,3.2177734-.6882935v.4481812l-.7363281.2241211c-2.3369141.6722412-4.4658203,1.1844482-6.4345703,1.5526123-.0644531.3681641-.1445312.5602417-.2724609.5602417-.1757812,0-.4321289-.4481812-.7041016-1.3605652,1.0561523-.1280518,1.5844727-.1920776,1.6005859-.1920776v-5.2661438c.9282227.0800476,1.3925781.2080994,1.3925781.3841553,0,.1120605-.1918945.2241211-.5761719.3521729v4.4177856c.7841797-.1280518,1.3442383-.2080994,1.7124023-.288147v-6.1464844c.8803711.0800476,1.3286133.2080994,1.3286133.3841553,0,.1280518-.1601562.2401123-.5283203.3521729v1.9367676h1.2329102l.671875-.9924011c.3041992.3361511.5444336.6402588.7207031.9283752l.0957031.1600647-.144043.2561035h-2.5771484v2.9772034Zm.128418-9.107666l.6879883-.912384c.3364258.3361511.6245117.6562805.8964844,1.0244141l-.1757812.2400818h-5.234375l-.144043-.3521118h3.9697266Zm4.3217773-.9284058c1.2485352.4321899,1.8408203.9603882,1.8408203,1.5846558,0,.3681641-.1601562.5281982-.496582.5281982-.2397461,0-.3837891-.1280518-.4638672-.3681335-.1762695-.6082458-.512207-1.1044617-1.0566406-1.5046082l.1762695-.2401123Z"/>
      <path class="cls-5" d="m213.334113,16.0404358h3.2490234l.5761719-.6402588c.5605469.4321899.8325195.7042847.8325195.8483582,0,.0800476-.0478516.1440735-.144043.2240906l-.3203125.2240906v4.4978333h-.800293v-.7523193h-3.2329102l.0957031.0800171c1.5688477,1.312561,3.5537109,2.4169922,6.0024414,3.1853027-.3198242.2720947-.5600586.54422-.7041016.8483276-2.3530273-.9763794-4.1938477-2.2088623-5.5541992-3.7294922v4.5618286h-.8642578v-4.0656128c-1.4887695,1.5205994-3.4575195,2.7050781-5.8745117,3.5854492l-.2241211-.3041382c2.4970703-1.056427,4.4018555-2.4489746,5.7304688-4.1616821h-2.9291992v.8163452h-.8164062v-5.6342773c.3041992.0800171.65625.2240601,1.0244141.4161377h3.0893555v-1.5205994h-5.5063477l-.2080078-.3521423h5.7143555v-1.7286987c.9921875.0320129,1.472168.1760864,1.472168.3841553,0,.1280518-.1918945.2561035-.6079102.4001465v.944397h4.081543l.7680664-.9763794c.4003906.3681335.7524414.7202759,1.0405273,1.0563965l-.1601562.2721252h-5.7299805v1.5205994Zm-.8642578.3521729h-3.2973633v1.600647h3.2973633v-1.600647Zm0,1.9687805h-3.2973633v1.7286987h3.2973633v-1.7286987Zm.8642578-1.9687805v1.600647h3.3930664v-1.600647h-3.3930664Zm0,1.9687805v1.7286987h3.3930664v-1.7286987h-3.3930664Z"/>
      <path class="cls-5" d="m229.0299138,18.2653503v5.5862427h4.2578125l.9121094-1.1524658c.3203125.3361511.6723633.7523193,1.0727539,1.2645264l-.1601562.2561035h-12.2612305l-.144043-.3681641h5.4101562v-10.708313c1.1367188.0480347,1.6967773.1760864,1.6967773.4001465,0,.1440735-.2558594.3041382-.7841797.4642029v3.9055786h3.425293l.7685547-1.056427c.3198242.3201294.6879883.7042847,1.0561523,1.1524658l-.1601562.2561035h-5.0898438Z"/>
      <path class="cls-5" d="m238.3389958,24.25177c.4165039-1.1044617.65625-2.4169617.7524414-3.9856262.8481445.1600952,1.2646484.3361511,1.2646484.512207,0,.0960693-.144043.1920776-.4482422.2561035-.2719727,1.4085693-.6884766,2.5290527-1.2646484,3.3773804l-.3041992-.1600647Zm4.2416992-10.1321106c.7207031.3201294,1.0727539.5762329,1.0727539.800354,0,.1280518-.1923828.1760559-.5922852.1760559-.7202148,1.1204529-1.6166992,2.224884-2.7211914,3.3613586.9604492-.0800171,1.6967773-.1280518,2.2568359-.1920776-.1118164-.2881165-.3198242-.6242676-.65625-1.056427l.2241211-.2400818c1.0244141.7683105,1.5527344,1.4885864,1.5527344,2.1768799,0,.3681335-.1601562.5441895-.4804688.5441895-.2080078,0-.3359375-.1600342-.3681641-.5281982-.015625-.1600647-.0639648-.3361206-.1279297-.512207-.3681641.0800171-.7680664.1600647-1.2163086.2561035v6.482605h-.800293v-6.338562c-.3842773.0640259-.8964844.1440735-1.5527344.2080994-.0961914.3201294-.1918945.4801941-.2880859.4801941-.144043,0-.3203125-.4161682-.4960938-1.2164917.4960938-.0159912.9760742-.0320129,1.4243164-.0480347,1.1206055-1.4565735,2.0488281-2.913147,2.769043-4.3537598Zm-1.6166992-1.8407288c.7685547.2881165,1.152832.5282288,1.152832.7042847,0,.11203-.1762695.1920776-.5283203.2080994-.4321289.6882629-.9125977,1.3605347-1.456543,2.0167847.4960938.4321899.7524414.8483582.7524414,1.1845093,0,.3361206-.1601562.512207-.4643555.512207-.2080078,0-.3520508-.1600952-.4643555-.4962158-.2241211-.6242676-.6723633-1.2005005-1.3125-1.7446899l.1762695-.2561035c.3520508.1600342.6879883.3521118,1.0083008.5602112.3842773-.6562805.7524414-1.568634,1.1362305-2.6890869Zm1.2167969,7.8111572c.8803711.912384,1.3286133,1.7767029,1.3286133,2.5930481,0,.4001465-.1601562.5922241-.4804688.5922241-.2558594,0-.3681641-.1920776-.3999023-.5922241-.0322266-.8003235-.2724609-1.600647-.7045898-2.4329834l.2563477-.1600647Zm3.2973633-.0480042l.512207-.6402588c.5600586.512207.8481445.8323364.8481445.9443665,0,.0800476-.0639648.1280518-.144043.1760559l-.3359375.1600952c-.5922852,1.8407288-1.6650391,3.1852722-3.2333984,4.0816345l-.2241211-.2881165c1.2807617-.9924011,2.1450195-2.3529663,2.6572266-4.081665h-2.0332031l-.1279297-.3521118h2.0810547Zm1.6967773-1.6646729h-1.8730469v.65625h-.8164062v-5.1220703c.3364258.144043.640625.2881165.9125977.4321899h1.2001953c.1762695-.5602417.2885742-1.1845093.3681641-1.8727722.9287109.1280518,1.3925781.2881165,1.3925781.4801941,0,.0960388-.1918945.2080688-.5761719.2881165-.2880859.4961853-.527832.8643494-.7202148,1.1044617h2.3852539l.527832-.6562805c.5761719.4481812.8642578.7522888.8642578.8803406,0,.0640259-.0317383.1440735-.144043.1920776l-.3359375.2080994v4.0496521h-.800293v-.6402588h-1.5688477c.2084961,1.0083923.5922852,1.9367676,1.1367188,2.8011169.4799805-.54422.9604492-1.2325134,1.4243164-2.0808411.6245117.4321899.9287109.7202759.9287109.9123535,0,.1120605-.0961914.1760864-.3041992.1760864-.0639648,0-.144043-.0159912-.2402344-.0480347-.3681641.400177-.8964844.8483582-1.5844727,1.3605652.6401367.912384,1.456543,1.6806946,2.4648438,2.3369446-.3041992.2080688-.5761719.4801941-.7680664.8003235-1.5688477-1.3125305-2.5932617-2.9931946-3.0732422-5.0740662v4.6419067c0,.7362671-.4482422,1.0884399-1.3447266,1.0724182-.0161133-.2881165-.1601562-.4961853-.4321289-.5922546-.1279297-.0480042-.4960938-.1280518-1.0405273-.2561035v-.3681335c.5922852.0800476,1.1044922.11203,1.5527344.11203.3041992,0,.4643555-.144043.4643555-.4161377v-5.3781738Zm2.3847656-2.2569275v-1.4085693h-4.2578125v1.4085693h4.2578125Zm0,1.9047546v-1.5366211h-4.2578125v1.5366211h4.2578125Z"/>
    </g>
    <g>
      <path class="cls-5" d="m184.4239963,32.9855641v1.2771444h-5.9600072v19.9431009h-1.3098917v-21.2202453h7.2698989Z"/>
      <path class="cls-1" d="m191.5272594,58.9214195c2.4560469-3.2092346,3.700444-8.0885812,3.700444-14.572545v-9.8569349c2.0303321,0,3.0127509.2619783,3.0127509.7204404,0,.229231-.3602202.5239567-1.1789025.8514296v8.186823c0,7.0406678-1.6373646,12.1164981-4.9448411,15.1947436l-.5894513-.5239567Zm12.5422604-3.1109928v-19.7466172c1.9648375.0982419,2.9471612.3602202,2.9471612.785935,0,.2619783-.4256673.556704-1.2116023.8514296v18.1092526h-1.735559Zm9.1692418,2.8490144v-24.6914583c2.0958267.0982419,3.1109452.3929675,3.1109452.8514296,0,.2947256-.4257623.556704-1.3098917.8514296v22.9885991h-1.8010535Z"/>
      <path class="cls-2" d="m231.5743936,54.9917444c2.2268159,1.3098917,6.1236961,1.9975848,11.6907358,1.9975848,1.9321378,0,4.5519211-.0982419,7.8593501-.3274729-.4584621.556704-.8186348,1.2116498-1.0806131,1.9648375h-6.9097262c-5.7635234,0-9.8568874-.785935-12.3129819-2.3905523-1.5391703-1.0479133-2.6524831-2.6197834-3.3730186-4.813852-.4911619,3.0454982-1.4735806,5.6980288-3.0127509,7.957592l-.6549458-.3929675c1.5391703-3.2092346,2.3251053-7.4991299,2.357805-12.9024331,1.8011486.1964838,2.7180728.4912094,2.7180728.9169242,0,.1964838-.3929675.4257148-1.1134079.6221986-.0327948.9169242-.0654946,1.6046173-.0981943,2.0630794.458367,1.6046173,1.244302,2.914509,2.3250102,3.9951696v-9.6277039h-5.2067719l-.2619783-.7204404h5.4687503v-4.4208844h-4.2898477l-.327568-.7531877h4.6174157v-4.9775884c1.8666432.0327473,2.7835674.229231,2.7835674.6549458,0,.229231-.3929675.4912094-1.1789025.8186823v3.5039603h1.7682587l1.2444922-1.8338484c.5893562.6221986,1.1461077,1.2771444,1.6372696,1.9975848l-.3601727.5894513h-4.2898477v4.4208844h2.357805l1.244302-1.8993429c.7205355.7204404,1.2444922,1.3753863,1.6701594,2.0303321l-.3274729.5894513h-4.9447936v4.4536317h1.6045698l1.3098917-1.8011011c.5566564.5894513,1.1134079,1.2443971,1.6701594,1.9320902l-.327568.5894513h-4.2570529v5.7635234Zm15.7514-14.0158411c1.5391703.6221986,2.2923105,1.1134079,2.2923105,1.4736281,0,.2619783-.3601727.3929675-1.1461077.4584621-.5895463,1.7356065-1.4736757,3.5694548-2.6197834,5.4687978.4911619,1.2771444,1.1461077,2.4232996,1.8992479,3.471213.2292786.3274729.3929675.5239567.5239567.5239567.3602677,0,.785935-1.342639,1.3098917-4.0279169l.7532352.4584621c-.3274729,2.0303321-.4912569,3.3729711-.4912569,3.9624224s.163784,1.0151661.5567515,1.3098917c-.2291835.6876931-.5894513,1.0151661-1.1461077,1.0151661-1.3754813,0-2.8163622-1.7028592-4.3554374-5.043083-1.5390752,2.2268159-3.5367076,4.1261588-5.8617178,5.6325343l-.4257623-.556704c2.0958267-1.8011011,3.9624699-4.0279169,5.5997394-6.614953-1.0806131-2.7835198-1.735559-5.7962707-2.0302371-9.1037472h-3.2747292v10.7738591l.1309892-.0654946c1.3098917-.5894513,2.4887942-1.1789025,3.5367076-1.8011011l.2291835.6549458c-2.194021,1.6373646-4.3226426,2.914509-6.3856744,3.8641805-.0655896.8186823-.1965788,1.1789025-.4257623,1.1789025-.3601727,0-.8514296-.7204404-1.4408809-2.2268159,1.6046648-.556704,2.4887942-.8514296,2.7179777-.9496715v-13.000675c.327568.0982419.9825138.3929675,1.9976324.8186823h2.8489669c-.1309892-1.5063754-.1963887-3.4384657-.2291835-5.7307761,1.7683538.0654946,2.6525782.2947256,2.6525782.6876931,0,.2619783-.2947732.5239567-.9825138.785935.0327948,2.0630794.0982894,3.4384657.1309892,4.1916534h4.420932l1.0479133-1.57187c.5566564.5239567,1.0152136,1.0806606,1.4735806,1.6701119l-.3273779.6221986h-6.5494584c.2291835,2.914509.7203454,5.4033032,1.408086,7.4336353.8514296-1.6701119,1.57187-3.5694548,2.1613213-5.7635234Zm-1.9975373-7.2371516c1.8338484.9169242,2.7507725,1.9320902,2.7507725,2.9800036,0,.6876931-.327568,1.0151661-.9825138,1.0151661-.4911619,0-.785935-.3602202-.8513345-1.0479133-.1309892-.9496715-.5895463-1.7683538-1.3426865-2.4887942l.4257623-.4584621Z"/>
      <path class="cls-5" d="m258.0967535,59.2488924v-1.2771444h5.9601022v-19.9431009h1.3098917v21.2202453h-7.2699939Z"/>
    </g>
    <path class="cls-5" d="m275.271613,53.071106c.090332.7000732.1352539,1.2420654.1352539,1.6259766,0,1.0839844-.1352539,1.9195557-.4287109,2.5067139-.2036133.3839111-.4521484.5871582-.7226562.5871582-.4067383,0-.6098633-.1806641-.6098633-.5645752,0-.112915.0678711-.2935791.2255859-.5645752.6098633-.9484863.9262695-2.1002197.9262695-3.3874512,0-.090332,0-.1580811-.0229492-.2484131l.4970703.045166Zm3.8618164-2.3486328h1.2871094l.8129883-.9710693c.7451172.6323242,1.1289062,1.0162354,1.1289062,1.1968994,0,.045166-.0449219.090332-.112793.1806641l-.4970703.3613281c-.0224609,3.6132812-.3383789,5.803833-.9257812,6.5490723-.3613281.4742432-.9482422.7000732-1.7612305.7000732-.0229492-.4064941-.2485352-.6549072-.6777344-.8129883-.203125-.067749-.7226562-.1580811-1.5356445-.2709961v-.5194092c.8129883.067749,1.5356445.112915,2.1904297.112915.6552734,0,1.0166016-.2484131,1.1293945-.7678223.293457-1.1517334.4291992-2.913208.4516602-5.2618408h-4.5615234v.8807373h-1.1518555v-10.8172607c.3837891.135498.8129883.3387451,1.3325195.6097412h4.3129883l.9033203-1.1291504c.5195312.4742432.9033203.8807373,1.1293945,1.2194824l-.203125.4064941h-3.2519531v2.2808838h.9033203l.8354492-1.0839844c.3613281.3613281.699707.7678223,1.0610352,1.2420654l-.203125.3613281h-2.5966797v2.4389648h.9033203l.8579102-1.1065674c.3837891.4290771.7451172.8581543,1.0839844,1.2646484l-.2485352.3387451h-2.5966797v2.5970459Zm-2.8457031,2.2357178c.5195312,1.0839844.7675781,2.0324707.7675781,2.77771,0,.6774902-.203125,1.0162354-.6318359,1.0162354-.2939453,0-.4291992-.135498-.4291992-.4516602,0,0,0-.067749.0224609-.135498,0-.090332.0224609-.1580811.0224609-.2258301.0229492-.3387451.0454102-.6774902.0454102-.9936523,0-.5645752-.0678711-1.1743164-.2260742-1.8518066l.4291992-.135498Zm-.2255859-8.2879639h1.9643555v-2.2808838h-1.9643555v2.2808838Zm1.9643555.5194092h-1.9643555v2.4389648h1.9643555v-2.4389648Zm0,5.5328369v-2.5970459h-1.9643555v2.5970459h1.9643555Zm-.5644531,1.8969727c.8129883,1.0614014,1.1967773,2.0098877,1.1967773,2.845459,0,.4516602-.1806641.6774902-.5644531.6774902-.1806641,0-.3388672-.090332-.3837891-.2484131,0-.022583-.0224609-.2709961-.0454102-.7678223-.0224609-.7904053-.2255859-1.5808105-.6323242-2.3260498l.4291992-.1806641Zm1.1293945-.4290771c.9707031.8129883,1.4677734,1.6259766,1.4677734,2.3937988,0,.4290771-.1582031.6323242-.4970703.6323242-.2480469,0-.40625-.2258301-.4287109-.6323242-.0678711-.7452393-.3613281-1.4678955-.8583984-2.1679688l.3164062-.2258301Zm11.2910156-9.9816895l.7905273-.9936523c.7905273.6774902,1.1743164,1.0839844,1.1743164,1.2646484,0,.090332-.0673828.1806641-.1806641.2709961l-.496582.3161621v6.8200684h-1.1518555v-1.2646484h-2.3486328c.0224609.2484131.0678711.4742432.112793.7452393.4970703,3.2067871,2.0776367,5.826416,4.6972656,7.8363037-.4516602.3161621-.8354492.7000732-1.1518555,1.1968994-2.4384766-2.4163818-3.8613281-5.668335-4.2680664-9.7784424h-2.2358398c-.0224609,4.6972656-1.0161133,8.0847168-2.9804688,10.1623535l-.4291992-.3387451c1.4902344-2.2131348,2.2128906-5.5102539,2.2128906-9.9591064v-6.9781494c.6323242.2935791,1.0839844.5419922,1.3774414.7000732h4.8779297Zm-5.0585938.5194092v5.3747559h5.1943359v-5.3747559h-5.1943359Z"/>
    <g>
      <path class="cls-5" d="m323.2144841,16.6487122v-2.625061h-4.2260742l-.144043-.3681641h10.996582l.800293-.9924011.1601562.1440735c.3041992.2880859.5922852.5762329.8642578.9123535l-.144043.3041382h-4.7700195v2.625061h2.8173828l.5761719-.7042847c.6083984.4961853.9121094.800293.9121094.9283447,0,.0640259-.0478516.1120605-.1279297.1760864l-.3842773.2401123v7.9231873h-.8320312v-1.2164917h-8.9956055v1.2164917h-.8486328v-8.995636c.2724609.1120605.5922852.2561035.9765625.4321899h2.3691406Zm-2.4970703.3521118v6.6427002h8.9956055v-6.6427002h-2.9614258v3.2173157c0,.2881165.2241211.4321594.6884766.4321594.3999023,0,.65625-.1600342.7363281-.4641724.1118164-.4321899.1757812-1.056427.2397461-1.8567505l.3842773.1280518c0,.8483276.0483398,1.4245605.1279297,1.6966858.0644531.2400818.2241211.3521423.4482422.3521423-.015625.4481812-.1757812.6882935-.4960938.7683105-.2558594.0640259-.6879883.1120605-1.3925781.1120605-.5761719,0-.9765625-.0640259-1.2001953-.1600952-.2402344-.11203-.3681641-.4001465-.3681641-.8323364v-3.3933716h-1.8569336c-.0478516,2.3369751-.9765625,4.0656738-2.7529297,5.170105l-.2402344-.3201294c1.3603516-1.0724487,1.9526367-2.6410522,2.1289062-4.6898804l.0161133-.1600952h-2.4970703Zm5.2021484-.3521118v-2.625061h-1.8569336v2.625061h1.8569336Z"/>
      <path class="cls-5" d="m343.5518865,16.5046387c.2080078,2.5450134.7524414,4.5778503,1.6967773,6.0664368.4960938.7683105.8325195,1.1524658,1.0244141,1.1524658.2402344,0,.4643555-.9123535.6723633-2.769104l.3842773.1760864c-.0961914,1.0244141-.128418,1.7606812-.128418,2.224884,0,.7362976.1601562,1.1684875.4643555,1.2805176-.0961914.4481812-.2880859.6562805-.6083984.6562805-.5600586,0-1.2485352-.4802246-2.0004883-1.456604-1.2485352-1.5846558-2.0327148-4.0176392-2.3691406-7.2509155h-7.6669922l-.1601562-.3681641h7.7954102c-.0644531-.7843018-.128418-2.0488281-.1445312-3.7935181.9604492.0480042,1.4248047.1760559,1.4248047.3681335,0,.11203-.1762695.2240906-.5444336.3521423.0161133,1.3765564.0644531,2.3849487.1123047,3.0092163h2.4648438l.6723633-.9123535.3681641.3841553c.1918945.1760559.3681641.3841553.5283203.6082153l-.144043.2721252h-3.8417969Zm-3.6010742,6.6266785c.9760742-.1760864,2.0488281-.4161682,3.2172852-.6882935v.4481812l-.7363281.2241211c-2.3369141.6722412-4.4658203,1.1844482-6.4345703,1.5526123-.0644531.3681641-.144043.5602417-.2724609.5602417-.1757812,0-.4321289-.4481812-.7041016-1.3605652,1.0561523-.1280518,1.5844727-.1920776,1.6005859-.1920776v-5.2661438c.9282227.0800476,1.3925781.2080994,1.3925781.3841553,0,.1120605-.1918945.2241211-.5761719.3521729v4.4177856c.7841797-.1280518,1.3442383-.2080994,1.7124023-.288147v-6.1464844c.8803711.0800476,1.3286133.2080994,1.3286133.3841553,0,.1280518-.1601562.2401123-.527832.3521729v1.9367676h1.2324219l.671875-.9924011c.3041992.3361511.5444336.6402588.7207031.9283752l.0957031.1600647-.144043.2561035h-2.5766602v2.9772034Zm.1279297-9.107666l.6879883-.912384c.3364258.3361511.6245117.6562805.8964844,1.0244141l-.1762695.2400818h-5.2338867l-.144043-.3521118h3.9697266Zm4.3217773-.9284058c1.2485352.4321899,1.8408203.9603882,1.8408203,1.5846558,0,.3681641-.1601562.5281982-.496582.5281982-.2397461,0-.3837891-.1280518-.4638672-.3681335-.1762695-.6082458-.512207-1.1044617-1.0566406-1.5046082l.1762695-.2401123Z"/>
      <path class="cls-5" d="m353.7896794,21.5306702c-.7524414,1.1364746-1.7285156,2.1288452-2.9453125,2.9772034l-.2558594-.2881165c1.4086914-1.2005005,2.4487305-2.5290222,3.1049805-4.0016174h-2.5927734l-.144043-.3681335h2.8330078v-1.6967163c.8964844.0480347,1.3603516.1600952,1.3603516.3201294,0,.0960693-.1918945.2080994-.5600586.3361511v1.0404358h1.456543l.6083984-.800354c.3203125.3361511.5922852.6242676.800293.912384l-.1601562.2561035h-2.7050781v.5762329c1.6166992.5922546,2.4169922,1.20047,2.4169922,1.8887634,0,.3201294-.144043.4801941-.4321289.4801941-.144043,0-.2880859-.11203-.4321289-.3521423-.3681641-.5922241-.8642578-1.1364746-1.5527344-1.5846558v4.1616821h-.800293v-3.8575439Zm.7841797-4.0016174c.3681641-.8483582.640625-1.712677.8486328-2.5930481.800293.2881165,1.2001953.5281982,1.2001953.7042847,0,.1120605-.1757812.1760864-.5761719.1920776-.2080078.4481812-.5761719,1.0084229-1.0405273,1.6966858h1.3769531l.5922852-.8323364c.2880859.3041077.527832.6082458.7358398.912384l-.159668.2880859h-6.6269531l-.144043-.3681335h3.793457Zm-.7841797-3.0892639v-1.9687805c.9125977.0320129,1.3764648.1600647,1.3764648.3521423,0,.1120605-.1918945.2401123-.5761719.3681641v1.2484741h1.456543l.5761719-.8643188c.2880859.2720947.5283203.5441895.7045898.800293l.1118164.1440735-.1757812.2721252h-5.9868164l-.159668-.3521729h2.6728516Zm-1.7285156.5442505c.9921875.5922241,1.5043945,1.2324829,1.5043945,1.8727417,0,.3681641-.1762695.5281982-.512207.5281982-.2241211,0-.3520508-.1600342-.3842773-.512207-.0478516-.5281982-.3041992-1.0884399-.815918-1.6646729l.2080078-.2240601Zm6.8505859,2.9931946v.2400818c0,1.5206299-.144043,2.8171387-.4321289,3.8735962-.3520508,1.2644958-.9765625,2.3369141-1.8725586,3.2492981l-.2885742-.2400818c.7685547-1.1044617,1.2807617-2.3689575,1.5209961-3.7775269.1601562-.9924316.2397461-2.1448975.2397461-3.4734192v-4.0976562c.3842773.1280518.6884766.2721252.9448242.3841553,1.1362305-.3521423,2.0805664-.8163147,2.8808594-1.4405823.6401367.4161682.9765625.7202759.9765625.8803711,0,.0960083-.0800781.144043-.2563477.144043-.1279297,0-.2558594-.0159912-.4160156-.0640259-.9604492.3521423-2.0327148.65625-3.2973633.8803711v3.0892334h3.2651367l.6723633-.944397c.3681641.3201294.6723633.6562805.9125977.9924316l-.144043.3041077h-1.953125v7.2349243h-.8320312v-7.2349243h-1.9208984Z"/>
      <path class="cls-5" d="m370.3819646,18.8575745c0,.1280518-.1918945.2401123-.5600586.3521729v6.1784668h-.8164062v-5.8583374c-.6083984.8163147-1.296875,1.5366211-2.0327148,2.1768799l-.2724609-.2721252c1.5849609-1.6486511,2.7373047-3.7615051,3.5375977-6.2745361.8642578.2080994,1.2963867.4321594,1.2963867.6242371,0,.1440735-.2241211.2401123-.65625.288147-.3041992.7522888-.7202148,1.5686035-1.2163086,2.4329834.4799805.0640259.7202148.1760559.7202148.3521118Zm2.4169922-4.5618286v-1.8887634c.9765625.0160217,1.456543.1280518,1.456543.3521423,0,.1280518-.2080078.2561035-.6401367.4161682v1.1204529h4.4658203l.5600586-.7042847c.7363281.6882935,1.1044922,1.1364746,1.1044922,1.3285522,0,.0800171-.0639648.1280518-.1918945.144043l-.5605469.0800171c-.3520508.3041382-.7680664.5922546-1.2001953.8483582l-.2402344-.2240906c.2402344-.3841553.4482422-.7362976.5761719-1.1204529h-9.4755859v.11203c0,.7363281-.144043,1.3285522-.4165039,1.8087463-.1918945.3201294-.3837891.4801941-.6401367.4801941-.1118164,0-.2563477-.0640259-.3842773-.1600647-.1118164-.0960388-.1757812-.2400818-.1757812-.3841553s.0800781-.2881165.2241211-.4321594c.5761719-.5762329.8803711-1.3445435.9282227-2.3529663l.3681641.0480347.0800781.5281982h4.1616211Zm1.3764648,4.5778503c.144043-.7042847.2402344-1.3605652.2880859-1.9367981h-3.2973633l-.1601562-.3681335h6.8349609l.6723633-.7843323c.3681641.288147.6723633.5922546.9282227.8963623l-.1601562.2561035h-3.6494141c-.3198242.7363281-.6723633,1.3925781-1.0244141,1.9367981h2.7050781l.5283203-.6402588c.5761719.4321594.8642578.7203064.8642578.8483582,0,.0640259-.0317383.1280518-.1279297.1760559l-.3359375.2240906v5.9063721h-.8486328v-.9283447h-4.5458984v.9283447h-.8481445v-6.9627991c.2402344.0960388.5600586.2400818.9604492.4481812h1.2163086Zm-1.3286133.3681335v2.1608887h4.5458984v-2.1608887h-4.5458984Zm4.5458984,4.8659668v-2.3369141h-4.5458984v2.3369141h4.5458984Z"/>
      <path class="cls-5" d="m382.6202458,24.25177c.4165039-1.1044617.65625-2.4169617.7524414-3.9856262.8481445.1600952,1.2646484.3361511,1.2646484.512207,0,.0960693-.144043.1920776-.4482422.2561035-.2719727,1.4085693-.6884766,2.5290527-1.2646484,3.3773804l-.3041992-.1600647Zm4.2416992-10.1321106c.7207031.3201294,1.0727539.5762329,1.0727539.800354,0,.1280518-.1923828.1760559-.5922852.1760559-.7202148,1.1204529-1.6166992,2.224884-2.7211914,3.3613586.9604492-.0800171,1.6967773-.1280518,2.2568359-.1920776-.1118164-.2881165-.3198242-.6242676-.65625-1.056427l.2241211-.2400818c1.0244141.7683105,1.5527344,1.4885864,1.5527344,2.1768799,0,.3681335-.1601562.5441895-.4804688.5441895-.2080078,0-.3359375-.1600342-.3681641-.5281982-.015625-.1600647-.0639648-.3361206-.1279297-.512207-.3681641.0800171-.7680664.1600647-1.2163086.2561035v6.482605h-.800293v-6.338562c-.3842773.0640259-.8964844.1440735-1.5527344.2080994-.0961914.3201294-.1918945.4801941-.2880859.4801941-.144043,0-.3203125-.4161682-.4960938-1.2164917.4960938-.0159912.9760742-.0320129,1.4243164-.0480347,1.1206055-1.4565735,2.0488281-2.913147,2.769043-4.3537598Zm-1.6166992-1.8407288c.7685547.2881165,1.152832.5282288,1.152832.7042847,0,.11203-.1762695.1920776-.5283203.2080994-.4321289.6882629-.9125977,1.3605347-1.456543,2.0167847.4960938.4321899.7524414.8483582.7524414,1.1845093,0,.3361206-.1601562.512207-.4643555.512207-.2080078,0-.3520508-.1600952-.4643555-.4962158-.2241211-.6242676-.6723633-1.2005005-1.3125-1.7446899l.1762695-.2561035c.3520508.1600342.6879883.3521118,1.0083008.5602112.3842773-.6562805.7524414-1.568634,1.1362305-2.6890869Zm1.2167969,7.8111572c.8803711.912384,1.3286133,1.7767029,1.3286133,2.5930481,0,.4001465-.1601562.5922241-.4804688.5922241-.2558594,0-.3681641-.1920776-.3999023-.5922241-.0322266-.8003235-.2724609-1.600647-.7045898-2.4329834l.2563477-.1600647Zm3.2973633-.0480042l.512207-.6402588c.5600586.512207.8481445.8323364.8481445.9443665,0,.0800476-.0639648.1280518-.144043.1760559l-.3359375.1600952c-.5922852,1.8407288-1.6645508,3.1852722-3.2333984,4.0816345l-.2241211-.2881165c1.2802734-.9924011,2.1450195-2.3529663,2.6572266-4.081665h-2.0332031l-.1279297-.3521118h2.0810547Zm1.6967773-1.6646729h-1.8730469v.65625h-.8164062v-5.1220703c.3364258.144043.640625.2881165.9125977.4321899h1.2001953c.1762695-.5602417.2885742-1.1845093.3681641-1.8727722.9287109.1280518,1.3925781.2881165,1.3925781.4801941,0,.0960388-.1918945.2080688-.5761719.2881165-.2880859.4961853-.5283203.8643494-.7202148,1.1044617h2.3852539l.527832-.6562805c.5761719.4481812.8647461.7522888.8647461.8803406,0,.0640259-.0322266.1440735-.1445312.1920776l-.3359375.2080994v4.0496521h-.800293v-.6402588h-1.5688477c.2084961,1.0083923.5922852,1.9367676,1.1367188,2.8011169.4799805-.54422.9604492-1.2325134,1.4243164-2.0808411.6245117.4321899.9287109.7202759.9287109.9123535,0,.1120605-.0961914.1760864-.3041992.1760864-.0639648,0-.144043-.0159912-.2402344-.0480347-.3681641.400177-.8964844.8483582-1.5844727,1.3605652.6401367.912384,1.456543,1.6806946,2.4648438,2.3369446-.3041992.2080688-.5761719.4801941-.7680664.8003235-1.5688477-1.3125305-2.5932617-2.9931946-3.0732422-5.0740662v4.6419067c0,.7362671-.4482422,1.0884399-1.3447266,1.0724182-.0161133-.2881165-.1601562-.4961853-.4321289-.5922546-.1279297-.0480042-.4960938-.1280518-1.0405273-.2561035v-.3681335c.5922852.0800476,1.1044922.11203,1.5527344.11203.3041992,0,.4643555-.144043.4643555-.4161377v-5.3781738Zm2.3847656-2.2569275v-1.4085693h-4.2578125v1.4085693h4.2578125Zm0,1.9047546v-1.5366211h-4.2578125v1.5366211h4.2578125Z"/>
    </g>
    <g>
      <path class="cls-5" d="m328.7049544,32.9855641v1.2771444h-5.9599121v19.9431009h-1.3098917v-21.2202453h7.2698038Z"/>
      <path class="cls-6" d="m349.922348,40.9759034v11.4615523h2.685373l1.5390752-1.9975848c.6877407.6549458,1.3426865,1.342639,1.9648375,2.0958267l-.3274729.6221986h-5.8618128v6.2874801h-1.8010535v-6.2874801h-5.3050613l-.2619783-.7204404h5.5670397v-10.2171552c-2.8817617,5.829018-6.8442316,10.2499025-11.8872195,13.3608952l-.4912569-.5894513c5.0102882-3.7331913,8.7435745-8.6452851,11.2323687-14.6380396h-10.0207665l-.2619783-.7531877h11.4288525v-6.1564909c2.0630319.0982419,3.0782455.3602202,3.0782455.785935,0,.2619783-.4256673.556704-1.2771919.8841769v4.486379h8.0559289l1.6700644-2.1940686c.9824188.9496715,1.6700644,1.7683538,2.0303321,2.3250577l-.3274729.6221986h-10.872101c2.7507725,5.0103357,6.8769314,9.1364945,12.3784764,12.3457292-.6222461.4912094-1.1462028,1.0806606-1.5063754,1.7028592-5.0103832-3.5367076-8.67808-7.957592-11.2650685-13.1316642l-.163784-.2947256Z"/>
      <path class="cls-7" d="m368.5527531,58.9214195c2.4559994-3.2092346,3.7004915-8.0885812,3.7004915-14.572545v-9.8569349c2.0302371,0,3.0127509.2619783,3.0127509.7204404,0,.229231-.3602677.5239567-1.1789025.8514296v8.186823c0,7.0406678-1.6374597,12.1164981-4.9448886,15.1947436l-.5894513-.5239567Zm12.5421654-3.1109928v-19.7466172c1.9648375.0982419,2.9473514.3602202,2.9473514.785935,0,.2619783-.4257623.556704-1.2116973.8514296v18.1092526h-1.735654Zm9.1692418,2.8490144v-24.6914583c2.0958267.0982419,3.1110403.3929675,3.1110403.8514296,0,.2947256-.4256673.556704-1.3098917.8514296v22.9885991h-1.8011486Z"/>
      <path class="cls-3" d="m408.5997921,54.9917444c2.2268159,1.3098917,6.1237912,1.9975848,11.6908308,1.9975848,1.9320427,0,4.5518261-.0982419,7.8593501-.3274729-.4584621.556704-.8187298,1.2116498-1.0807082,1.9648375h-6.9096311c-5.7635234,0-9.8569825-.785935-12.3129819-2.3905523-1.5390752-1.0479133-2.6525782-2.6197834-3.3729236-4.813852-.4912569,3.0454982-1.4736757,5.6980288-3.0127509,7.957592l-.6549458-.3929675c1.5390752-3.2092346,2.3250102-7.4991299,2.357805-12.9024331,1.8010535.1964838,2.7179777.4912094,2.7179777.9169242,0,.1964838-.3929675.4257148-1.1134079.6221986-.0326998.9169242-.0654946,1.6046173-.0982894,2.0630794.4585571,1.6046173,1.2444922,2.914509,2.3251053,3.9951696v-9.6277039h-5.206867l-.2619783-.7204404h5.4688453v-4.4208844h-4.2899428l-.3273779-.7531877h4.6173207v-4.9775884c1.8665481.0327473,2.7834723.229231,2.7834723.6549458,0,.229231-.3929675.4912094-1.1789025.8186823v3.5039603h1.7684488l1.244302-1.8338484c.5895463.6221986,1.1462028,1.2771444,1.6374597,1.9975848l-.3602677.5894513h-4.2899428v4.4208844h2.357805l1.2444922-1.8993429c.7203454.7204404,1.244302,1.3753863,1.6700644,2.0303321l-.3274729.5894513h-4.9448886v4.4536317h1.6046648l1.3098917-1.8011011c.5567515.5894513,1.1134079,1.2443971,1.6700644,1.9320902l-.3273779.5894513h-4.257243v5.7635234Zm15.7514951-14.0158411c1.5390752.6221986,2.2923105,1.1134079,2.2923105,1.4736281,0,.2619783-.3602677.3929675-1.1462028.4584621-.5893562,1.7356065-1.4735806,3.5694548-2.6197834,5.4687978.4912569,1.2771444,1.1462028,2.4232996,1.899438,3.471213.2291835.3274729.3929675.5239567.5239567.5239567.3601727,0,.785935-1.342639,1.3098917-4.0279169l.7531402.4584621c-.3274729,2.0303321-.4911619,3.3729711-.4911619,3.9624224s.1636889,1.0151661.5566564,1.3098917c-.2292786.6876931-.5894513,1.0151661-1.1462028,1.0151661-1.3752912,0-2.8161721-1.7028592-4.3553423-5.043083-1.5391703,2.2268159-3.5367076,4.1261588-5.8618128,5.6325343l-.4256673-.556704c2.0958267-1.8011011,3.9623748-4.0279169,5.5998345-6.614953-1.0807082-2.7835198-1.735654-5.7962707-2.0304272-9.1037472h-3.2747292v10.7738591l.1309892-.0654946c1.3098917-.5894513,2.4887942-1.1789025,3.5367076-1.8011011l.2292786.6549458c-2.1941161,1.6373646-4.3226426,2.914509-6.3857695,3.8641805-.0653995.8186823-.1963887,1.1789025-.4256673,1.1789025-.3602677,0-.8514296-.7204404-1.4408809-2.2268159,1.6045698-.556704,2.4887942-.8514296,2.7180728-.9496715v-13.000675c.3273779.0982419.9823237.3929675,1.9975373.8186823h2.8490619c-.1309892-1.5063754-.1965788-3.4384657-.2292786-5.7307761,1.7683538.0654946,2.6524831.2947256,2.6524831.6876931,0,.2619783-.2946781.5239567-.9823237.785935.0326998,2.0630794.0981943,3.4384657.1309892,4.1916534h4.4208369l1.0479133-1.57187c.5567515.5239567,1.0151185,1.0806606,1.4736757,1.6701119l-.327568.6221986h-6.5494584c.2292786,2.914509.7205355,5.4033032,1.4081811,7.4336353.8514296-1.6701119,1.57187-3.5694548,2.1613213-5.7635234Zm-1.9976324-7.2371516c1.8338484.9169242,2.7507725,1.9320902,2.7507725,2.9800036,0,.6876931-.3273779,1.0151661-.9823237,1.0151661-.4912569,0-.785935-.3602202-.8515247-1.0479133-.1309892-.9496715-.5893562-1.7683538-1.3425915-2.4887942l.4256673-.4584621Z"/>
      <path class="cls-5" d="m435.1223422,59.2488924v-1.2771444h5.9599121v-19.9431009h1.3098917v21.2202453h-7.2698038Z"/>
    </g>
    <path class="cls-5" d="m454.2120427,53.071106c.090332.7000732.1352539,1.2420654.1352539,1.6259766,0,1.0839844-.1352539,1.9195557-.4287109,2.5067139-.2036133.3839111-.4521484.5871582-.7226562.5871582-.4067383,0-.6098633-.1806641-.6098633-.5645752,0-.112915.0678711-.2935791.2255859-.5645752.6098633-.9484863.9262695-2.1002197.9262695-3.3874512,0-.090332,0-.1580811-.0229492-.2484131l.4970703.045166Zm3.8618164-2.3486328h1.2871094l.8129883-.9710693c.7451172.6323242,1.1289062,1.0162354,1.1289062,1.1968994,0,.045166-.0449219.090332-.112793.1806641l-.4970703.3613281c-.0224609,3.6132812-.3383789,5.803833-.9257812,6.5490723-.3613281.4742432-.9482422.7000732-1.7612305.7000732-.0229492-.4064941-.2485352-.6549072-.6777344-.8129883-.203125-.067749-.7226562-.1580811-1.5356445-.2709961v-.5194092c.8129883.067749,1.5356445.112915,2.1904297.112915.6552734,0,1.0166016-.2484131,1.1293945-.7678223.293457-1.1517334.4291992-2.913208.4516602-5.2618408h-4.5615234v.8807373h-1.1518555v-10.8172607c.3837891.135498.8129883.3387451,1.3325195.6097412h4.3129883l.9033203-1.1291504c.5195312.4742432.9033203.8807373,1.1293945,1.2194824l-.203125.4064941h-3.2519531v2.2808838h.9033203l.8354492-1.0839844c.3613281.3613281.699707.7678223,1.0610352,1.2420654l-.203125.3613281h-2.5966797v2.4389648h.9033203l.8579102-1.1065674c.3837891.4290771.7451172.8581543,1.0839844,1.2646484l-.2485352.3387451h-2.5966797v2.5970459Zm-2.8457031,2.2357178c.5195312,1.0839844.7675781,2.0324707.7675781,2.77771,0,.6774902-.203125,1.0162354-.6318359,1.0162354-.2939453,0-.4291992-.135498-.4291992-.4516602,0,0,0-.067749.0224609-.135498,0-.090332.0224609-.1580811.0224609-.2258301.0229492-.3387451.0454102-.6774902.0454102-.9936523,0-.5645752-.0678711-1.1743164-.2260742-1.8518066l.4291992-.135498Zm-.2255859-8.2879639h1.9643555v-2.2808838h-1.9643555v2.2808838Zm1.9643555.5194092h-1.9643555v2.4389648h1.9643555v-2.4389648Zm0,5.5328369v-2.5970459h-1.9643555v2.5970459h1.9643555Zm-.5644531,1.8969727c.8129883,1.0614014,1.1967773,2.0098877,1.1967773,2.845459,0,.4516602-.1806641.6774902-.5644531.6774902-.1806641,0-.3388672-.090332-.3837891-.2484131,0-.022583-.0224609-.2709961-.0454102-.7678223-.0224609-.7904053-.2255859-1.5808105-.6323242-2.3260498l.4291992-.1806641Zm1.1293945-.4290771c.9707031.8129883,1.4677734,1.6259766,1.4677734,2.3937988,0,.4290771-.1582031.6323242-.4970703.6323242-.2480469,0-.40625-.2258301-.4287109-.6323242-.0678711-.7452393-.3613281-1.4678955-.8583984-2.1679688l.3164062-.2258301Zm11.2910156-9.9816895l.7905273-.9936523c.7905273.6774902,1.1743164,1.0839844,1.1743164,1.2646484,0,.090332-.0673828.1806641-.1806641.2709961l-.496582.3161621v6.8200684h-1.1518555v-1.2646484h-2.3486328c.0224609.2484131.0678711.4742432.112793.7452393.4970703,3.2067871,2.0776367,5.826416,4.6972656,7.8363037-.4516602.3161621-.8354492.7000732-1.1518555,1.1968994-2.4384766-2.4163818-3.8613281-5.668335-4.2680664-9.7784424h-2.2358398c-.0224609,4.6972656-1.0161133,8.0847168-2.9804688,10.1623535l-.4291992-.3387451c1.4902344-2.2131348,2.2128906-5.5102539,2.2128906-9.9591064v-6.9781494c.6323242.2935791,1.0839844.5419922,1.3774414.7000732h4.8779297Zm-5.0585938.5194092v5.3747559h5.1943359v-5.3747559h-5.1943359Z"/>
    <path class="cls-5" d="m310.5318669,55.56073c.6689453,0,1.2124023-.5644226,1.5888672-1.6723633l.3764648.22995c-.4389648,1.6723633-1.1918945,2.5294495-2.2578125,2.5294495-.6899414,0-1.6098633-.501709-2.7382812-1.4424133-1.0664062.9407043-2.425293,1.4424133-4.034668,1.4424133-1.0874023,0-2.0488281-.271759-2.8432617-.773468-1.1494141-.7316589-1.7348633-1.776886-1.7348633-3.1356812,0-1.6932678,1.1289062-3.0311584,3.3862305-4.055481-.5644531-1.1079407-.8569336-2.1531677-.8569336-3.1147766,0-1.275177.5854492-2.1322632,1.7558594-2.5294495.2929688-.1045227.6274414-.1463318,1.0244141-.1672363.4599609.0209045.8364258.0836182,1.1499023.1881409.9824219.3553772,1.5048828,1.0661316,1.5048828,2.1531677,0,1.3796997-1.0869141,2.5921631-3.2192383,3.5955811,1.1708984,1.9232178,2.5922852,3.6164856,4.2226562,5.100708.9829102-1.1915588,1.4633789-2.3622131,1.4633789-3.5328674,0-.7525635-.6689453-1.1497498-2.0693359-1.2124634v-.4180908h4.7036133v.4180908c-.7529297.0836182-1.2543945.3135681-1.5263672.7107544-.1879883.2508545-.3549805.6480408-.5014648,1.1497498-.3554688,1.3169861-.8989258,2.4040222-1.5888672,3.3029175.9824219.8361816,1.7143555,1.2333679,2.1948242,1.2333679Zm-10.2641602-2.8639221c0,.8361816.3554688,1.546936,1.0664062,2.1322632.7524414.6271362,1.6723633.9407043,2.7592773.9407043,1.0664062,0,2.0488281-.3344727,2.9267578-.9825134-1.7353516-1.6096497-3.1982422-3.4492493-4.4316406-5.5187988-1.5473633.7943726-2.3208008,1.9232178-2.3208008,3.4283447Zm5.3935547-7.4838257c0-1.1288452-.5014648-1.7559814-1.5048828-1.7350769-1.1499023,0-1.7143555.7107544-1.7143555,1.9650269,0,.8361816.2719727,1.7350769.8359375,2.7593994,1.5888672-.8570862,2.3833008-1.8605042,2.3833008-2.9893494Z"/>
    <g>
      <path class="cls-5" d="m490.3717107,56.704895c-.4160156.3426514-1.1259766-.1223755-1.6401367-.3916016-.5136719-.2692261-1.4194336-.7342529-2.4472656-1.1013794-.4404297-.1713257-.8813477-.3181763-1.2973633-.4405518.0493164.5629272.0244141,1.2237549-.269043,1.6643066-.3671875.5874023-.8813477.9545288-1.5175781,1.1013794s-1.3706055.1958008-2.2270508.1468506c-.8569336-.0244751-1.6401367-.3426514-2.3251953-.6853027-.6855469-.3671265-1.1259766-1.1013794-1.1992188-1.6398315-.0737305-.5874023.1469727-1.1992798.7587891-1.6398315.6362305-.4405518,1.737793-.758728,2.6918945-.7832031.8325195-.0244751,1.8115234.0734253,2.6923828.1958008,0-.1468506,0-.3181763-.0244141-.4405518-.0244141-.758728-.0976562-1.8601074-.0976562-2.5943604,0-.1223755-.0249023-.244751-.0249023-.3916016-.1220703,0-.1958008.0244751-.3178711,0-.8813477,0-1.8359375-.1223755-2.496582-.244751-.6606445-.1468506-1.5175781-.4650269-2.1782227-.8076782-.2939453-.1468506-.4648438-.489502-.2695312-.6853027.1469727-.1713257.3671875-.1223755.6611328-.0244751.2446289.0979004.4892578.1468506,1.1259766.3181763.6850586.1958008,1.762207.2202759,2.8144531.244751h.6118164c-.0244141-.5384521-.0244141-1.0524292-.0244141-1.3950806s0-.8811035.0244141-1.4195557c-.6606445.1223755-1.4194336.2692261-1.9091797.2937012-.8564453.0244751-1.5908203-.1468506-2.2026367-.3916016-.6118164-.2202759-1.1259766-.4650269-1.5908203-.7342529-.3916016-.244751-.6606445-.6608276-.4892578-.8566284.2202148-.2202759.5380859,0,.8564453.1468506.3427734.1468506.7832031.3426514,1.296875.4650269.5141602.1223755,1.3461914.2202759,2.1542969.1468506.5380859-.0489502,1.2724609-.1468506,1.9086914-.2692261,0-.0489502.0244141-.0979004.0244141-.1468506,0-.7832031-.0732422-1.5419312-.1220703-2.1048584-.0493164-.5874023-.2695312-1.0279541-.5874023-1.3216553-.2939453-.2937012-.4404297-.6363525-.2695312-.8811035.1469727-.2202759.5874023-.2202759,1.1015625.0489502s.9545898.7832031,1.2236328,1.3461304c.2451172.5629272.0488281,1.3950806-.0244141,2.1293335-.0244141.1958008-.0488281.4405518-.0732422.7097778.6850586-.1713257,1.5175781-.4160767,2.03125-.6118774.6362305-.244751,1.2729492-.5629272,1.8110352-.6363525.5141602-.0734253.9790039.0734253,1.3461914.4405518.3671875.3426514.0737305.6853027-.3427734.8566284-.4404297.1713257-1.4926758.3916016-2.3984375.5874023-.8320312.1958008-1.8354492.4160767-2.5454102.5629272-.0244141.244751-.0488281.489502-.0488281.7342529-.0488281.7097778-.0732422,1.5419312-.0981445,2.2272339.3427734-.0244751.6123047-.0489502.9057617-.0734253.5385742-.0489502,1.1992188-.1958008,1.5664062-.3181763.3916016-.1223755.3183594-.3426514.0488281-.5139771-.269043-.1468506-.5629883-.3181763-.8320312-.489502-.3671875-.2202759-.5874023-.489502-.6850586-.6853027-.1225586-.2202759.0488281-.4405518.3671875-.2202759.3666992.2692261.8076172.5384521,1.5415039.7832031.5629883.1958008,1.199707.3426514,1.5664062.3671265.3671875.0244751.6611328.2202759.6367188.5629272-.0249023.3426514-.5141602.6363525-1.003418.8811035-.4897461.2202759-1.5913086.5629272-2.4233398.6853027-.4404297.0734253-1.0766602.1468506-1.6640625.2202759,0,.6608276.0244141,1.4195557.0732422,1.9335327s.1469727,1.1992798.2446289,1.762207c.734375.1713257,1.5175781.3916016,2.2275391.6118774.8808594.2937012,1.8842773.6118774,2.6674805,1.0524292.8325195.4405518,1.1015625,1.3706055.6855469,1.7132568Zm-6.7553711-2.3496094c-.0732422,0-.1464844-.0244751-.2202148-.0489502-.6362305-.1468506-1.4926758-.2202759-2.0805664-.244751-.5625-.0244751-1.0522461,0-1.5908203.0734253-.5625.0979004-1.027832.3426514-1.1503906.8566284-.1220703.4650269.1713867.9790039.6611328,1.2237549.5136719.244751,1.1015625.3916016,1.8354492.3671265.7099609,0,1.3461914-.2202759,1.8603516-.5629272.5136719-.3426514.6118164-.7832031.6606445-1.2727051,0-.1223755.0244141-.244751.0244141-.3916016Z"/>
      <path class="cls-5" d="m495.6871404,45.3484497c-.3183594-.3181763-.5874023-.9055786-.3427734-1.1748047.1958008-.244751.6118164-.0734253.9301758.0489502.3671875.1468506.734375.2692261,1.4438477.244751.734375,0,2.1293945-.4405518,2.9125977-.6853027.7587891-.2202759,2.4477539-.758728,3.9648438-1.1503296,1.46875-.3916016,3.1572266-.8076782,3.9404297-.9300537.7587891-.1223755,1.7626953-.0489502,2.1787109.2202759.3916016.244751.6362305.6853027.4892578.9790039-.1713867.2937012-.4648438.2937012-.8564453.2202759-.3916016-.0489502-.8813477-.1713257-1.46875-.1958008-.5874023,0-1.7128906.1468506-2.7167969.2937012-.0488281,0-.0976562.0244751-.1708984.0244751-.3183594.2692261-.8325195.6363525-1.2485352,1.003479-.5874023.5384521-1.003418,1.003479-1.3706055,1.8356323-.269043.6363525-.3671875,1.5419312-.5136719,2.49646-.1713867.9055786-.2451172,2.4719849-.0737305,3.8670654.0981445.8321533.3916016,1.3950806.9545898,1.8356323.4648438.3916016,1.1992188.5384521,1.9824219.489502.8320312-.0734253,1.3461914-.0244751,1.737793.0489502.3916016.0979004.8076172.4160767,1.003418.7097778s-.0244141.6608276-.5385742.7097778c-.5629883.0489502-1.4194336.0734253-2.3740234,0-.9301758-.0734253-1.8354492-.2937012-2.6430664-.9545288-.6367188-.5139771-.9301758-1.1992798-1.1015625-2.251709-.1713867-1.1013794-.1958008-2.2761841-.0488281-3.5244141.1713867-1.2971802.3916016-2.2027588.5629883-2.9614868.1713867-.7832031.5874023-1.492981,1.0766602-1.9824829.2939453-.2937012.7832031-.7342529,1.1748047-1.003479-.4160156.0979004-.8320312.2202759-1.2724609.3916016-.9057617.3426514-2.3496094.9545288-3.1083984,1.24823-.8076172.2937012-1.6889648.7097778-2.5454102.7832031-.8813477.0979004-1.5664062-.244751-1.9580078-.6363525Zm12.8984375,1.6887817c-.3427734-.3671265-.8076172-.7342529-1.4194336-1.1503296-.1962891-.1468506-.3183594-.3181763-.1962891-.489502.0737305-.0979004.2939453-.0979004.4165039-.0734253.3666992,0,.8076172.1223755,1.3212891.2937012.5141602.1713257,1.2485352.5629272,1.46875,1.003479.2202148.3916016,0,.7832031-.3427734.8811035s-.8808594-.1223755-1.2480469-.4650269Zm1.9580078-1.0279541c-.3671875-.4405518-.8076172-.6853027-1.5175781-1.003479-.2202148-.0979004-.3183594-.3181763-.2202148-.4650269.0732422-.1468506.269043-.0979004.4160156-.0979004.3671875-.0244751.8320312.0489502,1.3461914.2202759.4892578.1468506,1.2236328.489502,1.4926758.9055786.2451172.3916016.0493164.8076782-.3178711.9055786-.3183594.1223755-.9057617-.0979004-1.1992188-.4650269Z"/>
    </g>
    <g>
      <path class="cls-5" d="m524.3502263,48.3446045c0,.1468506-.269043.3181763-.8076172.4650269v9.8145142h-1.2236328v-9.5697632c-.9545898,1.1503296-1.9335938,2.1782837-3.0351562,3.1083374l-.3916016-.3916016c2.2026367-2.3251343,4.0629883-5.2131958,5.5561523-8.7376099,1.1254883.4160767,1.6884766.7832031,1.6884766,1.1258545,0,.1958008-.269043.3181763-.8808594.3426514-.6855469,1.3216553-1.3461914,2.4475098-2.0073242,3.3530884.734375.0979004,1.1015625.2692261,1.1015625.489502Zm-5.2866211-2.9614868c2.1538086-1.7866821,3.8427734-3.9649658,5.0908203-6.510376,1.1992188.489502,1.7866211.9055786,1.7866211,1.24823,0,.1958008-.3178711.2937012-.9545898.2937012-1.4682617,2.1782837-3.3286133,3.9649658-5.6289062,5.4089966l-.2939453-.4405518Zm13.1918945,10.9893188c.9790039.2692261,2.2275391.3916016,3.7446289.3916016.9545898,0,2.0561523-.0489502,3.3291016-.1468506-.3427734.4650269-.5878906.9545288-.734375,1.4440308h-2.3496094c-3.0839844,0-5.3603516-.6853027-6.8041992-2.006958-.7587891-.7342529-1.3706055-1.7377319-1.8598633-3.010437-.5878906,2.1293335-1.5419922,3.9649658-2.9125977,5.5803223l-.465332-.3426514c1.46875-2.3251343,2.3496094-5.3355713,2.6679688-9.0068359,1.3706055.3181763,2.0556641.6118774,2.0556641.8811035,0,.1713257-.293457.2937012-.8808594.3916016-.0981445.758728-.1713867,1.2727051-.2202148,1.5174561.7338867,1.7866821,1.8110352,3.0838623,3.1328125,3.7936401v-8.272583h-5.6049805l-.2446289-.5629272h5.8496094v-3.6712646h-4.3813477l-.2202148-.5384521h4.6015625v-3.9649658c1.4926758.0244751,2.2270508.2202759,2.2270508.5629272,0,.2202759-.293457.4160767-.9301758.6118774v2.7901611h2.7661133l1.0766602-1.492981c.5385742.489502,1.027832,1.0279541,1.4682617,1.5664062l-.2202148.4650269h-5.0908203v3.6712646h3.940918l1.1499023-1.5419312c.440918.4405518.8813477.9545288,1.3217773,1.492981l.1713867.2202759-.2446289.3916016h-6.3393555v3.7446899h2.8881836l1.1015625-1.3950806c.4404297.3916016.8320312.8076782,1.1748047,1.2727051l.1713867.244751-.2451172.4160767h-5.0908203v4.503418Z"/>
      <path class="cls-5" d="m554.3863591,46.7781982v5.6782227c0,1.0769043-.7583008,1.6153564-2.2758789,1.5908813,0-.4160767-.2202148-.7097778-.6118164-.9055786-.3183594-.1713257-.9545898-.3426514-1.9335938-.489502v-.5629272c1.1992188.1223755,2.1293945.1958008,2.8881836.1958008.4160156,0,.6362305-.2202759.6362305-.6363525v-4.8705444h-9.1293945l-.2202148-.5629272h4.4057617v-5.3110962c1.4438477.0734253,2.1782227.244751,2.1782227.5384521,0,.1713257-.3183594.3671265-.9057617.5874023v4.1852417h3.6713867v-7.3425293c1.5170898.0244751,2.300293.2202759,2.300293.5629272,0,.1958008-.3422852.4160767-1.003418.6118774v2.3985596h4.0385742l1.0771484-1.492981c.6850586.6608276,1.1992188,1.1992798,1.4926758,1.6398315l-.269043.4160767h-6.3393555v3.2062378h6.4614258l1.1503906-1.492981c.5629883.489502,1.1015625,1.0279541,1.5664062,1.6153564l-.2446289.4405518h-8.9335938Zm-10.328125,7.269104c1.8110352-1.5174561,3.3286133-3.5733643,4.503418-6.1677246,1.2724609.5384521,1.9086914.9545288,1.9086914,1.24823,0,.1958008-.3422852.3181763-1.0766602.3181763-1.2729492,2.1538086-2.9370117,3.8181152-4.9931641,5.017395l-.3422852-.4160767Zm.0244141,4.0873413c6.3632812-1.1503296,11.0380859-3.6467896,13.9995117-7.4893799,1.1015625.5874023,1.6645508,1.0524292,1.6645508,1.3706055,0,.1713257-.1958008.2937012-.6118164.2692261l-.5141602-.0489502c-2.3007812,2.3251343-4.8950195,4.013916-7.7587891,4.9929199-1.737793.6118774-3.8911133,1.0769043-6.4858398,1.4440308l-.293457-.5384521Zm13.4858398-10.4998169c1.8598633.7832031,3.2792969,1.6398315,4.1850586,2.6188354.6606445.6853027.9790039,1.2727051.9790039,1.8111572,0,.5629272-.2446289.8566284-.7587891.8566284-.3183594,0-.5874023-.2692261-.8320312-.8321533-.6611328-1.3950806-1.9580078-2.7167358-3.8671875-4.0383911l.2939453-.4160767Z"/>
    </g>
    <path class="cls-5" d="m632.0938787,49.2501831c3.0351562-2.5209351,5.237793-5.8005981,6.6328125-9.8389893,1.3217773.4650269,1.9824219.8321533,1.9824219,1.1258545,0,.1958008-.293457.3426514-.9296875.489502-1.1015625,2.3006592-2.2763672,4.1607666-3.5488281,5.5558472-1.0039062,1.0769043-2.2275391,2.1293335-3.7695312,3.1083374l-.3671875-.4405518Zm3.5737305-1.1258545l-.1713867-.5629272h10.1328125l.8320312-.9790039c.8564453.6608276,1.296875,1.1013794,1.296875,1.3216553,0,.0979004-.0732422.2202759-.2202148.3181763l-.4648438.3426514c-.0244141,4.3320923-.3671875,7.1467285-1.0766602,8.4439087-.465332.8811035-1.3461914,1.3216553-2.5703125,1.3216553,0-.4405518-.293457-.758728-.8320312-.9790039-.4160156-.1713257-1.1992188-.3671265-2.3251953-.5384521v-.5874023c1.46875.1958008,2.6435547.2937012,3.4511719.2937012.7587891,0,1.2724609-.4650269,1.4931641-1.3706055.3666992-1.5419312.5625-3.8915405.5869141-7.024353h-5.2373047c-.2202148,2.6433105-.8320312,4.772644-1.8847656,6.3635254-1.1259766,1.7377319-2.8881836,3.0838623-5.3110352,4.0873413l-.3183594-.489502c2.5698242-1.3706055,4.3325195-3.2796631,5.2133789-5.6292725.4892578-1.2971802.7832031-2.765686.9057617-4.3320923h-3.5Zm8.1992188-8.7131348c2.03125,3.5488892,4.503418,6.1921997,7.4155273,7.9299316-.4404297.3181763-.8076172.758728-1.1499023,1.3461304-2.1538086-1.6887817-3.9160156-3.6712646-5.237793-5.9229736-.4897461-.8566284-1.027832-1.8845825-1.5908203-3.0349121l.5629883-.3181763Z"/>
    <g>
      <path class="cls-5" d="m5.2100896,52.6894836c-1.121582,1.694397-2.5776367,3.1740112-4.3911133,4.4388428l-.3818359-.4295654c2.1000977-1.789856,3.6513672-3.7706299,4.6298828-5.9661865H1.2008122l-.2148438-.5488892h4.2241211v-2.5296631c1.3364258.0715942,2.0283203.2386475,2.0283203.4772949,0,.1431885-.2861328.3102417-.8349609.5011597v1.5512085h2.1713867l.9067383-1.1932373c.4775391.5011597.8833008.9307251,1.1933594,1.3602905l-.2382812.3818359h-4.0332031v.8591309c2.4101562.8829956,3.6035156,1.789856,3.6035156,2.81604,0,.4772949-.2148438.7159424-.6445312.7159424-.2148438,0-.4296875-.1670532-.6445312-.5250244-.5488281-.8829956-1.2885742-1.694397-2.3144531-2.3626099v6.204834h-1.1933594v-5.7514038Zm1.1694336-5.9661865c.5488281-1.2648315.9545898-2.5535278,1.2646484-3.8660889,1.1933594.4295654,1.7900391.7875366,1.7900391,1.0500488,0,.1670532-.2626953.2625122-.859375.286377-.3100586.6682129-.8588867,1.503479-1.5512695,2.5296631h2.0527344l.8828125-1.2409668c.4296875.4534302.7875977.9068604,1.0976562,1.3602905l-.2382812.4295654H.9381169l-.2148438-.5488892h5.65625Zm-1.1694336-4.605896v-2.9353638c1.3603516.0477295,2.0522461.2386475,2.0522461.5250244,0,.1670532-.2861328.3579712-.8588867.5488892v1.8614502h2.1713867l.859375-1.2886963c.4291992.4057007.7875977.8114014,1.0498047,1.1932373l.1669922.2147827-.262207.4057007H1.4630193l-.2382812-.5250244h3.9853516Zm-2.5776367.8114014c1.4799805.8829956,2.2436523,1.8375854,2.2436523,2.7921753,0,.5488892-.2626953.7875366-.7636719.7875366-.3344727,0-.5253906-.2386475-.5727539-.7636719-.0717773-.7875366-.4536133-1.6228027-1.2172852-2.4819336l.3100586-.3341064Zm10.2143555,4.4627075v.3579712c0,2.2671509-.2148438,4.2001953-.6445312,5.7752686-.5249023,1.8853149-1.4555664,3.4842529-2.7919922,4.8445435l-.4296875-.3579712c1.1455078-1.6466675,1.9091797-3.5319824,2.2670898-5.6320801.2387695-1.4796143.3579102-3.197876.3579102-5.1786499v-6.109375c.5727539.190918,1.0263672.4057007,1.4082031.5727539,1.6943359-.5250244,3.1025391-1.2171021,4.2958984-2.1478271.9541016.6204834,1.4555664,1.0739136,1.4555664,1.312561,0,.1431885-.1196289.2147827-.3818359.2147827-.190918,0-.3818359-.0238647-.6206055-.095459-1.4316406.5250244-3.0307617.9784546-4.9160156,1.312561v4.605896h4.8681641l1.0024414-1.40802c.5488281.4772949,1.0024414.9784546,1.3603516,1.4796143l-.2148438.4534302h-2.9116211v10.7868652h-1.2407227v-10.7868652h-2.8637695Z"/>
      <path class="cls-5" d="m35.6539372,45.2675476v.8829956c0,1.7182617-.5961914,3.0546875-1.765625,4.0092773,1.0976562.1193237,1.6464844.3102417,1.6464844.5727539,0,.1431885-.2626953.3102417-.7875977.4772949v.8591309h6.4912109l1.0976562-1.1455078c.4536133.3102417.9545898.7398071,1.4799805,1.2886963l-.2387695.3818359h-8.3525391c.0473633.0477295.0712891.0715942.1191406.095459,2.171875,1.7182617,5.1547852,2.81604,8.6630859,3.5558472-.4536133.3818359-.8115234.8114014-.9785156,1.312561-3.5083008-1.1216431-6.2763672-2.6967163-8.28125-4.6536255v5.5366211h-1.2407227v-4.796814c-2.2910156,1.9807739-5.2265625,3.4126587-8.8300781,4.319519l-.2387695-.5250244c3.5556641-1.1216431,6.3959961-2.7683105,8.4482422-4.8445435h-8.0185547l-.2387695-.5250244h8.8779297v-1.6228027c-.5727539.3818359-1.3129883.7159424-2.171875,1.0023193l-.2387695-.4534302c2.2431641-1.0261841,3.3652344-2.6251221,3.3652344-4.8206787v-1.9807739c.262207.1193237.6679688.286377,1.2167969.5488892h3.5322266l.5966797-.6443481c.7636719.5250244,1.1455078.8829956,1.1455078,1.0500488,0,.0715942-.0478516.1193237-.1669922.190918l-.4296875.286377v3.3649292c0,.3579712.262207.5250244.7636719.5250244.453125,0,.7397461-.1431885.8349609-.4534302.1669922-.4534302.2866211-1.1932373.3344727-2.1955566l.5488281.190918c-.0239258.190918-.0239258.3818359-.0239258.5727539,0,1.2171021.2626953,1.789856.7636719,1.7659912,0,.5250244-.190918.8352661-.5488281.9784546-.2866211.1431885-.8115234.190918-1.5991211.190918-.8354492,0-1.3842773-.0715942-1.6943359-.190918-.3579102-.1431885-.5249023-.4534302-.5249023-.9784546v-4.1286011h-3.5561523Zm-3.5556641-4.0092773l.9306641-1.2409668c.4536133.3818359.859375.8591309,1.2172852,1.3602905l-.2626953.4057007h-4.4628906c1.0981445.6443481,1.6230469,1.2886963,1.6230469,1.9569092,0,.5250244-.2387695.7875366-.7158203.7875366-.3818359,0-.5727539-.2386475-.6445312-.6920776-.1191406-.8114014-.5009766-1.4557495-1.0976562-2.0523682h-.5009766c-.8354492,1.4557495-1.9570312,2.6967163-3.3413086,3.7467651l-.3818359-.3818359c1.5991211-1.6228027,2.7919922-3.6751709,3.5556641-6.204834,1.2651367.2386475,1.8852539.4772949,1.8852539.7398071,0,.190918-.2861328.3341064-.9306641.4295654-.1669922.4534302-.3339844.8352661-.4770508,1.1455078h3.6035156Zm-2.2670898,4.5820312v3.0546875c1.1694336-.190918,2.3623047-.4295654,3.5556641-.6920776l.0717773.5250244c-2.4106445.8114014-4.7490234,1.4318848-7.0400391,1.8853149-.1196289.5011597-.2387695.7636719-.3818359.7636719-.2866211,0-.5727539-.6443481-.8833008-1.8853149.8354492-.095459,2.0048828-.2147827,3.5083008-.4295654v-3.2217407h-2.815918l-.190918-.5250244h5.5605469l.9067383-1.0739136c.5009766.4534302.9067383.8591309,1.1933594,1.2409668l-.2387695.3579712h-3.2456055Zm11.4550781-4.5820312l1.0024414-1.312561c.4770508.4295654.9306641.9068604,1.3598633,1.4318848l-.2382812.4057007h-6.0615234c1.2407227.5966187,1.8374023,1.2171021,1.8374023,1.8614502,0,.4772949-.2387695.7159424-.6918945.7159424-.3583984,0-.5732422-.1670532-.6445312-.5011597-.1430664-.8114014-.5727539-1.4796143-1.3364258-2.0762329h-.3579102c-.7397461,1.0261841-1.5991211,1.9091797-2.6728516,2.6251221l-.3579102-.3102417c1.4316406-1.503479,2.434082-3.197876,2.9589844-5.1070557,1.1933594.190918,1.7900391.4295654,1.7900391.7159424,0,.1670532-.2866211.3102417-.8354492.4295654-.1669922.4534302-.3579102.8114014-.5488281,1.1216431h4.796875Zm-4.8686523,4.6536255c1.1694336.8829956,1.7661133,1.7421265,1.7661133,2.6251221,0,.5250244-.2387695.7875366-.7397461.7875366-.3339844,0-.5488281-.2625122-.5488281-.8591309-.0239258-.8352661-.3100586-1.5750732-.8354492-2.2671509l.3579102-.286377Z"/>
      <path class="cls-5" d="m48.7960271,49.3006897c2.9594727-2.4580688,5.1074219-5.6559448,6.4677734-9.5936279,1.2885742.4534302,1.9326172.8114014,1.9326172,1.0977783,0,.190918-.2861328.3341064-.9067383.4772949-1.0737305,2.2432861-2.2192383,4.0570068-3.4604492,5.4172974-.9785156,1.0500488-2.1713867,2.0762329-3.6748047,3.0308228l-.3583984-.4295654Zm3.484375-1.0977783l-.1669922-.5488892h9.8798828l.8115234-.9545898c.8354492.6443481,1.2646484,1.0739136,1.2646484,1.2886963,0,.095459-.0712891.2147827-.2143555.3102417l-.4536133.3341064c-.0239258,4.2240601-.3579102,6.9685059-1.0498047,8.2333374-.4536133.8591309-1.3129883,1.2886963-2.5058594,1.2886963,0-.4295654-.2866211-.7398071-.8115234-.9545898-.4057617-.1670532-1.1694336-.3579712-2.2670898-.5250244v-.5727539c1.4316406.190918,2.5771484.286377,3.3647461.286377.7397461,0,1.2412109-.4534302,1.4560547-1.3364258.3579102-1.503479.5488281-3.7944946.5722656-6.8491821h-5.1069336c-.2148438,2.5773926-.8110352,4.6536255-1.8374023,6.204834-1.0976562,1.694397-2.815918,3.006958-5.1787109,3.9854126l-.3100586-.4772949c2.5053711-1.3364258,4.2241211-3.197876,5.0830078-5.4888916.4770508-1.2648315.7636719-2.6967163.8828125-4.2240601h-3.4125977Zm7.9946289-8.4958496c1.980957,3.4603882,4.3911133,6.0377808,7.230957,7.7321777-.4291992.3102417-.7871094.7398071-1.121582,1.312561-2.1000977-1.6466675-3.8183594-3.5797119-5.1069336-5.7752686-.4770508-.8352661-1.0024414-1.8375854-1.5512695-2.9592285l.5488281-.3102417Z"/>
      <path class="cls-5" d="m77.1163396,43.5254211l.9785156-1.1216431c.4775391.3818359.9306641.8114014,1.3364258,1.2886963l-.2148438.3818359h-6.8251953l-.2148438-.5488892h4.9399414Zm-.6445312,2.6967163l.859375-1.0977783c.4296875.3102417.859375.7398071,1.2885742,1.2648315l-.2387695.3579712h-5.2021484l-.2148438-.5250244h3.5078125Zm.0239258,2.6728516l.8354492-1.0739136c.4296875.3341064.859375.7398071,1.2885742,1.2171021l-.2861328.4057007h-5.1308594l-.2387695-.5488892h3.5317383Zm.3579102,2.7444458l.6923828-.8591309c.8349609.6443481,1.2646484,1.0739136,1.2646484,1.2886963,0,.0715942-.0478516.1431885-.1669922.2147827l-.453125.2625122v5.8945923h-1.1694336v-1.3841553h-2.840332v1.3841553h-1.1928711v-7.4458008c.1430664.0477295.5966797.2625122,1.3364258.6443481h2.5292969Zm-.2861328-10.81073l.859375-1.1455078c.4291992.3579712.8588867.7875366,1.3125,1.2886963l-.2148438.3818359h-5.2265625l-.2148438-.5250244h3.484375Zm-2.3867188,11.3596191v4.3433838h2.840332v-4.3433838h-2.840332Zm11.3837891-.7636719c-.5009766.5011597-1.121582,1.0261841-1.7900391,1.5750732v3.3649292c.9545898-.1670532,2.0527344-.4295654,3.2695312-.7398071l.1430664.5250244c-2.1000977.8114014-3.9853516,1.3841553-5.7275391,1.7421265-.0712891.4772949-.2143555.7159424-.3579102.7159424-.262207,0-.5488281-.5727539-.8115234-1.7421265.8115234-.095459,1.5751953-.1670532,2.2910156-.286377v-2.7921753c-1.0976562.5966187-2.4101562,1.0739136-3.9135742,1.503479l-.2626953-.5011597c2.3149414-.7875366,4.1762695-1.9091797,5.5844727-3.3649292h-4.9399414l-.2148438-.5488892h3.4604492v-1.7421265h-2.2431641l-.2148438-.5250244h2.4580078v-1.5750732h-2.7207031l-.190918-.5488892h2.9116211v-2.0046387c1.3125.095459,1.980957.286377,1.980957.5727539,0,.1670532-.2866211.3579712-.8115234.5250244v.9068604h3.1738281v-2.0523682c1.2885742.095459,1.9331055.286377,1.9331055.5488892,0,.1670532-.2626953.3102417-.7636719.4772949v1.0261841h1.4082031l.8115234-.9784546c.3818359.3341064.7158203.7159424,1.0498047,1.1216431l-.2387695.4057007h-3.0307617v1.5750732h1.121582l.8354492-1.0023193c.2387695.2147827.5966797.5966187,1.0498047,1.0977783l-.2382812.4295654h-2.7685547v1.7421265h1.8852539l.7875977-1.0023193c.4536133.4057007.8115234.7636719,1.0742188,1.1216431l-.2387695.4295654h-5.0595703c.3579102.9784546.8833008,1.8614502,1.5273438,2.6728516.7636719-.6920776,1.4799805-1.4796143,2.1000977-2.3626099.9306641.5966187,1.3842773,1.0023193,1.3842773,1.2409668,0,.1670532-.1669922.2147827-.4770508.2147827l-.4775391-.0477295c-.5249023.4295654-1.2172852.8829956-2.171875,1.3602905.8833008.9545898,2.171875,1.8137207,3.8662109,2.5535278-.4296875.3818359-.7636719.7875366-1.0024414,1.1455078-2.7680664-1.5512085-4.5820312-3.7944946-5.3696289-6.7775879h-.0712891Zm-6.4199219-6.5628052c1.5991211-.7159424,2.8642578-1.598938,3.7949219-2.6489868,1.0498047.4057007,1.5507812.7398071,1.5507812.9545898,0,.190918-.2861328.286377-.8828125.286377h-.0239258c-1.1928711.7875366-2.6010742,1.3841553-4.128418,1.8137207l-.3105469-.4057007Zm5.3457031-3.4603882v-2.2671509c1.3369141.0238647,2.0048828.1670532,2.0048828.4534302,0,.1431885-.2626953.3102417-.7875977.5011597v1.312561h3.484375l1.0024414-1.1932373c.453125.4057007.8828125.8591309,1.2646484,1.3364258l-.2148438.4057007h-11.5981445l-.2626953-.5488892h5.1069336Zm-1.0258789,5.6320801v1.5750732h3.1738281v-1.5750732h-3.1738281Zm0,2.1000977v1.7421265h3.1738281v-1.7421265h-3.1738281Zm3.1499023-6.8253174c1.5991211.286377,2.7924805.6682129,3.6035156,1.1455078.5966797.3579712.8833008.6920776.8833008,1.0500488,0,.4057007-.2148438.6204834-.6206055.6204834-.1669922,0-.3579102-.095459-.5249023-.286377-.8833008-.8829956-2.0761719-1.5750732-3.5795898-2.0762329l.2382812-.4534302Z"/>
      <path class="cls-5" d="m101.021613,45.98349c0,.1670532-.2626953.3579712-.8354492.5727539v11.8846436h-1.2646484v-11.0493774c-.8833008,1.4796143-1.8139648,2.8399048-2.815918,4.0570068l-.4296875-.3341064c2.2431641-3.293335,3.9375-7.2548828,5.1069336-11.932373,1.3842773.3579712,2.0761719.6920776,2.0761719,1.0023193,0,.190918-.3339844.3341064-1.0024414.4534302-.5009766,1.6705322-1.1455078,3.2694702-1.9091797,4.8206787.7163086.1193237,1.0742188.286377,1.0742188.5250244Zm7.6367188,4.6774902v6.109375h4.2241211l1.0976562-1.5750732c.5009766.4534302.9785156,1.0023193,1.4794922,1.6705322l-.262207.4295654h-13.6269531l-.2626953-.5250244h6.0380859v-6.109375h-4.6777344l-.2382812-.5250244h4.9160156v-5.1547852h-5.2744141l-.2382812-.5488892h10.5004883l1.0258789-1.4557495c.5966797.5488892,1.0742188,1.0739136,1.4082031,1.5750732l-.2387695.4295654h-5.8706055v5.1547852h3.0068359l1.0024414-1.4318848c.5009766.4772949.9545898,1.0023193,1.3842773,1.5512085l-.2387695.4057007h-5.1547852Zm-3.1738281-11.4550781c2.3862305,1.1932373,3.6035156,2.3387451,3.6035156,3.4842529,0,.5727539-.2626953.8352661-.7875977.8352661-.3579102,0-.5966797-.286377-.7875977-.8352661-.3339844-1.0500488-1.1455078-2.0523682-2.3388672-3.0308228l.3105469-.4534302Z"/>
      <path class="cls-5" d="m128.9600896,42.6424255v-3.4365234c1.4794922.0238647,2.2192383.190918,2.2192383.5250244,0,.1670532-.3339844.3818359-.9545898.5966187v2.3148804h6.5625l.9072266-1.0977783c1.0737305,1.0023193,1.6225586,1.6466675,1.6225586,1.9569092,0,.1670532-.0952148.2386475-.3100586.2625122l-.7158203.1193237c-.5727539.7159424-1.2172852,1.4557495-2.0288086,2.1716919l-.4057617-.3102417c.4296875-.8114014.7875977-1.6466675,1.0024414-2.5535278h-14.1040039v.4057007c0,1.0261841-.190918,1.8614502-.5249023,2.5296631-.3105469.5727539-.6445312.8591309-1.0742188.8591309-.190918,0-.4057617-.095459-.5961914-.286377-.1674805-.1431885-.2387695-.3102417-.2387695-.5011597,0-.2386475.1430664-.4772949.4057617-.7636719.7871094-.7875366,1.1928711-2.0285034,1.3125-3.6751709l.5488281.0477295c.0712891.3579712.0952148.6204834.1191406.8352661h6.2529297Zm-1.0263672,4.7252197c-2.1479492.5250244-4.2241211.9545898-6.2524414,1.2648315l-.2866211-.5250244c4.8208008-.9307251,8.734375-2.1955566,11.6938477-3.8183594,1.0737305.6204834,1.6225586,1.0739136,1.6225586,1.3364258,0,.1193237-.1669922.190918-.453125.190918-.2148438,0-.4775391-.0477295-.7636719-.095459-1.4321289.5250244-2.8637695.9784546-4.2719727,1.3364258v4.0092773l6.777832-.9307251,1.0498047-1.6466675c.5966797.3818359,1.2172852.8591309,1.8852539,1.4318848l-.2387695.4534302-9.4741211,1.2886963v4.2001953c0,.3818359.1196289.5966187.3579102.7159424.2866211.0715942,1.3842773.1431885,3.2695312.1431885,1.8613281,0,2.9594727-.0715942,3.3173828-.190918.5009766-.190918.9067383-1.3364258,1.121582-3.4365234l.5727539.2625122c-.0239258.286377-.0239258.6204834-.0239258.9545898,0,.9784546.0952148,1.598938.2387695,1.8375854.0952148.190918.3100586.2625122.6679688.2625122-.0712891.7636719-.453125,1.1693726-1.1455078,1.2648315-.7397461.1193237-2.2192383.190918-4.3911133.190918-2.7441406,0-4.3193359-.095459-4.7250977-.3341064-.3818359-.2147827-.5488281-.6682129-.5488281-1.3841553v-4.2956543l-7.3027344,1.0023193-.2861328-.5727539,7.5888672-1.0261841v-3.8899536Z"/>
    </g>
    <g>
      <path class="cls-5" d="m80.7550115,14.338562c.2783203,0,.7587891.0632324,1.0878906.0632324.3793945,0,.6704102-.0379333,1.0244141-.0379333.1518555,0,.1899414.0379333.1899414.0758972,0,.0505981-.1015625.088562-.215332.1138306-.5058594.1011963-.5566406.2783203-.5693359,1.3914795,0,.354187-.0126953,1.6191406,0,1.9733276,0,.177063.0380859.1897278.0888672.1644287.1894531-.1644287.3540039-.2909546.5942383-.5312805.3798828-.3668518,2.0112305-2.011261,2.340332-2.4034119.1391602-.1644287.2021484-.2403564.2021484-.3288879,0-.1138611-.1386719-.1644592-.4042969-.2150574-.1391602-.0379333-.1899414-.0758667-.1899414-.1138306,0-.0505981.0756836-.1011963.1899414-.1011963.265625,0,.4804688.0252991.8217773.0126343.4936523-.0252686,1.012207-.0632324,1.2143555-.0632324.1391602,0,.1772461.0379639.1772461.0632324,0,.0505981-.0756836.1011963-.2148438.1265259-.53125.1011963-.8984375.2782593-1.4799805.7842407-.4936523.4301147-1.6445312,1.5432739-2.3911133,2.3022461-.0249023.0379333-.0629883.0885315-.0629883.1138306s.0380859.0758972.1010742.1517944c.480957.5439453,2.8081055,3.1750488,3.402832,3.7442627.4174805.4047852.6323242.4680176.9614258.5312805.1767578.0505981.2402344.1011963.2402344.1517944,0,.0758972-.1264648.1011963-.2402344.1011963-.3164062,0-1.0375977-.0758972-1.4926758-.0758972-.4301758,0-.7211914.0379639-.8857422.0379639-.1513672,0-.2402344-.0253296-.2402344-.1011963,0-.0379639.0380859-.088562.2026367-.1391602.2783203-.0505981.3286133-.1138306.3286133-.1897583,0-.0885315-.0756836-.2023926-.2148438-.3415222-.9741211-1.1637573-2.6816406-3.0105896-2.871582-3.2256165-.0756836-.0759277-.1010742-.088562-.1137695-.088562-.0507812,0-.0507812.0632324-.0634766.2150269v1.4926758c0,.6451111.0253906,1.4673462.0507812,1.7203369.0380859.2909241.2026367.3794556.5439453.4553833.1772461.0379333.2529297.0758667.2529297.1391296s-.1264648.0885315-.2402344.0885315c-.3164062,0-.5947266-.0632324-1.1005859-.0632324-.4301758,0-.8476562.0632324-1.0371094.0632324-.1518555,0-.215332-.0505981-.215332-.0885315,0-.0505981.0380859-.0885315.2280273-.1264954.3793945-.088562.4931641-.2276917.5185547-.4933472.0380859-.2782593.0756836-1.0878296.0756836-3.8327942.0126953-1.0246277-.0126953-2.4160461-.0375977-2.7575989-.0507812-.442749-.215332-.4806824-.5693359-.5692139-.0888672-.0379639-.1772461-.0632629-.1772461-.1138611s.0756836-.0758972.1899414-.0758972Z"/>
      <path class="cls-5" d="m92.1925115,14.3259277c.0375977.2782593.1640625.619812.3286133,1.0498962.8857422,2.3528137,1.5688477,4.0731506,2.3530273,5.85672.315918.7463379.4423828.8601685.7587891.9360962.1518555.0252686.2148438.0758667.2148438.1138306,0,.0632324-.1137695.088562-.2275391.088562-.2402344,0-.4428711-.0379639-1.1005859-.0379639-.4677734,0-.9487305.0505981-1.2519531.0505981-.1391602,0-.215332-.0252991-.215332-.088562,0-.0505981.1137695-.1011963.2402344-.1138306.5063477-.0758972.5820312-.2909546.5693359-.5692139-.0253906-.2150574-.4550781-1.3408813-.8852539-2.4540405-.0380859-.0885315-.1137695-.1517944-.1645508-.1517944-.4804688.0253296-2.074707.0253296-2.3530273.0253296-.0629883,0-.1391602.1391296-.1894531.2403259-.1137695.2782898-.480957,1.2143555-.6577148,1.834198-.1391602.4806519-.1391602.7210083,0,.8601685.1137695.1138306.2783203.1644287.53125.2150269.1264648.0379639.1894531.088562.1894531.1264954,0,.0632629-.1137695.0885315-.2529297.0885315-.2402344,0-.7587891-.0632324-1.2143555-.0632324-.315918,0-.5566406.0632324-.8598633.0632324-.1391602,0-.215332-.0252686-.215332-.0885315s.1264648-.0885315.2529297-.1138611c.5820312-.1138306.6958008-.2276611,1.1767578-1.2902222.3666992-.7843018,1.4799805-3.5545349,2.2133789-5.4393311.0634766-.1644287.0761719-.2529907.0761719-.354187,0-.0505981.0126953-.1264648.0375977-.1391296.1391602-.1011963.4047852-.354187.4555664-.6451111.0253906-.0632629.0380859-.1265259.1010742-.1265259.0380859,0,.0634766.0505981.0888672.1265259Zm.5058594,4.1490479c-.5058594-1.4294128-.8476562-2.2389832-1.0371094-2.6690674-.0380859-.1011963-.0634766-.0632324-.1015625.0252991-.3037109.7210388-.8222656,2.1757202-.9990234,2.6943665-.0126953.0252686-.0126953.1138306.0375977.1138306.2407227.0126343.5566406.0126343.9995117.0126343s.9614258,0,1.1005859-.0505981c.0253906-.0126343.0253906-.0632324,0-.1264648Z"/>
      <path class="cls-5" d="m96.090949,14.3511963c.3037109,0,.8222656.0505981,1.2016602.0505981.2783203,0,.5820312-.0252686.8476562-.0252686.1772461,0,.2529297.0379333.2529297.0885315,0,.0632629-.0756836.1011963-.2275391.1264954-.3540039.0632324-.3540039.2150269-.2529297.442749.5185547,1.3155518,1.7709961,4.0098877,2.6308594,5.9073181.0380859.0885315.0888672.0632629.1264648,0,.3544922-.7210388.6577148-1.3534851.9995117-2.1630554.0253906-.0379639.0253906-.1265259.0253906-.1517944-.2026367-.4807129-1.050293-2.4034424-1.328125-3.0106201-.3671875-.7842407-.4682617-.9360352-.8603516-1.0372314-.2026367-.0379639-.265625-.088562-.265625-.1517944,0-.0379639.0756836-.0759277.2402344-.0759277.3666992,0,.6074219.0505981,1.0625.0505981.4555664,0,.746582-.0505981,1.0375977-.0505981.1264648,0,.2148438.0253296.2148438.0759277,0,.0632324-.0756836.1011963-.2402344.1391296-.3417969.0632629-.4682617.2150574-.2783203.683075.2021484.5312805.5942383,1.391449.9990234,2.3528137.0126953.0252991.0634766.0379333.1015625-.0252991.3032227-.619812.5688477-1.2017212.8344727-1.8215332.3925781-.9234009.3798828-1.0499268-.1513672-1.1763916-.2407227-.0505981-.2783203-.1011963-.2783203-.1517944,0-.0379639.0756836-.0632629.2275391-.0632629.3164062,0,.5185547.0379333.8476562.0379333.4423828,0,.6450195-.0505981.9360352-.0505981.1518555,0,.2148438.0126648.2148438.0632629,0,.0632629-.0629883.1011963-.2402344.1391296-.4682617.1011963-.7084961.3668518-1.1259766,1.1005249-.3286133.6324768-.9487305,1.8847656-1.1635742,2.2769165-.0126953.0252991-.0126953.088562.0126953.1517944.315918.7463379.8725586,1.9480286,1.3027344,2.8967285.0507812.088562.0761719.0759277.1137695,0,.6074219-1.3155518,2.1376953-4.8574219,2.4033203-5.793457.0634766-.2783203.0507812-.4933472-.3666992-.6198425-.2021484-.0632629-.2783203-.0885315-.2783203-.1391296s.0380859-.0759277.215332-.0759277c.3286133,0,.5058594.0505981.8852539.0505981.3540039,0,.6958008-.0505981.9233398-.0505981.1645508,0,.2280273.0126648.2280273.0632629s-.0634766.1011963-.2910156.1391296c-.53125.1391602-.7592773.4047852-1.5561523,2.2010498-.796875,1.7456055-1.8212891,4.1363831-2.4033203,5.527832-.0883789.2150269-.1264648.2782898-.1894531.2782898-.0888672,0-.1391602-.0758972-.215332-.2782898-.265625-.7716064-.9868164-2.3401489-1.3535156-3.1497192-.0253906-.0505981-.0629883-.0505981-.0883789-.0126648-.480957.9360657-1.1513672,2.4160461-1.4296875,3.1497498-.0756836.2023926-.1513672.2909241-.2021484.2909241-.0761719,0-.1010742-.0632629-.1899414-.2909241-.1645508-.41745-.5566406-1.3408813-.7207031-1.7203369-.6958008-1.6065063-1.543457-3.4786377-2.1381836-4.7182922-.4550781-.9866638-.5561523-1.2143555-1.0371094-1.2776184-.1518555-.0126343-.265625-.0632324-.265625-.1138306,0-.0379639.0883789-.088562.2529297-.088562Z"/>
      <path class="cls-5" d="m112.1851872,14.3259277c.0375977.2782593.1640625.619812.3286133,1.0498962.8857422,2.3528137,1.5683594,4.0731506,2.3530273,5.85672.315918.7463379.4423828.8601685.7587891.9360962.1518555.0252686.2148438.0758667.2148438.1138306,0,.0632324-.1137695.088562-.2275391.088562-.2402344,0-.4428711-.0379639-1.1005859-.0379639-.4677734,0-.9487305.0505981-1.2519531.0505981-.1391602,0-.215332-.0252991-.215332-.088562,0-.0505981.1137695-.1011963.2402344-.1138306.5063477-.0758972.5820312-.2909546.5693359-.5692139-.0253906-.2150574-.4550781-1.3408813-.8852539-2.4540405-.0380859-.0885315-.1137695-.1517944-.1645508-.1517944-.4804688.0253296-2.074707.0253296-2.3530273.0253296-.0629883,0-.1391602.1391296-.1894531.2403259-.1137695.2782898-.480957,1.2143555-.6577148,1.834198-.1391602.4806519-.1391602.7210083,0,.8601685.1137695.1138306.2783203.1644287.53125.2150269.1264648.0379639.1894531.088562.1894531.1264954,0,.0632629-.1137695.0885315-.2529297.0885315-.2402344,0-.7587891-.0632324-1.2143555-.0632324-.315918,0-.5566406.0632324-.8598633.0632324-.1391602,0-.215332-.0252686-.215332-.0885315s.1264648-.0885315.2529297-.1138611c.5820312-.1138306.6958008-.2276611,1.1767578-1.2902222.3666992-.7843018,1.4799805-3.5545349,2.2133789-5.4393311.0634766-.1644287.0761719-.2529907.0761719-.354187,0-.0505981.0126953-.1264648.0375977-.1391296.1391602-.1011963.4047852-.354187.4555664-.6451111.0253906-.0632629.0380859-.1265259.1010742-.1265259.0380859,0,.0634766.0505981.0888672.1265259Zm.5058594,4.1490479c-.5058594-1.4294128-.8476562-2.2389832-1.0375977-2.6690674-.0375977-.1011963-.0629883-.0632324-.1010742.0252991-.3032227.7210388-.8222656,2.1757202-.9990234,2.6943665-.0126953.0252686-.0126953.1138306.0375977.1138306.2407227.0126343.5566406.0126343.9995117.0126343s.9614258,0,1.1005859-.0505981c.0253906-.0126343.0253906-.0632324,0-.1264648Z"/>
      <path class="cls-5" d="m122.6236638,14.4017944c.315918.088562.7084961.2403564.8598633.3035889.0761719.0253296.1264648.1644592.1264648.2909546.0126953.1138306.0888672.6704102.1142578.8222046.0375977.1644592-.0253906.2403564-.0634766.2403564-.0629883,0-.0756836-.0252991-.1518555-.2023926-.3540039-.9234009-1.1005859-1.4926453-2.4287109-1.4926453-.8852539,0-1.7583008.3794861-2.3398438,1.0119629-.6074219.6577759-1.0629883,1.7076721-1.0629883,3.0485535,0,1.5052795.8095703,2.6311035,1.4677734,3.1876831.581543.4806519,1.2773438.7336426,1.9350586.7336426.53125,0,1.1005859-.2150269,1.4169922-.53125.1391602-.1644592.1640625-.3668518.1894531-.6831055.0253906-.2403259.0507812-1.0498962.0126953-1.4420166-.0380859-.4301147-.1894531-.5692444-.7207031-.6577759-.1269531-.0126648-.2407227-.0505981-.2407227-.1011963s.0761719-.088562.3164062-.088562c.2783203,0,.6069336.0505981,1.1132812.0505981.4174805,0,.7207031-.0379639.8095703-.0379639.1264648,0,.2148438.0379639.2148438.0759277,0,.0758667-.1391602.1138306-.2529297.1391296-.2021484.0505981-.2783203.1517944-.2783203.8222351,0,.619812.0634766,1.416748.0634766,1.593811,0,.1644592.0126953.2529907-.0888672.3035889-.1391602.0632629-.3540039.1644592-.6196289.3035889-.5566406.2403564-1.2524414.4680481-1.9101562.4680481-1.3408203,0-2.4033203-.4553833-3.1875-1.1510925-.8984375-.7589722-1.3662109-1.7962646-1.3662109-3.0106201,0-1.3155518.5185547-2.4160461,1.7075195-3.3268127.5693359-.41745,1.3789062-.8981018,2.921875-.8981018.6201172,0,1.1259766.1517944,1.4423828.2276611Z"/>
      <path class="cls-5" d="m133.5177068,18.4623108c0,2.0365906-1.3789062,3.2888794-2.3530273,3.7189636-.5185547.2276917-1.1000977.3794861-1.6821289.3794861-2.2895508,0-4.1616211-1.9606628-4.1616211-4.2755432,0-1.2649536.4301758-2.3907471,1.6445312-3.3141785.6450195-.5059814,1.6313477-.7969055,2.4536133-.7969055,2.2011719,0,4.0986328,1.9227295,4.0986328,4.2881775Zm-6.2109375-3.1497498c-.6323242.7589722-.8979492,1.8974609-.8979492,2.9220581,0,.973999.3793945,2.0618896.9741211,2.808197.7460938.9866638,1.6064453,1.2776184,2.3144531,1.2776184.4555664,0,.9360352-.1391602,1.3535156-.5059814.5947266-.4680481,1.3789062-1.5685425,1.3789062-3.3521423,0-1.1004944-.3666992-2.188385-1.0751953-3.0611877-.4555664-.5439453-1.1386719-1.037262-2.1503906-1.037262-.7211914,0-1.5053711.4933167-1.8974609.9487Z"/>
      <path class="cls-5" d="m134.7857732,14.3511963c.3037109,0,.6958008.0505981,1.0625.0505981.6704102,0,2.390625-.0252686,2.8969727-.0252686.4677734,0,.6450195-.0253296.7714844-.0253296.050293,0,.1010742.0759277.1264648.2023926.0126953.1391602.0380859.6071777.0883789.8601685.0126953.0759277,0,.1897583-.050293.1897583-.0380859,0-.0761719-.0379639-.1391602-.1770935-.215332-.5312805-.4555664-.7210388-.6831055-.771637-.2910156-.0505981-1.9609375-.0505981-2.3657227-.0379333-.1010742.0126648-.1518555.0379333-.1518555.4933167v2.896759c0,.1517944.0380859.2023926.0761719.2023926h1.59375c.5820312,0,.7338867-.0252991.8476562-.0885315.0883789-.0505981.2021484-.2023926.3286133-.4807129.0380859-.0885315.0761719-.1391296.1264648-.1391296.0380859,0,.0634766.0632629.0634766.1391296,0,.0759277-.0507812.4680481-.0761719.6704407-.0249023.2276917.0126953.6198425.0253906.708374.0380859.1770935-.050293.2529907-.0756836.2529907-.0507812,0-.0634766-.0632629-.1518555-.2656555-.0380859-.1138306-.1264648-.354187-.3164062-.4047852-.2910156-.0632324-.6323242-.0758667-2.3398438-.0758667-.0888672,0-.1015625.0252686-.1015625.2403259,0,.6451111.0380859,2.4160461.0380859,2.6564026,0,.1391602.1010742.4680176.3291016.5692139.2021484.088562.4047852.1265259,1.2519531.1265259,1.0625,0,1.2905273-.0253296,1.543457-.2529907.1264648-.1265259.3286133-.4301147.4550781-.6071777.1269531-.1644592.1772461-.2150574.2280273-.2150574.050293,0,.0629883.0885315.0126953.2276917-.0761719.2909546-.215332.8222046-.2783203.9613647-.0507812.088562-.1137695.1517944-.2026367.1517944-1.3408203,0-2.7700195-.0505981-3.7949219-.0505981-.4296875,0-1.1381836.0632324-1.2773438.0632324-.1645508,0-.2402344-.0379333-.2402344-.0885315s.0883789-.0758972.2275391-.1138611c.4301758-.0632324.6831055-.2276611.6958008-.7969055.0629883-2.011261.0629883-3.4027405.0629883-5.8820496,0-.7210083-.1518555-.8728027-.6069336-.973999-.1264648-.0252991-.1899414-.0632324-.1899414-.1138306,0-.0379639.0888672-.0759277.1899414-.0759277Z"/>
    </g>
    <g>
      <path class="cls-5" d="m570.0274724,58.5260925l14.4316406-49.5707703c-4.7958984,3.4981384-9.7714844,6.3171692-14.9262695,8.4577637l-.1806641-2.5328064c9.3481445-4.3419495,16.3598633-9.3015747,21.0341797-14.8802795h2.9858398l-17.1333008,58.5260925h-6.2114258Z"/>
      <path class="cls-5" d="m605.9556951,58.5260925l4.9370117-17.1869507h-21.1420898l.4067383-3.3921509L626.9547185,0h2.3984375l-10.793457,37.3137817h10.793457l-.9956055,4.0253601h-11.0566406l-4.8774414,17.1869507h-6.4677734Zm6.09375-21.2123108l7.6210938-26.5231628-25.5302734,26.5231628h17.9091797Z"/>
    </g>
  </g>
</svg>