<?xml version="1.0" encoding="UTF-8"?>
<svg id="_レイヤー_2" data-name="レイヤー 2" xmlns="http://www.w3.org/2000/svg" viewBox="0 0 330.4861796 40.8032125">
  <defs>
    <style>
      .cls-1 {
        fill: #231815;
      }

      .cls-1, .cls-2 {
        stroke-width: 0px;
      }
    </style>
  </defs>
  <g id="_レイヤー_3" data-name="レイヤー 3">
    <g>
      <g>
        <path class="cls-1" d="m12.0599544,20.0876375h1.9561517c.6324721,0,1.4435529.1057235,1.4435529.8620737v6.8031094s-2.2004371.8076475-6.1754805.8076475c-3.9729076,0-9.2841786-2.1876221-9.2841786-8.2466998,0-6.05534,5.5408725-8.4124934,9.6333865-8.4124934,1.8474915,0,4.1507153.1089272,4.1507153,1.1456049v2.0226293c-1.554883-1.268682-2.1860202-1.5039278-4.5485133-1.5039278-2.3721043,0-6.6143932,1.552251-6.6143932,6.6109601,0,5.0325453,5.6882447,8.0376556,10.4241769,6.1357005v-3.861615c0-.8099753-.0640748-2.3629894-.9854178-2.3629894Z"/>
        <path class="cls-1" d="m41.7669229,28.1482533h5.012522c-1.380813-.5187393-1.9561517-2.1854862-2.4204274-3.3999716-.4666785-1.205942-4.0962517-10.0317182-4.4916469-11.2432668-.4122149-1.2083448-.9792773-1.2083448-1.4520963-1.2083448h-2.8700193c1.3781432.4637417.6188562,1.4435529.3892547,2.1339216-.2261308.6872405-5.0669856,12.6892602-5.0669856,12.6892602-1.6758243-.4610719-5.895153-6.6338825-5.895153-6.6338825,5.5940012-1.6096135,4.7404709-8.1892994-.7424673-8.1892994h-6.2868105c1.2718857.2867349,1.157085,1.6184238,1.157085,2.6551015v10.8961947c0,1.4956137-.4632078,1.9048544-1.2115486,2.300287h4.6088504c-1.2660122-.5732029-.9285513-1.901955-.9285513-2.5346941v-11.7558655h2.4869051c1.3324899,0,2.3056266,1.6157541,2.3056266,2.7122349,0,1.7762081-1.3890893,2.4724881-2.7637618,2.9882907-1.3893563.5179383-.6359429,1.6726205,0,2.5920945.6322052.9253476,2.474891,3.525414,3.5799152,4.7949344,1.0916752,1.2689489,2.0733553,1.2030052,2.5896918,1.2030052h4.1504483c-1.6066768-.5125988-.7448701-1.7754072-.5184723-2.4113501.235742-.6391466,1.2694829-3.3489787,1.2694829-3.3489787h6.2275413s.7531464,1.9561517,1.4435529,3.6947159c.6989498,1.7214776.1655267,1.9537489-.5729359,2.0656129Zm-6.4624824-7.6054173l2.3624931-6.1696068,2.5413687,6.1696068h-4.9038617Z"/>
        <path class="cls-1" d="m92.2747231,28.1482533h5.0272058c-1.392827-.5187393-1.964695-2.1854862-2.4228302-3.3999716-.4584021-1.205942-4.0973196-10.0317182-4.4975204-11.2432668-.4076762-1.2083448-.9744717-1.2083448-1.4472906-1.2083448h-2.8774946c1.3917591.4637417.6324721,1.4435529.397798,2.1339216-.2296015.6872405-5.0755289,12.6892602-5.0755289,12.6892602-.3214422.7534134-.7942611.7646265-1.0916752,1.0284013h4.1531181c-1.6154871-.5125988-.7510106-1.7754072-.5211421-2.4113501.2285336-.6391466,1.2742885-3.3489787,1.2742885-3.3489787h6.2251385s.759287,1.9561517,1.4483586,3.6947159c.6880037,1.7214776.1668616,1.9537489-.5924254,2.0656129Zm-6.4499344-7.6054173l2.3624931-6.1696068,2.5352282,6.1696068h-4.8977212Z"/>
        <path class="cls-1" d="m74.5361353,28.4432645c.5753387-.5211421,1.0964808-.9280548,1.0964808-2.7675369v-10.898827c0-.8618067-.0664777-1.8504282-1.0964808-2.1934956h4.4310427c-.4581352.4090111-1.0059751.9216099-1.0059751,2.0818986v11.010424c0,.9830524-.2007679,2.4271393,1.0711179,2.7675369h-4.4961855Z"/>
        <path class="cls-1" d="m50.6434253,15.9831096s-.0568664,8.7047974-.0568664,9.692618c0,.9830524.1172036,2.4271393,1.3856186,2.7675369h-4.2134552c.5876198-.5211421,1.0372116-.9280548,1.0372116-2.7675369,0-1.8413134.1233441-10.0420929.1233441-10.898827,0-.8618067-.1233441-1.8504282-1.1605557-2.1934956h3.2400515l9.6819766,12.1648766v-9.9107769c0-.6388796.1172036-1.8450886-1.2091458-2.3061605h4.3223825c-.5125988.3951282-1.2756234.5729359-1.2756234,2.2455564v14.3076463s-1.2030053.2207912-3.159157-2.1392989c-1.9670978-2.3600902-8.7157813-10.9621384-8.7157813-10.9621384Z"/>
        <path class="cls-1" d="m78.2017506,40.7202722c-12.6812134-10.6901246-17.5354172-23.2706495-.1884868-40.4371018.5441023-.5438353,1.0591038-.2205243.6322052.2661776-7.6022138,8.6938509-16.0835879,22.5970626-.17407,39.6412389.2466882.2576343.1548476.8246967-.2696483.5296854Z"/>
      </g>
      <g>
        <path class="cls-2" d="m213.5561872,23.81366c-.9778961,1.4771593-2.2470034,2.7671027-3.8281579,3.8697683l-.3328833-.3744937c1.8308581-1.5603801,3.183145-3.2872225,4.0361893-5.2013015h-3.3704228l-.1872777-.47853h3.6825523v-2.2053312c1.1650915.0624053,1.7684322.2080315,1.7684322.4161041,0,.1248106-.2497036.2704574-.7281925.436899v1.3523281h1.893284l.7905361-1.0402397c.4161453.436899.7698647.8113927,1.0403221,1.1858864l-.2080315.3328833h-3.5161107v.7489874c2.1013155.7697823,3.1415552,1.5604007,3.1415552,2.4550143,0,.4161041-.1871954.6241562-.5617509.6241562-.1871954,0-.3744731-.1456467-.5617509-.4577145-.4784889-.7698029-1.1234193-1.4771593-2.0180535-2.0597051v5.4093535h-1.0402397v-5.0140649Zm1.0194036-5.2013015c.4785712-1.1026656.8322082-2.2261673,1.1026656-3.3704433,1.0403221.3744937,1.5604007.6865821,1.5604007.9154291,0,.1456261-.2288676.228847-.7489462.2496625-.2704574.5825458-.7490286,1.3107177-1.3523693,2.2053518h1.7892683l.7697823-1.0818707c.3744731.3953092.6866027.7905978.9570601,1.1858864l-.2080315.3745143h-8.6133758l-.1872777-.47853h4.9308235Zm-1.0194036-4.0153944v-2.5590506c1.1858453.0416104,1.7891859.2080521,1.7891859.4577145,0,.1456261-.2496213.3120678-.7489462.4785094v1.6228266h1.893284l.7489462-1.1235017c.3744731.3536988.6866027.7073976.9154702,1.0402809l.1456056.1872366-.2288676.3536782h-7.7811676l-.2080315-.4576939h3.4745209Zm-2.2470034.7073564c1.2899434.7698029,1.9557099,1.6020111,1.9557099,2.4342194,0,.4785094-.2288676.6865821-.6657666.6865821-.2912935,0-.4577351-.2080726-.4993249-.6657666-.0624259-.6865821-.3953092-1.414754-1.0610758-2.1637414l.2704574-.2912935Zm8.9046693,3.8905838v.3120884c0,1.9764843-.1872777,3.6617162-.5617509,5.0348392-.4577351,1.6436216-1.2691073,3.0375806-2.4341988,4.2234671l-.3745555-.3120884c.9986499-1.4355489,1.6644165-3.0791705,1.976546-4.9100286.2080315-1.2899022.3120472-2.787877.3120472-4.5147194v-5.3261327c.4993249.1664416.8946341.3536782,1.2275174.4993249,1.4771387-.4577145,2.7046562-1.0610758,3.7449782-1.8724685.8321259.5409354,1.2691073.9362446,1.2691073,1.144276,0,.1248518-.1040981.1872571-.3328833.1872571-.1664416,0-.3328833-.0208155-.5409971-.0832208-1.2482712.4577145-2.6422303.8530237-4.2858106,1.144276v4.015415h4.2442208l.8737981-1.2274969c.4785712.4161041.8738804.8530031,1.1859276,1.2899022l-.1872777.3953092h-2.5382145v9.403953h-1.0818295v-9.403953h-2.4966247Z"/>
        <path class="cls-2" d="m240.1003769,17.3432513v.7697823c0,1.4979748-.5200787,2.6630663-1.5395646,3.4952746.9570601.1040157,1.4355489.2704574,1.4355489.4993249,0,.1248312-.2288676.2704574-.6866027.4161041v.7489874h5.659016l.9570601-.9986499c.3953092.2704574.8322082.6449717,1.2899434,1.1234811l-.2080315.3328833h-7.2818426c.0415898.0416104.0624259.0624053.1040157.0832208,1.893284,1.4979748,4.4939245,2.4550143,7.5523,3.099986-.3953092.3328833-.7073564.7073564-.8530443,1.144276-3.0583756-.9778344-5.4717383-2.3509986-7.2194167-4.0570048v4.8268078h-1.0818295v-4.1818567c-1.9972998,1.7268218-4.5563504,2.9751341-7.6979056,3.7657526l-.2081138-.4577351c3.0999654-.9778344,5.5758363-2.4134039,7.3651046-4.2234465h-6.9905492l-.2081138-.4577145h7.7395778v-1.414754c-.4993249.3328833-1.1443378.6241562-1.893284.8738186l-.2080315-.3952886c1.9556276-.8946341,2.9335237-2.2885932,2.9335237-4.2026722v-1.7268218c.2288676.1040363.5825046.2496625,1.0610758.4785094h3.0791293l.520161-.5617303c.6657666.4577145.9986499.7698029.9986499.9154291,0,.0624053-.0415898.1040363-.1456056.1664416l-.3745555.2496625v2.9335443c0,.3120678.2288676.4576939.6657666.4576939.3953092,0,.6450129-.1248106.7281925-.3952886.1456056-.3952886.2497036-1.0402603.2912935-1.9140789l.4784889.1664416c-.0207537.1664416-.0207537.3328833-.0207537.4993249,0,1.0610552.2288676,1.5603801.6657666,1.5395852,0,.4577145-.1664416.7281925-.4785712.8530031-.2496213.1248518-.7073564.1664416-1.3939591.1664416-.7281925,0-1.2066814-.0624053-1.4771387-.1664416-.3120472-.1248106-.4577351-.3952886-.4577351-.8530031v-3.5992903h-3.0999654Zm-3.0999654-3.4952746l.8113721-1.0818707c.3953092.3328833.7490286.7489874,1.0610758,1.1858864l-.2288676.3536782h-3.8905838c.9570601.5617509,1.4147952,1.1235017,1.4147952,1.7060475,0,.4576939-.2080315.6865615-.6241768.6865615-.3328833,0-.4993249-.2080521-.5617509-.6033407-.1040157-.7073976-.436899-1.2691279-.9569777-1.7892683h-.436899c-.7281925,1.2691279-1.7060886,2.3509986-2.91277,3.2664276l-.3328833-.3328833c1.3939591-1.414754,2.4341988-3.2040017,3.0999654-5.4093535,1.1026656.2080521,1.6435804.4161041,1.6435804.6449511,0,.1664416-.2496213.2912935-.8113721.3745143-.1456056.3952886-.2912935.7281719-.4160629.9986499h3.1415552Zm-1.9764637,3.9945995v2.6630663c1.0194036-.1664416,2.0596433-.3745143,3.0999654-.6033613l.0624259.4577145c-2.1013979.707377-4.1402874,1.2483124-6.1375872,1.6436216-.1040157.436899-.2080315.6657666-.3328833.6657666-.2496213,0-.4993249-.5617509-.7697823-1.6436216.7281925-.0832208,1.7476785-.1872366,3.0583756-.3744937v-2.8086925h-2.4550349l-.1664416-.4577351h4.8476438l.7906184-.936224c.436899.3953092.7905361.7489874,1.0402397,1.0818707l-.2080315.3120884h-2.829508Zm9.9864988-3.9945995l.8737981-1.1442966c.4160629.3744937.8113721.7905978,1.1858453,1.2483124l-.2080315.3536782h-5.2844605c1.0818295.5201404,1.6019906,1.0610758,1.6019906,1.6228266,0,.4161041-.2081138.6241356-.6033407.6241356-.3121296,0-.4994073-.1456261-.5617509-.436899-.1248518-.707377-.4993249-1.2899228-1.1650915-1.8100632h-.3121296c-.6449305.8946341-1.3939591,1.6644165-2.3301831,2.2885932l-.3120472-.270478c1.2482712-1.3107177,2.1221516-2.7878976,2.5798043-4.4523141,1.0403221.1664416,1.5604007.3744937,1.5604007.6241562,0,.1456261-.2496213.270478-.7281925.3744937-.1456056.3953092-.3120472.707377-.4784889.977855h4.1818773Zm-4.2443032,4.0570048c1.019486.7698029,1.5395646,1.5187903,1.5395646,2.2885726,0,.4577145-.2080315.6865615-.6449305.6865615-.2912935,0-.4784889-.228847-.4784889-.7489874-.0208361-.7281719-.2704574-1.373123-.7281925-1.9764843l.3120472-.2496625Z"/>
        <path class="cls-2" d="m251.5608025,20.8593208c2.5798867-2.1429465,4.4523346-4.9308235,5.6382623-8.3636928,1.1235017.3952886,1.6851702.707377,1.6851702.9570395,0,.1664416-.2496213.2912729-.7905361.4161041-.936224,1.9556894-1.9348739,3.536885-3.0167857,4.722792-.8530443.9154291-1.893284,1.8100426-3.2039811,2.6422508l-.3121296-.3744937Zm3.0376218-.9570395l-.1456879-.4785094h8.6133758l.7073564-.8322082c.7281925.5617303,1.1026656.936224,1.1026656,1.1234605,0,.0832208-.0623436.1872571-.1871954.270478l-.3953092.2912729c-.0208361,3.6825111-.3120472,6.0751201-.9153879,7.1777857-.3953092.7489874-1.1443378,1.1235017-2.1845775,1.1235017,0-.3745143-.2497036-.6449717-.7073564-.8322082-.3537194-.1456467-1.019486-.3120884-1.976546-.4577351v-.4993249c1.2483535.1664416,2.2470034.2496625,2.9335237.2496625.6450129,0,1.0819119-.3952886,1.2691896-1.1650915.3120472-1.3107177.4784889-3.3080174.4992426-5.9710838h-4.4522523c-.1872777,2.2469622-.7073564,4.0570048-1.6019906,5.4093535-.9570601,1.4771593-2.4550349,2.6214559-4.5147606,3.4744591l-.2704574-.4161041c2.1844951-1.1650915,3.6825523-2.787877,4.4314986-4.7851768.4160629-1.1026862.6657666-2.3509986.7697823-3.6825317h-2.9751136Zm6.9697131-7.4066533c1.7268424,3.0167651,3.8281579,5.2637274,6.3039465,6.7408867-.3744731.270478-.6865203.6449511-.9778138,1.144276-1.8308581-1.4355489-3.3288329-3.1207603-4.4523346-5.0348392-.4160629-.7281925-.8737981-1.6020111-1.3522869-2.5798455l.4784889-.270478Z"/>
        <path class="cls-2" d="m276.2533803,15.824461l.8530443-.9778344c.4161453.3328833.8113721.7073564,1.1650915,1.1234605l-.1872777.3328833h-5.9502271l-.1872777-.4785094h4.3066467Zm-.5617509,2.3509986l.7490286-.9570601c.3744731.270478.7490286.6449717,1.1235017,1.1026862l-.2081138.3120678h-4.5355143l-.1871954-.4576939h3.0582932Zm.0208361,2.3301831l.7281925-.9362446c.3744731.2912729.7490286.6449511,1.1235017,1.0610552l-.2497036.3536988h-4.4730884l-.2080315-.4785094h3.0791293Zm.3120472,2.3925884l.603423-.7489874c.7281101.5617303,1.1026656.9362446,1.1026656,1.1234811,0,.0624259-.0416722.1248312-.1456879.1872366l-.3952268.2288676v5.1388961h-1.019486v-1.2067225h-2.475871v1.2067225h-1.0402397v-6.4912242c.1248518.0415898.520161.228847,1.1650915.5617303h2.2053312Zm-.2496213-9.4247685l.7490286-.9986499c.3744731.3120884.7489462.6865821,1.1442554,1.1235017l-.1872777.3328833h-4.5563504l-.1871954-.4577351h3.0375395Zm-2.0805618,9.903278v3.7865681h2.475871v-3.7865681h-2.475871Zm9.9241553-.6657666c-.436899.4369196-.9778961.8946341-1.5604007,1.3731642v2.9335237c.8322082-.1456467,1.7892683-.3744937,2.8502617-.6449717l.1248518.4577351c-1.8308581.7073564-3.4744385,1.2066814-4.9932494,1.5187697-.0624259.4161041-.1871954.6241562-.3120472.6241562-.2288676,0-.4785712-.4993249-.7074388-1.5187903.7074388-.0832208,1.3732054-.1456261,1.9972998-.2496625v-2.4341988c-.9569777.5201199-2.1013155.936224-3.4120126,1.3107383l-.2288676-.4369196c2.0181359-.6865821,3.6408801-1.6644165,4.8683976-2.9335443h-4.3066467l-.1872777-.4785094h3.0167857v-1.5187903h-1.9557099l-.1871954-.4576939h2.1429053v-1.3731642h-2.3717729l-.1664416-.4785094h2.5382145v-1.7476373c1.1442554.0832208,1.7268424.2496625,1.7268424.4993249,0,.1456261-.2497036.3120678-.7073564.4577145v.7905978h2.7670821v-1.7892477c1.1234193.0832208,1.6851702.2496625,1.6851702.47853,0,.1456261-.2288676.2704574-.6657666.4161041v.8946136h1.2275174l.7074388-.8530237c.3328833.2912935.6240944.6241768.9153879.977855l-.2080315.3536782h-2.6423126v1.3731642h.9778961l.7281925-.8738392c.2080315.1872571.5200787.5201404.9153879.9570601l-.2080315.3744731h-2.4134451v1.5187903h1.6436627l.6865203-.8738186c.3953092.3536782.7074388.6657666.9363063.977855l-.2081138.3744731h-4.4106625c.3120472.8530237.7697823,1.6228266,1.3315332,2.3301831.6657666-.6033407,1.2899434-1.2899022,1.8308581-2.0597051.8113721.5201404,1.2066814.8738186,1.2066814,1.0818707,0,.1456261-.1456056.1872571-.4160629.1872571l-.4161453-.041631c-.4577351.3745143-1.0610758.7698029-1.893284,1.185907.7697823.8322082,1.893284,1.5811956,3.3704228,2.2261467-.3744731.3328833-.6657666.6865821-.8737981.9986499-2.4133627-1.3523281-3.9945995-3.3080174-4.6812022-5.9086785h-.0623436Zm-5.5966724-5.7214213c1.3939591-.6241562,2.4967071-1.3939385,3.3080792-2.3093676.9153879.3536782,1.3522869.6449511,1.3522869.8322082,0,.1664416-.2496213.2496625-.7697823.2496625h-.0207537c-1.0402397.6865615-2.2677571,1.2066814-3.5992903,1.5811956l-.2705397-.3536988Zm4.6603661-3.0167651v-1.9764843c1.1651739.0208155,1.7476785.1456261,1.7476785.3952886,0,.1248518-.2288676.270478-.6866027.4369196v1.144276h3.0376218l.8737981-1.0402397c.3953092.3536782.7697823.7489874,1.1026656,1.1650915l-.1872777.3536782h-10.1112683l-.2288676-.47853h4.4522523Zm-.8945518,4.9100286v1.3731642h2.7670821v-1.3731642h-2.7670821Zm0,1.8308581v1.5187903h2.7670821v-1.5187903h-2.7670821Zm2.746246-5.9502683c1.3939591.2496625,2.4341988.5825458,3.1415552.9986499.520161.3120678.7698647.6033407.7698647.9154291,0,.3536782-.1872777.5409148-.5409971.5409148-.1456056,0-.3120472-.0832208-.4576528-.2496625-.7698647-.7697823-1.8101044-1.373123-3.1208015-1.8100426l.2080315-.3952886Z"/>
        <path class="cls-2" d="m297.0970464,17.9673869c0,.1456467-.2288676.3120884-.7281925.4993249v10.3610131h-1.1026656v-9.6328206c-.7698647,1.2899228-1.5812368,2.4758298-2.4550349,3.536885l-.3744731-.2912729c1.9556276-2.8711184,3.4328487-6.3247826,4.4522523-10.4026029,1.2067637.3120884,1.8101044.6033407,1.8101044.8738186,0,.1664416-.2912935.2912729-.8738804.3952886-.436899,1.456385-.9986499,2.8503235-1.6644165,4.2026722.6241768.1040157.9363063.2496625.9363063.4576939Zm6.6576659,4.0778203v5.3261327h3.68247l.9570601-1.373123c.436899.3952886.8530443.8737981,1.2899434,1.4563438l-.2288676.3745143h-11.8797828l-.2288676-.4577351h5.2637068v-5.3261327h-4.0777792l-.2080315-.4576939h4.2858106v-4.4939245h-4.5979402l-.2080315-.47853h9.1542906l.8946341-1.2691073c.5200787.4785094.936224.936224,1.2275174,1.373123l-.2081138.3745143h-5.1180189v4.4939245h2.6213942l.8738804-1.2483124c.436899.4161041.8322082.8737981,1.2066814,1.3523281l-.2080315.3536782h-4.4939245Zm-2.7670821-9.9864988c2.0804794,1.0402809,3.1415552,2.0389308,3.1415552,3.0375806,0,.4993249-.2288676.7281719-.6866027.7281719-.3120472,0-.5200787-.2496625-.6865203-.7281719-.2912935-.9154291-.9986499-1.7892683-2.0389719-2.6422714l.2705397-.3953092Z"/>
        <path class="cls-2" d="m321.4567409,15.0546581v-2.9959496c1.289861.0208155,1.9348739.1664416,1.9348739.4577351,0,.1456261-.2912935.3328833-.8322082.5201199v2.0180947h5.7213595l.7906184-.9570189c.936224.8737981,1.4147952,1.4355489,1.4147952,1.7060063,0,.1456467-.083262.2080726-.2704574.2288676l-.6241768.1040157c-.4993249.6241768-1.0610758,1.2691279-1.7684322,1.893284l-.3537194-.2704574c.3744731-.7073976.6866027-1.4355695.8737981-2.2261673h-12.2958458v.3536782c0,.8946341-.1664416,1.6228266-.4577351,2.2053724-.2704574.4993249-.5617509.7489874-.936224.7489874-.1664416,0-.3537194-.0832208-.5200787-.2496625-.1456879-.1248518-.2081138-.270478-.2081138-.4369196,0-.2080521.1248518-.4161041.3537194-.6657666.6865203-.6865821,1.0402397-1.7684528,1.1442554-3.2040017l.4785712.0416104c.0623436.3120678.0831796.5409354.1040157.7281719h5.4509845Zm-.8946341,4.1194513c-1.8725303.4576939-3.6825523.8322082-5.4509845,1.1026656l-.2497036-.4577145c4.2027134-.8113927,7.6147259-1.9140789,10.1946126-3.3288329.936224.5409354,1.4147128.9362446,1.4147128,1.1650915,0,.1040363-.1456056.1664416-.3953092.1664416-.1871954,0-.4160629-.0416104-.6657666-.0832208-1.2482712.4577145-2.4966247.8530237-3.7241421,1.1650915v3.4952746l5.9087196-.8113927.9153879-1.4355695c.520161.3328833,1.0610758.7489874,1.6436627,1.2483124l-.2081138.3952886-8.2596564,1.1235017v3.6617162c0,.3328833.1040981.5201199.3121296.6241356.2496213.0624259,1.2066814.1248518,2.8502617.1248518,1.6228266,0,2.5798867-.0624259,2.8919339-.1664416.436899-.1664416.7906184-1.1650915.9778961-2.9959496l.4993249.228847c-.0208361.2496625-.0208361.5409354-.0208361.8322082,0,.8530237.0831796,1.3939385.2080315,1.6020111.083262.1664416.2704574.228847.5825869.228847-.0624259.6657666-.3953092,1.0194654-.9986499,1.1026862-.6450129.1040157-1.9348739.1664416-3.8281579.1664416-2.392609,0-3.765732-.0832208-4.1194513-.2912935-.3328833-.1872366-.4784889-.5825458-.4784889-1.2066814v-3.7449371l-6.3664548.8737981-.2496213-.4993249,6.6160761-.8946136v-3.3912383Z"/>
      </g>
      <g>
        <path class="cls-2" d="m104.3669934,15.1917674c.3598633,0,.9814453.0817871,1.4067383.0817871.4907227,0,.8669434-.0490723,1.3249512-.0490723.1962891,0,.2453613.0490723.2453613.0981445,0,.0654297-.1308594.114502-.2780762.1472168-.6542969.1308594-.7197266.3598633-.736084,1.7993164,0,.4580078-.0163574,2.09375,0,2.5517578,0,.2290039.0490723.2453613.114502.2126465.2453613-.2126465.4580078-.3762207.7687988-.6870117.4907227-.4743652,2.6008301-2.6008301,3.026123-3.1079102.1799316-.2126465.2617188-.310791.2617188-.425293,0-.1472168-.1799316-.2126465-.5234375-.2780762-.1799316-.0490723-.2453613-.0981445-.2453613-.1472168,0-.0654297.0981445-.1308594.2453613-.1308594.3435059,0,.621582.0327148,1.0632324.0163574.6379395-.0327148,1.3085938-.0817871,1.5703125-.0817871.1799316,0,.2290039.0490723.2290039.0817871,0,.0654297-.0981445.1308594-.2780762.1635742-.6870117.1308594-1.161377.3598633-1.9138184,1.0141602-.6379395.5561523-2.1264648,1.9956055-3.0915527,2.9770508-.0327148.0490723-.0817871.114502-.0817871.1472168s.0490723.0981445.1308594.1962891c.621582.7033691,3.6313477,4.1057129,4.4001465,4.8417969.5397949.5234375.8178711.6052246,1.2431641.6870117.2290039.0654297.310791.1308594.310791.1962891,0,.0981445-.1635742.1308594-.310791.1308594-.4089355,0-1.3413086-.0981445-1.9301758-.0981445-.5561523,0-.932373.0490723-1.1450195.0490723-.1962891,0-.310791-.0327148-.310791-.1308594,0-.0490723.0490723-.114502.2617188-.1799316.3598633-.0654297.425293-.1472168.425293-.2453613,0-.114502-.0981445-.2617188-.2780762-.4416504-1.2595215-1.5048828-3.4677734-3.8930664-3.7131348-4.1711426-.0981445-.0981445-.1308594-.114502-.1472168-.114502-.0654297,0-.0654297.0817871-.0817871.2780762v1.9301758c0,.8342285.0327148,1.8974609.0654297,2.2246094.0490723.3762207.2617188.4907227.7033691.5888672.2290039.0490723.3271484.0981445.3271484.1799316s-.1635742.114502-.310791.114502c-.4089355,0-.7687988-.0817871-1.4230957-.0817871-.5561523,0-1.0959473.0817871-1.3413086.0817871-.1962891,0-.2780762-.0654297-.2780762-.114502,0-.0654297.0490723-.114502.2944336-.1635742.4907227-.114502.6379395-.2944336.6706543-.6379395.0490723-.3598633.0981445-1.4067383.0981445-4.9562988.0163574-1.3249512-.0163574-3.1242676-.0490723-3.565918-.0654297-.5725098-.2780762-.621582-.736084-.736084-.114502-.0490723-.2290039-.0817871-.2290039-.1472168s.0981445-.0981445.2453613-.0981445Z"/>
        <path class="cls-2" d="m119.1515393,15.17541c.0490723.3598633.2126465.8015137.425293,1.357666,1.1450195,3.0424805,2.0283203,5.2670898,3.0424805,7.5734863.4089355.9650879.5725098,1.1123047.9814453,1.2104492.1962891.0327148.2780762.0981445.2780762.1472168,0,.0817871-.1472168.114502-.2944336.114502-.310791,0-.5725098-.0490723-1.4230957-.0490723-.6052246,0-1.2268066.0654297-1.6193848.0654297-.1799316,0-.2780762-.0327148-.2780762-.114502,0-.0654297.1472168-.1308594.310791-.1472168.6542969-.0981445.7524414-.3762207.736084-.736084-.0327148-.2780762-.5888672-1.7338867-1.1450195-3.1733398-.0490723-.114502-.1472168-.1962891-.2126465-.1962891-.621582.0327148-2.6826172.0327148-3.0424805.0327148-.0817871,0-.1799316.1799316-.2453613.310791-.1472168.3598633-.621582,1.5703125-.8505859,2.3718262-.1799316.621582-.1799316.932373,0,1.1123047.1472168.1472168.3598633.2126465.6870117.2780762.1635742.0490723.2453613.114502.2453613.1635742,0,.0817871-.1472168.114502-.3271484.114502-.310791,0-.9814453-.0817871-1.5703125-.0817871-.4089355,0-.7197266.0817871-1.1123047.0817871-.1799316,0-.2780762-.0327148-.2780762-.114502s.1635742-.114502.3271484-.1472168c.7524414-.1472168.8996582-.2944336,1.5212402-1.668457.4743652-1.0141602,1.9138184-4.5964355,2.8625488-7.0336914.0817871-.2126465.0981445-.3271484.0981445-.4580078,0-.0654297.0163574-.1635742.0490723-.1799316.1799316-.1308594.5234375-.4580078.5888672-.8342285.0327148-.0817871.0490723-.1635742.1308594-.1635742.0490723,0,.0817871.0654297.114502.1635742Zm.6542969,5.3652344c-.6542969-1.8483887-1.0959473-2.8952637-1.3413086-3.451416-.0490723-.1308594-.0817871-.0817871-.1308594.0327148-.3925781.932373-1.0632324,2.8134766-1.2922363,3.4841309-.0163574.0327148-.0163574.1472168.0490723.1472168.310791.0163574.7197266.0163574,1.2922363.0163574s1.2431641,0,1.4230957-.0654297c.0327148-.0163574.0327148-.0817871,0-.1635742Z"/>
        <path class="cls-2" d="m124.1870618,15.2081248c.3925781,0,1.0632324.0654297,1.5539551.0654297.3598633,0,.7524414-.0327148,1.0959473-.0327148.2290039,0,.3271484.0490723.3271484.114502,0,.0817871-.0981445.1308594-.2944336.1635742-.4580078.0817871-.4580078.2780762-.3271484.5725098.6706543,1.7011719,2.2900391,5.1853027,3.4023438,7.638916.0490723.114502.114502.0817871.1635742,0,.4580078-.932373.8505859-1.7502441,1.2922363-2.7971191.0327148-.0490723.0327148-.1635742.0327148-.1962891-.2617188-.621582-1.357666-3.1079102-1.7175293-3.8930664-.4743652-1.0141602-.6052246-1.2104492-1.1123047-1.3413086-.2617188-.0490723-.3435059-.114502-.3435059-.1962891,0-.0490723.0981445-.0981445.310791-.0981445.4743652,0,.7851562.0654297,1.3740234.0654297s.9650879-.0654297,1.3413086-.0654297c.1635742,0,.2780762.0327148.2780762.0981445,0,.0817871-.0981445.1308594-.310791.1799316-.4416504.0817871-.6052246.2780762-.3598633.8833008.2617188.6870117.7687988,1.7993164,1.2922363,3.0424805.0163574.0327148.0817871.0490723.1308594-.0327148.3925781-.8015137.736084-1.5539551,1.0795898-2.3554688.5070801-1.1940918.4907227-1.357666-.1962891-1.5212402-.310791-.0654297-.3598633-.1308594-.3598633-.1962891,0-.0490723.0981445-.0817871.2944336-.0817871.4089355,0,.6706543.0490723,1.0959473.0490723.5725098,0,.8342285-.0654297,1.2104492-.0654297.1962891,0,.2780762.0163574.2780762.0817871,0,.0817871-.0817871.1308594-.310791.1799316-.6052246.1308594-.9160156.4743652-1.4558105,1.4230957-.425293.8178711-1.2268066,2.4372559-1.5048828,2.9443359-.0163574.0327148-.0163574.114502.0163574.1962891.4089355.9650879,1.1286621,2.519043,1.6848145,3.7458496.0654297.114502.0981445.0981445.1472168,0,.7851562-1.7011719,2.7644043-6.28125,3.1079102-7.4916992.0817871-.3598633.0654297-.6379395-.4743652-.8015137-.2617188-.0817871-.3598633-.114502-.3598633-.1799316s.0490723-.0981445.2780762-.0981445c.425293,0,.6542969.0654297,1.1450195.0654297.4580078,0,.8996582-.0654297,1.1940918-.0654297.2126465,0,.2944336.0163574.2944336.0817871s-.0817871.1308594-.3762207.1799316c-.6870117.1799316-.9814453.5234375-2.0119629,2.8461914-1.0305176,2.2573242-2.3554688,5.348877-3.1079102,7.1481934-.114502.2780762-.1635742.3598633-.2453613.3598633-.114502,0-.1799316-.0981445-.2780762-.3598633-.3435059-.9978027-1.2758789-3.026123-1.7502441-4.072998-.0327148-.0654297-.0817871-.0654297-.114502-.0163574-.621582,1.2104492-1.4885254,3.1242676-1.8483887,4.072998-.0981445.2617188-.1962891.3762207-.2617188.3762207-.0981445,0-.1308594-.0817871-.2453613-.3762207-.2126465-.5397949-.7197266-1.7338867-.932373-2.2246094-.8996582-2.0773926-1.9956055-4.498291-2.7644043-6.1013184-.5888672-1.2758789-.7197266-1.5703125-1.3413086-1.6520996-.1962891-.0163574-.3435059-.0817871-.3435059-.1472168,0-.0490723.114502-.114502.3271484-.114502Z"/>
        <path class="cls-2" d="m144.9899182,15.17541c.0490723.3598633.2126465.8015137.425293,1.357666,1.1450195,3.0424805,2.0283203,5.2670898,3.0424805,7.5734863.4089355.9650879.5725098,1.1123047.9814453,1.2104492.1962891.0327148.2780762.0981445.2780762.1472168,0,.0817871-.1472168.114502-.2944336.114502-.310791,0-.5725098-.0490723-1.4230957-.0490723-.6052246,0-1.2268066.0654297-1.6193848.0654297-.1799316,0-.2780762-.0327148-.2780762-.114502,0-.0654297.1472168-.1308594.310791-.1472168.6542969-.0981445.7524414-.3762207.736084-.736084-.0327148-.2780762-.5888672-1.7338867-1.1450195-3.1733398-.0490723-.114502-.1472168-.1962891-.2126465-.1962891-.621582.0327148-2.6826172.0327148-3.0424805.0327148-.0817871,0-.1799316.1799316-.2453613.310791-.1472168.3598633-.621582,1.5703125-.8505859,2.3718262-.1799316.621582-.1799316.932373,0,1.1123047.1472168.1472168.3598633.2126465.6870117.2780762.1635742.0490723.2453613.114502.2453613.1635742,0,.0817871-.1472168.114502-.3271484.114502-.310791,0-.9814453-.0817871-1.5703125-.0817871-.4089355,0-.7197266.0817871-1.1123047.0817871-.1799316,0-.2780762-.0327148-.2780762-.114502s.1635742-.114502.3271484-.1472168c.7524414-.1472168.8996582-.2944336,1.5212402-1.668457.4743652-1.0141602,1.9138184-4.5964355,2.8625488-7.0336914.0817871-.2126465.0981445-.3271484.0981445-.4580078,0-.0654297.0163574-.1635742.0490723-.1799316.1799316-.1308594.5234375-.4580078.5888672-.8342285.0327148-.0817871.0490723-.1635742.1308594-.1635742.0490723,0,.0817871.0654297.114502.1635742Zm.6542969,5.3652344c-.6542969-1.8483887-1.0959473-2.8952637-1.3413086-3.451416-.0490723-.1308594-.0817871-.0817871-.1308594.0327148-.3925781.932373-1.0632324,2.8134766-1.2922363,3.4841309-.0163574.0327148-.0163574.1472168.0490723.1472168.310791.0163574.7197266.0163574,1.2922363.0163574s1.2431641,0,1.4230957-.0654297c.0327148-.0163574.0327148-.0817871,0-.1635742Z"/>
        <path class="cls-2" d="m158.4822278,15.2735545c.4089355.114502.9160156.310791,1.1123047.3925781.0981445.0327148.1635742.2126465.1635742.3762207.0163574.1472168.114502.8669434.1472168,1.0632324.0490723.2126465-.0327148.310791-.0817871.310791-.0817871,0-.0981445-.0327148-.1962891-.2617188-.4580078-1.1940918-1.4230957-1.9301758-3.140625-1.9301758-1.1450195,0-2.2736816.4907227-3.026123,1.3085938-.7851562.8505859-1.3740234,2.208252-1.3740234,3.9421387,0,1.9465332,1.046875,3.4023438,1.8974609,4.1220703.7524414.621582,1.6520996.9487305,2.5026855.9487305.6870117,0,1.4230957-.2780762,1.8320312-.6870117.1799316-.2126465.2126465-.4743652.2453613-.8833008.0327148-.310791.0654297-1.357666.0163574-1.8647461-.0490723-.5561523-.2453613-.736084-.932373-.8505859-.1635742-.0163574-.310791-.0654297-.310791-.1308594s.0981445-.114502.4089355-.114502c.3598633,0,.7851562.0654297,1.4394531.0654297.5397949,0,.932373-.0490723,1.046875-.0490723.1635742,0,.2780762.0490723.2780762.0981445,0,.0981445-.1799316.1472168-.3271484.1799316-.2617188.0654297-.3598633.1962891-.3598633,1.0632324,0,.8015137.0817871,1.8320312.0817871,2.0610352,0,.2126465.0163574.3271484-.114502.3925781-.1799316.0817871-.4580078.2126465-.8015137.3925781-.7197266.310791-1.6193848.6052246-2.4699707.6052246-1.7338867,0-3.1079102-.5888672-4.1220703-1.4885254-1.161377-.9814453-1.7666016-2.3227539-1.7666016-3.8930664,0-1.7011719.6706543-3.1242676,2.208252-4.302002.736084-.5397949,1.782959-1.161377,3.7785645-1.161377.8015137,0,1.4558105.1962891,1.8647461.2944336Z"/>
        <path class="cls-2" d="m172.5631604,20.5242869c0,2.6335449-1.782959,4.2529297-3.0424805,4.809082-.6706543.2944336-1.4230957.4907227-2.1755371.4907227-2.9606934,0-5.3815918-2.5354004-5.3815918-5.5288086,0-1.6357422.5561523-3.0915527,2.1264648-4.2856445.8342285-.6542969,2.1101074-1.0305176,3.1733398-1.0305176,2.8461914,0,5.2998047,2.4863281,5.2998047,5.545166Zm-8.0314941-4.072998c-.8178711.9814453-1.161377,2.4536133-1.161377,3.7785645,0,1.2595215.4907227,2.6662598,1.2595215,3.6313477.9650879,1.2758789,2.0773926,1.6520996,2.9934082,1.6520996.5888672,0,1.2104492-.1799316,1.7502441-.6542969.7687988-.6052246,1.782959-2.0283203,1.782959-4.3347168,0-1.4230957-.4743652-2.829834-1.3903809-3.9584961-.5888672-.7033691-1.472168-1.3413086-2.7807617-1.3413086-.932373,0-1.9465332.6379395-2.4536133,1.2268066Z"/>
        <path class="cls-2" d="m174.1958508,15.2081248c.3925781,0,.8996582.0654297,1.3740234.0654297.8669434,0,3.0915527-.0327148,3.7458496-.0327148.6052246,0,.8342285-.0327148.9978027-.0327148.0654297,0,.1308594.0981445.1635742.2617188.0163574.1799316.0490723.7851562.114502,1.1123047.0163574.0981445,0,.2453613-.0654297.2453613-.0490723,0-.0981445-.0490723-.1799316-.2290039-.2780762-.6870117-.5888672-.932373-.8833008-.9978027-.3762207-.0654297-2.5354004-.0654297-3.0588379-.0490723-.1308594.0163574-.1962891.0490723-.1962891.6379395v3.7458496c0,.1962891.0490723.2617188.0981445.2617188h2.0610352c.7524414,0,.9487305-.0327148,1.0959473-.114502.114502-.0654297.2617188-.2617188.425293-.621582.0490723-.114502.0981445-.1799316.1635742-.1799316.0490723,0,.0817871.0817871.0817871.1799316s-.0654297.6052246-.0981445.8669434c-.0327148.2944336.0163574.8015137.0327148.9160156.0490723.2290039-.0654297.3271484-.0981445.3271484-.0654297,0-.0817871-.0817871-.1962891-.3435059-.0490723-.1472168-.1635742-.4580078-.4089355-.5234375-.3762207-.0817871-.8178711-.0981445-3.026123-.0981445-.114502,0-.1308594.0327148-.1308594.310791,0,.8342285.0490723,3.1242676.0490723,3.4350586,0,.1799316.1308594.6052246.425293.736084.2617188.114502.5234375.1635742,1.6193848.1635742,1.3740234,0,1.668457-.0327148,1.9956055-.3271484.1635742-.1635742.425293-.5561523.5888672-.7851562.1635742-.2126465.2290039-.2780762.2944336-.2780762s.0817871.114502.0163574.2944336c-.0981445.3762207-.2780762,1.0632324-.3598633,1.2431641-.0654297.114502-.1472168.1962891-.2617188.1962891-1.7338867,0-3.5822754-.0654297-4.9072266-.0654297-.5561523,0-1.472168.0817871-1.6520996.0817871-.2126465,0-.310791-.0490723-.310791-.114502s.114502-.0981445.2944336-.1472168c.5561523-.0817871.8833008-.2944336.8996582-1.0305176.0817871-2.6008301.0817871-4.4001465.0817871-7.6062012,0-.932373-.1962891-1.1286621-.7851562-1.2595215-.1635742-.0327148-.2453613-.0817871-.2453613-.1472168,0-.0490723.114502-.0981445.2453613-.0981445Z"/>
      </g>
    </g>
  </g>
</svg>