<?xml version="1.0" encoding="UTF-8"?>
<svg id="_レイヤー_2" data-name="レイヤー 2" xmlns="http://www.w3.org/2000/svg" viewBox="0 0 181.2384799 74.2734007">
  <defs>
    <style>
      .cls-1 {
        fill: #231815;
      }

      .cls-1, .cls-2 {
        stroke-width: 0px;
      }
    </style>
  </defs>
  <g id="_レイヤー_3" data-name="レイヤー 3">
    <g>
      <path class="cls-1" d="m12.0599544,20.0876375h1.9561517c.6324721,0,1.4435529.1057235,1.4435529.8620737v6.8031094s-2.2004371.8076475-6.1754805.8076475c-3.9729076,0-9.2841786-2.1876221-9.2841786-8.2466998,0-6.05534,5.5408725-8.4124934,9.6333865-8.4124934,1.8474915,0,4.1507153.1089272,4.1507153,1.1456049v2.0226293c-1.554883-1.268682-2.1860202-1.5039278-4.5485133-1.5039278-2.3721043,0-6.6143932,1.552251-6.6143932,6.6109601,0,5.0325453,5.6882447,8.0376556,10.4241769,6.1357005v-3.861615c0-.8099753-.0640748-2.3629894-.9854178-2.3629894Z"/>
      <path class="cls-1" d="m41.7669229,28.1482533h5.012522c-1.380813-.5187393-1.9561517-2.1854862-2.4204274-3.3999716-.4666785-1.205942-4.0962517-10.0317182-4.4916469-11.2432668-.4122149-1.2083448-.9792773-1.2083448-1.4520963-1.2083448h-2.8700193c1.3781432.4637417.6188562,1.4435529.3892547,2.1339216-.2261308.6872405-5.0669856,12.6892602-5.0669856,12.6892602-1.6758243-.4610719-5.895153-6.6338825-5.895153-6.6338825,5.5940012-1.6096135,4.7404709-8.1892994-.7424673-8.1892994h-6.2868105c1.2718857.2867349,1.157085,1.6184238,1.157085,2.6551015v10.8961947c0,1.4956137-.4632078,1.9048544-1.2115486,2.300287h4.6088504c-1.2660122-.5732029-.9285513-1.901955-.9285513-2.5346941v-11.7558655h2.4869051c1.3324899,0,2.3056266,1.6157541,2.3056266,2.7122349,0,1.7762081-1.3890893,2.4724881-2.7637618,2.9882907-1.3893563.5179383-.6359429,1.6726205,0,2.5920945.6322052.9253476,2.474891,3.525414,3.5799152,4.7949344,1.0916752,1.2689489,2.0733553,1.2030052,2.5896918,1.2030052h4.1504483c-1.6066768-.5125988-.7448701-1.7754072-.5184723-2.4113501.235742-.6391466,1.2694829-3.3489787,1.2694829-3.3489787h6.2275413s.7531464,1.9561517,1.4435529,3.6947159c.6989498,1.7214776.1655267,1.9537489-.5729359,2.0656129Zm-6.4624824-7.6054173l2.3624931-6.1696068,2.5413687,6.1696068h-4.9038617Z"/>
      <path class="cls-1" d="m92.2747231,28.1482533h5.0272058c-1.392827-.5187393-1.964695-2.1854862-2.4228302-3.3999716-.4584021-1.205942-4.0973196-10.0317182-4.4975204-11.2432668-.4076762-1.2083448-.9744717-1.2083448-1.4472906-1.2083448h-2.8774946c1.3917591.4637417.6324721,1.4435529.397798,2.1339216-.2296015.6872405-5.0755289,12.6892602-5.0755289,12.6892602-.3214422.7534134-.7942611.7646265-1.0916752,1.0284013h4.1531181c-1.6154871-.5125988-.7510106-1.7754072-.5211421-2.4113501.2285336-.6391466,1.2742885-3.3489787,1.2742885-3.3489787h6.2251385s.759287,1.9561517,1.4483586,3.6947159c.6880037,1.7214776.1668616,1.9537489-.5924254,2.0656129Zm-6.4499344-7.6054173l2.3624931-6.1696068,2.5352282,6.1696068h-4.8977212Z"/>
      <path class="cls-1" d="m74.5361353,28.4432645c.5753387-.5211421,1.0964808-.9280548,1.0964808-2.7675369v-10.898827c0-.8618067-.0664777-1.8504282-1.0964808-2.1934956h4.4310427c-.4581352.4090111-1.0059751.9216099-1.0059751,2.0818986v11.010424c0,.9830524-.2007679,2.4271393,1.0711179,2.7675369h-4.4961855Z"/>
      <path class="cls-1" d="m50.6434253,15.9831096s-.0568664,8.7047974-.0568664,9.692618c0,.9830524.1172036,2.4271393,1.3856186,2.7675369h-4.2134552c.5876198-.5211421,1.0372116-.9280548,1.0372116-2.7675369,0-1.8413134.1233441-10.0420929.1233441-10.898827,0-.8618067-.1233441-1.8504282-1.1605557-2.1934956h3.2400515l9.6819766,12.1648766v-9.9107769c0-.6388796.1172036-1.8450886-1.2091458-2.3061605h4.3223825c-.5125988.3951282-1.2756234.5729359-1.2756234,2.2455564v14.3076463s-1.2030053.2207912-3.159157-2.1392989c-1.9670978-2.3600902-8.7157813-10.9621384-8.7157813-10.9621384Z"/>
      <path class="cls-1" d="m78.2017506,40.7202722c-12.6812134-10.6901246-17.5354172-23.2706495-.1884868-40.4371018.5441023-.5438353,1.0591038-.2205243.6322052.2661776-7.6022138,8.6938509-16.0835879,22.5970626-.17407,39.6412389.2466882.2576343.1548476.8246967-.2696483.5296854Z"/>
    </g>
    <g>
      <path class="cls-2" d="m6.3661389,66.6255736c-1.4494629,2.1894836-3.3305664,4.1014709-5.6741943,5.7358704l-.4934082-.5550842c2.7137451-2.3128357,4.7181396-4.872406,5.9825439-7.7095032H1.1853528l-.2775879-.7092896h5.458374v-3.2687988c1.7269287.0924988,2.6212158.3083496,2.6212158.6167603,0,.1849976-.3701172.4008789-1.0793457.647583v2.0044556h2.8062744l1.1717529-1.5418701c.6168213.647583,1.1411133,1.2026672,1.5419922,1.7577515l-.3083496.4934082h-5.2116699v1.1101685c3.114624,1.1409912,4.6564941,2.3128662,4.6564941,3.6388855,0,.6167603-.2774658.9251404-.8326416.9251404-.2774658,0-.5550537-.2158813-.8326416-.6784363-.7092285-1.1410217-1.6651611-2.1894836-2.9912109-3.052948v8.0178833h-1.5418701v-7.4319763Zm1.5109863-7.7095032c.7093506-1.6343994,1.2335205-3.2996826,1.6343994-4.9957581,1.5419922.5550842,2.3128662,1.0176697,2.3128662,1.3568726,0,.2158508-.3392334.3392029-1.1101074.3700562-.4008789.8634644-1.1102295,1.9427795-2.0045166,3.2688293h2.6520996l1.1409912-1.6035767c.5550537.5859375,1.0177002,1.1718445,1.4185791,1.7577515l-.3083496.5551147H.8461194l-.2775879-.7092896h7.3085938Zm-1.5109863-5.9517212v-3.7930908c1.7576904.061676,2.6519775.3083801,2.6519775.6784363,0,.2158508-.3699951.4625549-1.1101074.709259v2.4053955h2.8062744l1.1101074-1.6652832c.5550537.5242615,1.0177002,1.0485229,1.3569336,1.5419312l.2158203.2775269-.3392334.524231H1.5244641l-.3083496-.6784058h5.1500244Zm-3.3305664,1.0484619c1.9119873,1.1410217,2.8988037,2.3745422,2.8988037,3.6080627,0,.709259-.3392334,1.0176697-.9868164,1.0176697-.4317627,0-.6784668-.3084106-.7401123-.9868164-.0925293-1.0176697-.5859375-2.0969849-1.5727539-3.2071533l.4008789-.4317627Zm13.1987305,5.7667236v.4625854c0,2.9295959-.2775879,5.4274902-.8326416,7.4627686-.6784668,2.4362183-1.8811035,4.5023804-3.6080322,6.2601318l-.5551758-.4625854c1.4802246-2.1278076,2.467041-4.5640259,2.9296875-7.277771.3083496-1.9119263.4625244-4.1322632.4625244-6.6918335v-7.8945312c.7401123.2467041,1.3260498.524231,1.819458.7401123,2.1894531-.6784363,4.0089111-1.5727539,5.5509033-2.7754211,1.2333984.8017883,1.8811035,1.3877258,1.8811035,1.6960754,0,.1850586-.1542969.2775574-.4934082.2775574-.2467041,0-.4934082-.0308533-.8018799-.1233521-1.8502197.6784363-3.9163818,1.2643738-6.3525391,1.6960754v5.9517517h6.2908936l1.295166-1.8194275c.7093506.6167603,1.2952881,1.2643433,1.7578125,1.9119263l-.2775879.5859375h-3.762207v13.9387817h-1.6035156v-13.9387817h-3.7005615Z"/>
      <path class="cls-2" d="m45.7106214,57.0349669v1.1409912c0,2.2203369-.770874,3.9472656-2.2819824,5.1807861,1.4185791.1541748,2.1278076.4008789,2.1278076.7401123,0,.1850281-.3392334.4008789-1.0177002.6167603v1.1101685h8.3879395l1.4185791-1.4802246c.5859375.4008789,1.2335205.9559937,1.9119873,1.6652527l-.3083496.4934082h-10.793335c.0616455.061676.0925293.0924988.1541748.1233521,2.8062744,2.2203369,6.6610107,3.6388855,11.1942139,4.5948792-.5859375.4934082-1.0484619,1.0484619-1.2644043,1.6960754-4.5332031-1.4493713-8.1103516-3.4847107-10.7008057-6.0133972v7.1544189h-1.6035156v-6.1984558c-2.9604492,2.5595398-6.75354,4.4098206-11.4100342,5.5816956l-.3084717-.6784668c4.5948486-1.4493713,8.2646484-3.5772095,10.916748-6.2601013h-10.3615723l-.3084717-.6784363h11.4718018v-2.0969849c-.7401123.4934082-1.696167.9251404-2.8062744,1.2951965l-.3083496-.585907c2.8986816-1.3260498,4.3481445-3.3922119,4.3481445-6.2293091v-2.5595398c.3392334.1542053.8634033.3700562,1.5727539.709259h4.5639648l.7709961-.8326111c.9868164.6784363,1.4802246,1.1410217,1.4802246,1.3568726,0,.0924988-.0616455.1542053-.2158203.2467041l-.5551758.3700562v4.348175c0,.4625549.3392334.6784058.9868164.6784058.5859375,0,.9560547-.1849976,1.0793457-.585907.2158203-.585907.3701172-1.5419006.4317627-2.8370972l.7092285.2467041c-.0307617.2467041-.0307617.4934082-.0307617.7401123,0,1.5727234.3392334,2.3128357.9868164,2.2820129,0,.6784363-.2467041,1.0793457-.7093506,1.2643433-.3699951.1850586-1.0484619.2467041-2.0661621.2467041-1.0793457,0-1.7885742-.0924988-2.1894531-.2467041-.4625244-.1849976-.6784668-.585907-.6784668-1.2643433v-5.3349609h-4.5948486Zm-4.5948486-5.1807861l1.2026367-1.6035767c.5859375.4934082,1.1102295,1.1101685,1.5727539,1.7577515l-.3392334.524231h-5.7667236c1.4185791.8326416,2.0970459,1.6652832,2.0970459,2.5287476,0,.6784058-.3083496,1.0176392-.9251709,1.0176392-.4934082,0-.7401123-.3083801-.8326416-.8942871-.1541748-1.0485229-.647583-1.881134-1.418457-2.6520996h-.647583c-1.0793457,1.881134-2.5288086,3.4847107-4.3173828,4.8415833l-.4934082-.4934082c2.0661621-2.0969849,3.6080322-4.749054,4.5948486-8.0178833,1.6343994.3083801,2.4361572.6167603,2.4361572.9559631,0,.2467041-.3699951.4317627-1.2026367.5551147-.2158203.585907-.4317627,1.0793152-.6166992,1.4802246h4.6564941Zm-2.9295654,5.9208984v3.9472656c1.5109863-.2467041,3.0528564-.5551147,4.5948486-.8943176l.0925293.6784363c-3.1147461,1.0484924-6.1368408,1.8502808-9.09729,2.4362183-.1541748.647583-.3083496.9868164-.4934082.9868164-.3699951,0-.7401123-.8326416-1.1409912-2.4362183,1.0793457-.1233521,2.5904541-.2775269,4.5332031-.5550842v-4.1631165h-3.638916l-.2467041-.6784668h7.1853027l1.171875-1.3876953c.647583.5859375,1.1717529,1.1101685,1.5418701,1.6035767l-.3083496.4625854h-4.1939697Zm14.8022461-5.9208984l1.295166-1.696106c.6166992.5550842,1.2026367,1.1718445,1.7576904,1.8502808l-.3083496.524231h-7.8327637c1.6035156.7709656,2.3745117,1.5727539,2.3745117,2.4053955,0,.6167603-.3084717.9251099-.8942871.9251099-.4626465,0-.7402344-.2158508-.8326416-.647583-.1850586-1.0484924-.7401123-1.9119568-1.7269287-2.6829224h-.4626465c-.9559326,1.3260498-2.0661621,2.467041-3.4538574,3.3922119l-.4625244-.4009094c1.8502197-1.9427795,3.1455078-4.1322937,3.8238525-6.5993347,1.5419922.2467041,2.3128662.5550842,2.3128662.9251404,0,.2158508-.3699951.4009094-1.0793457.5550842-.2158203.5859375-.4625244,1.0484924-.7092285,1.4494019h6.1984863Zm-6.2910156,6.0133972c1.5111084,1.1410217,2.2819824,2.2511902,2.2819824,3.3921814,0,.6784363-.3083496,1.0176392-.9559326,1.0176392-.4317627,0-.7092285-.3392029-.7092285-1.1101685-.0308838-1.0793152-.4008789-2.0352783-1.0793457-2.9295959l.4625244-.3700562Z"/>
      <path class="cls-2" d="m62.6975598,62.2465758c3.8239746-3.1763306,6.5993652-7.3085938,8.3571777-12.3968811,1.6652832.585907,2.4978027,1.0484924,2.4978027,1.4185486,0,.2467041-.3699951.4317322-1.1717529.6167603-1.3876953,2.8987732-2.8679199,5.2424622-4.4715576,7.0002441-1.2644043,1.3568726-2.8062744,2.6828918-4.7490234,3.9164124l-.4626465-.5550842Zm4.5024414-1.4185486l-.2159424-.709259h12.7669678l1.0484619-1.2335205c1.0793457.8326111,1.6343994,1.3876953,1.6343994,1.6652222,0,.1233521-.0924072.2775574-.2774658.4009094l-.5859375.4317322c-.0308838,5.458313-.4625244,9.0046997-1.3568115,10.6390991-.5859375,1.1101685-1.696167,1.6652832-3.2380371,1.6652832,0-.5551147-.3701172-.9559937-1.0484619-1.2335205-.524292-.2158813-1.5111084-.4625854-2.9296875-.6784668v-.7401123c1.8503418.2467041,3.3305664.3700562,4.3481445.3700562.9560547,0,1.6036377-.585907,1.8812256-1.7269287.4625244-1.9427795.7092285-4.9032288.7399902-8.8504944h-6.5992432c-.2775879,3.3305054-1.0484619,6.0133972-2.3745117,8.0178833-1.4185791,2.1894836-3.638916,3.8855896-6.6918945,5.1499329l-.4008789-.6167603c3.237915-1.7269287,5.458374-4.1322632,6.5684814-7.0927124.6166992-1.6344299.9868164-3.4847107,1.1409912-5.4583435h-4.40979Zm10.3306885-10.9783325c2.5595703,4.4715271,5.6741943,7.8020325,9.3438721,9.9915161-.5550537.4009094-1.0175781.9559631-1.4493408,1.6960754-2.7137451-2.1278076-4.934082-4.6256714-6.5993652-7.4627686-.6166992-1.0793457-1.295166-2.3745422-2.0043945-3.8239136l.7092285-.4009094Z"/>
      <path class="cls-2" d="m99.2975354,54.7837767l1.2644043-1.4493713c.6168213.4934082,1.2026367,1.0484619,1.7269287,1.6652222l-.2775879.4934082h-8.8195801l-.2775879-.709259h6.3834229Zm-.8326416,3.4847107l1.1102295-1.4185791c.5550537.4009094,1.1102295.9559937,1.6652832,1.6344299l-.3084717.4625549h-6.7226562l-.2774658-.6784058h4.5330811Zm.0308838,3.4538574l1.0793457-1.3877258c.5550537.4317322,1.1102295.9559631,1.6652832,1.5727234l-.3701172.5242615h-6.630127l-.3083496-.709259h4.5639648Zm.4625244,3.5463562l.8944092-1.1101685c1.0792236.8326111,1.6343994,1.3877258,1.6343994,1.6652527,0,.0925293-.0617676.1850281-.2159424.2775269l-.5858154.3392334v7.6170044h-1.5111084v-1.7886353h-3.6697998v1.7886353h-1.5418701v-9.62146c.1850586.0616455.7709961.3392029,1.7269287.8326111h3.2687988Zm-.3699951-13.969635l1.1102295-1.4802246c.5550537.4625854,1.1101074,1.0176697,1.6960449,1.6652832l-.2775879.4934082h-6.75354l-.2774658-.6784668h4.5023193Zm-3.0838623,14.678894v5.6125488h3.6697998v-5.6125488h-3.6697998Zm14.7098389-.9868164c-.647583.6476135-1.4494629,1.3260498-2.3128662,2.0353394v4.3481445c1.2335205-.2158813,2.6520996-.5550842,4.2247314-.9559937l.1850586.6784668c-2.7137451,1.0484619-5.1499023,1.7885742-7.401123,2.2511597-.0925293.6167603-.2774658.9251404-.4625244.9251404-.3392334,0-.7093506-.7401123-1.048584-2.2511902,1.048584-.1233521,2.0354004-.2158508,2.9604492-.3700562v-3.6080322c-1.418457.7709351-3.114624,1.3876953-5.057373,1.9428101l-.3392334-.6476135c2.991333-1.0176697,5.3966064-2.467041,7.2160645-4.348175h-6.3834229l-.2775879-.709259h4.4715576v-2.2511902h-2.8988037l-.2774658-.6784058h3.1762695v-2.0353394h-3.5155029l-.2467041-.709259h3.762207v-2.5903931c1.6960449.1233521,2.5595703.3700562,2.5595703.7401123,0,.2158508-.3701172.4625549-1.0484619.6784363v1.1718445h4.1014404v-2.6520691c1.6651611.1233521,2.4978027.3700562,2.4978027.7092896,0,.2158508-.3392334.4008789-.9868164.6167603v1.3260193h1.819458l1.048584-1.2643738c.4934082.4317627.9250488.9251709,1.3568115,1.4494019l-.3083496.524231h-3.9165039v2.0353394h1.4494629l1.0793457-1.2952271c.3083496.2775574.770874.7709656,1.3568115,1.4185791l-.3083496.5550537h-3.5772705v2.2511902h2.4362793l1.0175781-1.2951965c.5859375.524231,1.048584.9868164,1.3878174,1.4494019l-.3084717.5550537h-6.5375977c.4625244,1.2643738,1.1409912,2.4053955,1.9736328,3.4538574.9868164-.8942871,1.9119873-1.9119263,2.7137451-3.052948,1.2026367.7709656,1.7885742,1.2951965,1.7885742,1.6035767,0,.2158508-.2158203.2775574-.6166992.2775574l-.6168213-.0617065c-.6784668.5551147-1.5727539,1.1410217-2.8062744,1.757782,1.1409912,1.2335205,2.8062744,2.343689,4.9957275,3.2996521-.5550537.4934082-.9868164,1.0176697-1.295166,1.4802246-3.5771484-2.0044556-5.9208984-4.9032288-6.9385986-8.7579956h-.0924072Zm-8.2955322-8.4804382c2.0661621-.9251404,3.7006836-2.0661316,4.9033203-3.4230042,1.3568115.524231,2.0043945.9559631,2.0043945,1.2335205,0,.2467041-.3699951.3700562-1.1409912.3700562h-.0307617c-1.5418701,1.0176392-3.3613281,1.7885742-5.3349609,2.343689l-.401001-.5242615Zm6.9077148-4.4715271v-2.9295959c1.7270508.0308533,2.5904541.2158508,2.5904541.585907,0,.1850586-.3392334.4009094-1.0177002.6476135v1.6960754h4.5024414l1.295166-1.5418701c.5859375.524231,1.1409912,1.1101685,1.6343994,1.7269287l-.2775879.524231h-14.9871826l-.3392334-.7092896h6.5992432Zm-1.3259277,7.277771v2.0353394h4.1014404v-2.0353394h-4.1014404Zm0,2.7137451v2.2511902h4.1014404v-2.2511902h-4.1014404Zm4.0705566-8.8196411c2.0661621.3700562,3.6080322.8634644,4.6564941,1.4802246.7709961.4625549,1.1411133.8942871,1.1411133,1.3568726,0,.524231-.2775879.8017578-.8018799.8017578-.2158203,0-.4625244-.1233521-.6783447-.3700562-1.1411133-1.1409912-2.6829834-2.0352783-4.6257324-2.6828918l.3083496-.585907Z"/>
      <path class="cls-2" d="m130.1925549,57.9600767c0,.2158813-.3392334.4625854-1.0793457.7401123v15.3573608h-1.6343994v-14.2780151c-1.1411133,1.9119568-2.34375,3.6697388-3.638916,5.2424622l-.5550537-.4317322c2.8986816-4.2556458,5.0882568-9.3747559,6.5992432-15.4190063,1.7886963.4625854,2.6829834.8942871,2.6829834,1.2951965,0,.2467041-.4317627.4317322-1.2952881.585907-.647583,2.1586914-1.4802246,4.224823-2.467041,6.2293091.9251709.1541748,1.3878174.3700562,1.3878174.6784058Zm9.8681641,6.0442505v7.8945312h5.458252l1.4185791-2.0352783c.647583.585907,1.2644043,1.295166,1.9119873,2.1586304l-.3392334.5551147h-17.6085205l-.3392334-.6784668h7.802002v-7.8945312h-6.0441895l-.3083496-.6784058h6.3525391v-6.6610107h-6.8151855l-.3083496-.7092896h13.5687256l1.3260498-1.8811035c.770874.709259,1.3876953,1.3876953,1.819458,2.0352783l-.3084717.5551147h-7.5860596v6.6610107h3.885498l1.2952881-1.8502808c.647583.6167603,1.2335205,1.295166,1.7885742,2.0044556l-.3083496.524231h-6.6610107Zm-4.1014404-14.8022461c3.0837402,1.5419312,4.6564941,3.0221558,4.6564941,4.5023804,0,.7401123-.3392334,1.0793152-1.0177002,1.0793152-.4625244,0-.770874-.3700562-1.0175781-1.0793152-.4317627-1.3568726-1.4802246-2.6520996-3.0222168-3.9164429l.401001-.5859375Z"/>
      <path class="cls-2" d="m166.2991223,53.642755v-4.4406738c1.9118652.0308533,2.8679199.2467041,2.8679199.6784668,0,.2158508-.4317627.4934082-1.2335205.7709351v2.991272h8.4803467l1.171875-1.4185181c1.3876953,1.295166,2.0970459,2.1278076,2.0970459,2.5286865,0,.2158813-.1234131.3084106-.4008789.3392334l-.9251709.1541748c-.7401123.9251709-1.5727539,1.881134-2.6212158,2.8062744l-.524292-.4008789c.5550537-1.0485229,1.0177002-2.1278381,1.295166-3.2996826h-18.2252197v.524231c0,1.3260498-.2467041,2.4053955-.6784668,3.2688599-.4008789.7401123-.8326416,1.1101685-1.3876953,1.1101685-.2467041,0-.524292-.1233521-.770874-.3700562-.2159424-.1850586-.3084717-.4009094-.3084717-.6476135,0-.3083801.1850586-.6167603.524292-.9868164,1.0175781-1.0176697,1.5418701-2.6212463,1.6960449-4.749054l.7093506.061676c.0924072.4625549.123291.8017883.1541748,1.0793152h8.0795898Zm-1.3260498,6.105957c-2.7755127.6784058-5.458374,1.2335205-8.0795898,1.6343994l-.3701172-.6784363c6.2293701-1.2026672,11.2867432-2.8370972,15.1107178-4.934082,1.3876953.8017883,2.0969238,1.3877258,2.0969238,1.7269287,0,.1542053-.2158203.2467041-.5859375.2467041-.2774658,0-.6166992-.061676-.9868164-.1233521-1.8502197.6784363-3.7005615,1.2643738-5.5200195,1.7269287v5.1807861l8.7580566-1.2026672,1.3568115-2.1278381c.7709961.4934082,1.5727539,1.1101685,2.4362793,1.8502808l-.3084717.585907-12.2426758,1.6652832v5.4274902c0,.4934082.1542969.7709351.4626465.9251099.3699951.0925293,1.7885742.1850586,4.2247314.1850586,2.4053955,0,3.8239746-.0925293,4.286499-.2467041.647583-.2467041,1.171875-1.7269287,1.4494629-4.4406738l.7401123.3392029c-.0308838.3700562-.0308838.8017883-.0308838,1.2335205,0,1.2643738.123291,2.0661316.3083496,2.3745422.1234131.2467041.4008789.3392029.8635254.3392029-.0925293.9868164-.5859375,1.5110779-1.4802246,1.6344299-.9560547.1541748-2.8679199.2467041-5.6741943.2467041-3.5463867,0-5.581665-.1233521-6.105957-.4317627-.4934082-.2775269-.7092285-.8634644-.7092285-1.7885742v-5.5508423l-9.4365234,1.295166-.3699951-.7401123,9.8065186-1.3260193v-5.0265808Z"/>
    </g>
    <g>
      <path class="cls-2" d="m104.3669934,17.7871641c.3598633,0,.9814453.0817871,1.4067383.0817871.4907227,0,.8669434-.0490723,1.3249512-.0490723.1962891,0,.2453613.0490723.2453613.0981445,0,.0654297-.1308594.114502-.2780762.1472168-.6542969.1308594-.7197266.3598633-.736084,1.7993164,0,.4580078-.0163574,2.09375,0,2.5517578,0,.2290039.0490723.2453613.114502.2126465.2453613-.2126465.4580078-.3762207.7687988-.6870117.4907227-.4743652,2.6008301-2.6008301,3.026123-3.1079102.1799316-.2126465.2617188-.310791.2617188-.425293,0-.1472168-.1799316-.2126465-.5234375-.2780762-.1799316-.0490723-.2453613-.0981445-.2453613-.1472168,0-.0654297.0981445-.1308594.2453613-.1308594.3435059,0,.621582.0327148,1.0632324.0163574.6379395-.0327148,1.3085938-.0817871,1.5703125-.0817871.1799316,0,.2290039.0490723.2290039.0817871,0,.0654297-.0981445.1308594-.2780762.1635742-.6870117.1308594-1.161377.3598633-1.9138184,1.0141602-.6379395.5561523-2.1264648,1.9956055-3.0915527,2.9770508-.0327148.0490723-.0817871.114502-.0817871.1472168s.0490723.0981445.1308594.1962891c.621582.7033691,3.6313477,4.1057129,4.4001465,4.8417969.5397949.5234375.8178711.6052246,1.2431641.6870117.2290039.0654297.310791.1308594.310791.1962891,0,.0981445-.1635742.1308594-.310791.1308594-.4089355,0-1.3413086-.0981445-1.9301758-.0981445-.5561523,0-.932373.0490723-1.1450195.0490723-.1962891,0-.310791-.0327148-.310791-.1308594,0-.0490723.0490723-.114502.2617188-.1799316.3598633-.0654297.425293-.1472168.425293-.2453613,0-.114502-.0981445-.2617188-.2780762-.4416504-1.2595215-1.5048828-3.4677734-3.8930664-3.7131348-4.1711426-.0981445-.0981445-.1308594-.114502-.1472168-.114502-.0654297,0-.0654297.0817871-.0817871.2780762v1.9301758c0,.8342285.0327148,1.8974609.0654297,2.2246094.0490723.3762207.2617188.4907227.7033691.5888672.2290039.0490723.3271484.0981445.3271484.1799316s-.1635742.114502-.310791.114502c-.4089355,0-.7687988-.0817871-1.4230957-.0817871-.5561523,0-1.0959473.0817871-1.3413086.0817871-.1962891,0-.2780762-.0654297-.2780762-.114502,0-.0654297.0490723-.114502.2944336-.1635742.4907227-.114502.6379395-.2944336.6706543-.6379395.0490723-.3598633.0981445-1.4067383.0981445-4.9562988.0163574-1.3249512-.0163574-3.1242676-.0490723-3.565918-.0654297-.5725098-.2780762-.621582-.736084-.736084-.114502-.0490723-.2290039-.0817871-.2290039-.1472168s.0981445-.0981445.2453613-.0981445Z"/>
      <path class="cls-2" d="m119.1515393,17.7708067c.0490723.3598633.2126465.8015137.425293,1.357666,1.1450195,3.0424805,2.0283203,5.2670898,3.0424805,7.5734863.4089355.9650879.5725098,1.1123047.9814453,1.2104492.1962891.0327148.2780762.0981445.2780762.1472168,0,.0817871-.1472168.114502-.2944336.114502-.310791,0-.5725098-.0490723-1.4230957-.0490723-.6052246,0-1.2268066.0654297-1.6193848.0654297-.1799316,0-.2780762-.0327148-.2780762-.114502,0-.0654297.1472168-.1308594.310791-.1472168.6542969-.0981445.7524414-.3762207.736084-.736084-.0327148-.2780762-.5888672-1.7338867-1.1450195-3.1733398-.0490723-.114502-.1472168-.1962891-.2126465-.1962891-.621582.0327148-2.6826172.0327148-3.0424805.0327148-.0817871,0-.1799316.1799316-.2453613.310791-.1472168.3598633-.621582,1.5703125-.8505859,2.3718262-.1799316.621582-.1799316.932373,0,1.1123047.1472168.1472168.3598633.2126465.6870117.2780762.1635742.0490723.2453613.114502.2453613.1635742,0,.0817871-.1472168.114502-.3271484.114502-.310791,0-.9814453-.0817871-1.5703125-.0817871-.4089355,0-.7197266.0817871-1.1123047.0817871-.1799316,0-.2780762-.0327148-.2780762-.114502s.1635742-.114502.3271484-.1472168c.7524414-.1472168.8996582-.2944336,1.5212402-1.668457.4743652-1.0141602,1.9138184-4.5964355,2.8625488-7.0336914.0817871-.2126465.0981445-.3271484.0981445-.4580078,0-.0654297.0163574-.1635742.0490723-.1799316.1799316-.1308594.5234375-.4580078.5888672-.8342285.0327148-.0817871.0490723-.1635742.1308594-.1635742.0490723,0,.0817871.0654297.114502.1635742Zm.6542969,5.3652344c-.6542969-1.8483887-1.0959473-2.8952637-1.3413086-3.451416-.0490723-.1308594-.0817871-.0817871-.1308594.0327148-.3925781.932373-1.0632324,2.8134766-1.2922363,3.4841309-.0163574.0327148-.0163574.1472168.0490723.1472168.310791.0163574.7197266.0163574,1.2922363.0163574s1.2431641,0,1.4230957-.0654297c.0327148-.0163574.0327148-.0817871,0-.1635742Z"/>
      <path class="cls-2" d="m124.1870618,17.8035216c.3925781,0,1.0632324.0654297,1.5539551.0654297.3598633,0,.7524414-.0327148,1.0959473-.0327148.2290039,0,.3271484.0490723.3271484.114502,0,.0817871-.0981445.1308594-.2944336.1635742-.4580078.0817871-.4580078.2780762-.3271484.5725098.6706543,1.7011719,2.2900391,5.1853027,3.4023438,7.638916.0490723.114502.114502.0817871.1635742,0,.4580078-.932373.8505859-1.7502441,1.2922363-2.7971191.0327148-.0490723.0327148-.1635742.0327148-.1962891-.2617188-.621582-1.357666-3.1079102-1.7175293-3.8930664-.4743652-1.0141602-.6052246-1.2104492-1.1123047-1.3413086-.2617188-.0490723-.3435059-.114502-.3435059-.1962891,0-.0490723.0981445-.0981445.310791-.0981445.4743652,0,.7851562.0654297,1.3740234.0654297s.9650879-.0654297,1.3413086-.0654297c.1635742,0,.2780762.0327148.2780762.0981445,0,.0817871-.0981445.1308594-.310791.1799316-.4416504.0817871-.6052246.2780762-.3598633.8833008.2617188.6870117.7687988,1.7993164,1.2922363,3.0424805.0163574.0327148.0817871.0490723.1308594-.0327148.3925781-.8015137.736084-1.5539551,1.0795898-2.3554688.5070801-1.1940918.4907227-1.357666-.1962891-1.5212402-.310791-.0654297-.3598633-.1308594-.3598633-.1962891,0-.0490723.0981445-.0817871.2944336-.0817871.4089355,0,.6706543.0490723,1.0959473.0490723.5725098,0,.8342285-.0654297,1.2104492-.0654297.1962891,0,.2780762.0163574.2780762.0817871,0,.0817871-.0817871.1308594-.310791.1799316-.6052246.1308594-.9160156.4743652-1.4558105,1.4230957-.425293.8178711-1.2268066,2.4372559-1.5048828,2.9443359-.0163574.0327148-.0163574.114502.0163574.1962891.4089355.9650879,1.1286621,2.519043,1.6848145,3.7458496.0654297.114502.0981445.0981445.1472168,0,.7851562-1.7011719,2.7644043-6.28125,3.1079102-7.4916992.0817871-.3598633.0654297-.6379395-.4743652-.8015137-.2617188-.0817871-.3598633-.114502-.3598633-.1799316s.0490723-.0981445.2780762-.0981445c.425293,0,.6542969.0654297,1.1450195.0654297.4580078,0,.8996582-.0654297,1.1940918-.0654297.2126465,0,.2944336.0163574.2944336.0817871s-.0817871.1308594-.3762207.1799316c-.6870117.1799316-.9814453.5234375-2.0119629,2.8461914-1.0305176,2.2573242-2.3554688,5.348877-3.1079102,7.1481934-.114502.2780762-.1635742.3598633-.2453613.3598633-.114502,0-.1799316-.0981445-.2780762-.3598633-.3435059-.9978027-1.2758789-3.026123-1.7502441-4.072998-.0327148-.0654297-.0817871-.0654297-.114502-.0163574-.621582,1.2104492-1.4885254,3.1242676-1.8483887,4.072998-.0981445.2617188-.1962891.3762207-.2617188.3762207-.0981445,0-.1308594-.0817871-.2453613-.3762207-.2126465-.5397949-.7197266-1.7338867-.932373-2.2246094-.8996582-2.0773926-1.9956055-4.498291-2.7644043-6.1013184-.5888672-1.2758789-.7197266-1.5703125-1.3413086-1.6520996-.1962891-.0163574-.3435059-.0817871-.3435059-.1472168,0-.0490723.114502-.114502.3271484-.114502Z"/>
      <path class="cls-2" d="m144.9899182,17.7708067c.0490723.3598633.2126465.8015137.425293,1.357666,1.1450195,3.0424805,2.0283203,5.2670898,3.0424805,7.5734863.4089355.9650879.5725098,1.1123047.9814453,1.2104492.1962891.0327148.2780762.0981445.2780762.1472168,0,.0817871-.1472168.114502-.2944336.114502-.310791,0-.5725098-.0490723-1.4230957-.0490723-.6052246,0-1.2268066.0654297-1.6193848.0654297-.1799316,0-.2780762-.0327148-.2780762-.114502,0-.0654297.1472168-.1308594.310791-.1472168.6542969-.0981445.7524414-.3762207.736084-.736084-.0327148-.2780762-.5888672-1.7338867-1.1450195-3.1733398-.0490723-.114502-.1472168-.1962891-.2126465-.1962891-.621582.0327148-2.6826172.0327148-3.0424805.0327148-.0817871,0-.1799316.1799316-.2453613.310791-.1472168.3598633-.621582,1.5703125-.8505859,2.3718262-.1799316.621582-.1799316.932373,0,1.1123047.1472168.1472168.3598633.2126465.6870117.2780762.1635742.0490723.2453613.114502.2453613.1635742,0,.0817871-.1472168.114502-.3271484.114502-.310791,0-.9814453-.0817871-1.5703125-.0817871-.4089355,0-.7197266.0817871-1.1123047.0817871-.1799316,0-.2780762-.0327148-.2780762-.114502s.1635742-.114502.3271484-.1472168c.7524414-.1472168.8996582-.2944336,1.5212402-1.668457.4743652-1.0141602,1.9138184-4.5964355,2.8625488-7.0336914.0817871-.2126465.0981445-.3271484.0981445-.4580078,0-.0654297.0163574-.1635742.0490723-.1799316.1799316-.1308594.5234375-.4580078.5888672-.8342285.0327148-.0817871.0490723-.1635742.1308594-.1635742.0490723,0,.0817871.0654297.114502.1635742Zm.6542969,5.3652344c-.6542969-1.8483887-1.0959473-2.8952637-1.3413086-3.451416-.0490723-.1308594-.0817871-.0817871-.1308594.0327148-.3925781.932373-1.0632324,2.8134766-1.2922363,3.4841309-.0163574.0327148-.0163574.1472168.0490723.1472168.310791.0163574.7197266.0163574,1.2922363.0163574s1.2431641,0,1.4230957-.0654297c.0327148-.0163574.0327148-.0817871,0-.1635742Z"/>
      <path class="cls-2" d="m158.4822278,17.8689513c.4089355.114502.9160156.310791,1.1123047.3925781.0981445.0327148.1635742.2126465.1635742.3762207.0163574.1472168.114502.8669434.1472168,1.0632324.0490723.2126465-.0327148.310791-.0817871.310791-.0817871,0-.0981445-.0327148-.1962891-.2617188-.4580078-1.1940918-1.4230957-1.9301758-3.140625-1.9301758-1.1450195,0-2.2736816.4907227-3.026123,1.3085938-.7851562.8505859-1.3740234,2.208252-1.3740234,3.9421387,0,1.9465332,1.046875,3.4023438,1.8974609,4.1220703.7524414.621582,1.6520996.9487305,2.5026855.9487305.6870117,0,1.4230957-.2780762,1.8320312-.6870117.1799316-.2126465.2126465-.4743652.2453613-.8833008.0327148-.310791.0654297-1.357666.0163574-1.8647461-.0490723-.5561523-.2453613-.736084-.932373-.8505859-.1635742-.0163574-.310791-.0654297-.310791-.1308594s.0981445-.114502.4089355-.114502c.3598633,0,.7851562.0654297,1.4394531.0654297.5397949,0,.932373-.0490723,1.046875-.0490723.1635742,0,.2780762.0490723.2780762.0981445,0,.0981445-.1799316.1472168-.3271484.1799316-.2617188.0654297-.3598633.1962891-.3598633,1.0632324,0,.8015137.0817871,1.8320312.0817871,2.0610352,0,.2126465.0163574.3271484-.114502.3925781-.1799316.0817871-.4580078.2126465-.8015137.3925781-.7197266.310791-1.6193848.6052246-2.4699707.6052246-1.7338867,0-3.1079102-.5888672-4.1220703-1.4885254-1.161377-.9814453-1.7666016-2.3227539-1.7666016-3.8930664,0-1.7011719.6706543-3.1242676,2.208252-4.302002.736084-.5397949,1.782959-1.161377,3.7785645-1.161377.8015137,0,1.4558105.1962891,1.8647461.2944336Z"/>
      <path class="cls-2" d="m172.5631604,23.1196837c0,2.6335449-1.782959,4.2529297-3.0424805,4.809082-.6706543.2944336-1.4230957.4907227-2.1755371.4907227-2.9606934,0-5.3815918-2.5354004-5.3815918-5.5288086,0-1.6357422.5561523-3.0915527,2.1264648-4.2856445.8342285-.6542969,2.1101074-1.0305176,3.1733398-1.0305176,2.8461914,0,5.2998047,2.4863281,5.2998047,5.545166Zm-8.0314941-4.072998c-.8178711.9814453-1.161377,2.4536133-1.161377,3.7785645,0,1.2595215.4907227,2.6662598,1.2595215,3.6313477.9650879,1.2758789,2.0773926,1.6520996,2.9934082,1.6520996.5888672,0,1.2104492-.1799316,1.7502441-.6542969.7687988-.6052246,1.782959-2.0283203,1.782959-4.3347168,0-1.4230957-.4743652-2.829834-1.3903809-3.9584961-.5888672-.7033691-1.472168-1.3413086-2.7807617-1.3413086-.932373,0-1.9465332.6379395-2.4536133,1.2268066Z"/>
      <path class="cls-2" d="m174.1958508,17.8035216c.3925781,0,.8996582.0654297,1.3740234.0654297.8669434,0,3.0915527-.0327148,3.7458496-.0327148.6052246,0,.8342285-.0327148.9978027-.0327148.0654297,0,.1308594.0981445.1635742.2617188.0163574.1799316.0490723.7851562.114502,1.1123047.0163574.0981445,0,.2453613-.0654297.2453613-.0490723,0-.0981445-.0490723-.1799316-.2290039-.2780762-.6870117-.5888672-.932373-.8833008-.9978027-.3762207-.0654297-2.5354004-.0654297-3.0588379-.0490723-.1308594.0163574-.1962891.0490723-.1962891.6379395v3.7458496c0,.1962891.0490723.2617188.0981445.2617188h2.0610352c.7524414,0,.9487305-.0327148,1.0959473-.114502.114502-.0654297.2617188-.2617188.425293-.621582.0490723-.114502.0981445-.1799316.1635742-.1799316.0490723,0,.0817871.0817871.0817871.1799316s-.0654297.6052246-.0981445.8669434c-.0327148.2944336.0163574.8015137.0327148.9160156.0490723.2290039-.0654297.3271484-.0981445.3271484-.0654297,0-.0817871-.0817871-.1962891-.3435059-.0490723-.1472168-.1635742-.4580078-.4089355-.5234375-.3762207-.0817871-.8178711-.0981445-3.026123-.0981445-.114502,0-.1308594.0327148-.1308594.310791,0,.8342285.0490723,3.1242676.0490723,3.4350586,0,.1799316.1308594.6052246.425293.736084.2617188.114502.5234375.1635742,1.6193848.1635742,1.3740234,0,1.668457-.0327148,1.9956055-.3271484.1635742-.1635742.425293-.5561523.5888672-.7851562.1635742-.2126465.2290039-.2780762.2944336-.2780762s.0817871.114502.0163574.2944336c-.0981445.3762207-.2780762,1.0632324-.3598633,1.2431641-.0654297.114502-.1472168.1962891-.2617188.1962891-1.7338867,0-3.5822754-.0654297-4.9072266-.0654297-.5561523,0-1.472168.0817871-1.6520996.0817871-.2126465,0-.310791-.0490723-.310791-.114502s.114502-.0981445.2944336-.1472168c.5561523-.0817871.8833008-.2944336.8996582-1.0305176.0817871-2.6008301.0817871-4.4001465.0817871-7.6062012,0-.932373-.1962891-1.1286621-.7851562-1.2595215-.1635742-.0327148-.2453613-.0817871-.2453613-.1472168,0-.0490723.114502-.0981445.2453613-.0981445Z"/>
    </g>
  </g>
</svg>